<?xml version="1.0" encoding="UTF-8"?>
<svg id="Sparkles" xmlns="http://www.w3.org/2000/svg" viewBox="0 0 580 364">
  <g>
    <rect x="81.98" y="297.34" width="144.38" height="2" transform="translate(-60.9 40.42) rotate(-12.5)" style="fill: #66bcff;"/>
    <rect x="82.91" y="259.25" width="142.51" height="2" transform="translate(-36.69 25.57) rotate(-8.48)" style="fill: #66bcff;"/>
    <rect x="83.48" y="221.17" width="141.36" height="2" transform="translate(-16.37 12.31) rotate(-4.34)" style="fill: #66bcff;"/>
    <rect x="83.69" y="183.08" width="140.96" height="2" transform="translate(-.63 .53) rotate(-.2)" style="fill: #66bcff;"/>
    <rect x="153.84" y="74.71" width="2" height="142.65" transform="translate(-1.58 290.38) rotate(-86.02)" style="fill: #66bcff;"/>
    <rect x="153.17" y="36.71" width="2" height="142.38" transform="translate(25.62 245.33) rotate(-81.9)" style="fill: #66bcff;"/>
    <rect x="153.17" y="-2.27" width="2" height="144.18" transform="translate(53.49 205.85) rotate(-77.86)" style="fill: #66bcff;"/>
    <rect x="201.11" y="44.97" width="2" height="274.23" style="fill: #66bcff;"/>
    <rect x="176.22" y="37.84" width="2" height="288.52" style="fill: #66bcff;"/>
    <rect x="148.57" y="30.4" width="2" height="303.92" style="fill: #66bcff;"/>
    <rect x="117.69" y="21.51" width="2" height="321.7" style="fill: #66bcff;"/>
  </g>
  <g>
    <rect x="203.51" y="317.88" width="310.84" height="2" style="fill: #66bcff;"/>
    <rect x="177.22" y="325.06" width="327.91" height="2" style="fill: #66bcff;"/>
    <rect x="321.23" y="161.4" width="2" height="345.33" transform="translate(-12.28 655.82) rotate(-89.92)" style="fill: #66bcff;"/>
    <rect x="299.95" y="160.79" width="2" height="364.52" transform="translate(-42.71 643.31) rotate(-89.88)" style="fill: #66bcff;"/>
    <rect x="420.75" y="331.37" width="75.43" height="2" transform="translate(-106.73 297.57) rotate(-32.42)" style="fill: #66bcff;"/>
    <rect x="377.49" y="331.56" width="83.93" height="2" transform="translate(-107.9 240.72) rotate(-28.53)" style="fill: #66bcff;"/>
    <rect x="334.1" y="331.52" width="93.48" height="2" transform="translate(-105.64 194.87) rotate(-25.33)" style="fill: #66bcff;"/>
    <rect x="291.28" y="331.54" width="102.76" height="2" transform="translate(-102.5 159.81) rotate(-22.93)" style="fill: #66bcff;"/>
    <rect x="248.1" y="331.52" width="112.6" height="2" transform="translate(-98.33 129.94) rotate(-20.82)" style="fill: #66bcff;"/>
    <rect x="205.12" y="331.4" width="123.75" height="2" transform="translate(-93.57 104.88) rotate(-18.97)" style="fill: #66bcff;"/>
    <rect x="162.46" y="331.33" width="133.21" height="2" transform="translate(-89.74 84.79) rotate(-17.59)" style="fill: #66bcff;"/>
    <rect x="119.94" y="331.52" width="141.96" height="2" transform="translate(-85.95 67.26) rotate(-16.36)" style="fill: #66bcff;"/>
  </g>
  <g>
    <rect x="201.06" y="43.62" width="312.6" height="2" style="fill: #66bcff;"/>
    <rect x="176.49" y="36.57" width="328.21" height="2" style="fill: #66bcff;"/>
    <rect x="149.57" y="28.94" width="345.29" height="2" transform="translate(-.04 .47) rotate(-.08)" style="fill: #66bcff;"/>
    <rect x="118.69" y="20.14" width="364.83" height="2" transform="translate(-.04 .59) rotate(-.11)" style="fill: #66bcff;"/>
    <rect x="457.53" y="-6.4" width="2" height="76.24" transform="translate(187.35 402.82) rotate(-57.8)" style="fill: #66bcff;"/>
    <rect x="418.7" y="-10.95" width="2" height="85.34" transform="translate(192.02 385.71) rotate(-61.57)" style="fill: #66bcff;"/>
    <rect x="380.74" y="-16.04" width="2" height="96.2" transform="translate(189 363.13) rotate(-64.6)" style="fill: #66bcff;"/>
    <rect x="342.3" y="-20.92" width="2" height="105.95" transform="translate(179.97 335.71) rotate(-67.06)" style="fill: #66bcff;"/>
    <rect x="304.1" y="-25.77" width="2" height="115.67" transform="translate(166.3 305.66) rotate(-69.1)" style="fill: #66bcff;"/>
    <rect x="265.63" y="-30.54" width="2" height="124.55" transform="translate(149.79 273.49) rotate(-70.99)" style="fill: #66bcff;"/>
    <rect x="227.67" y="-35.55" width="2" height="134.41" transform="translate(129.68 240.21) rotate(-72.49)" style="fill: #66bcff;"/>
    <rect x="189.63" y="-40.2" width="2" height="143.73" transform="translate(106.62 205.69) rotate(-73.66)" style="fill: #66bcff;"/>
  </g>
  <g>
    <rect x="226.64" y="281.72" width="295.75" height="2" style="fill: #66bcff;"/>
    <rect x="226.64" y="248.76" width="295.75" height="2" style="fill: #66bcff;"/>
    <rect x="226.64" y="215.81" width="295.75" height="2" style="fill: #66bcff;"/>
    <rect x="226.64" y="182.85" width="295.75" height="2" style="fill: #66bcff;"/>
    <rect x="226.14" y="149.89" width="296.25" height="2" style="fill: #66bcff;"/>
    <rect x="226.64" y="116.93" width="295.75" height="2" style="fill: #66bcff;"/>
    <rect x="226.64" y="83.97" width="295.75" height="2" style="fill: #66bcff;"/>
    <rect x="489.3" y="52.02" width="2" height="260.69" style="fill: #66bcff;"/>
    <rect x="456.34" y="52.02" width="2" height="260.69" style="fill: #66bcff;"/>
    <rect x="423.39" y="52.02" width="2" height="260.69" style="fill: #66bcff;"/>
    <rect x="390.43" y="52.02" width="2" height="260.69" style="fill: #66bcff;"/>
    <rect x="357.47" y="52.02" width="2" height="260.69" style="fill: #66bcff;"/>
    <rect x="324.51" y="52.02" width="2" height="260.69" style="fill: #66bcff;"/>
    <rect x="291.56" y="52.02" width="2" height="260.69" style="fill: #66bcff;"/>
    <rect x="258.6" y="52.02" width="2" height="260.69" style="fill: #66bcff;"/>
  </g>
  <polygon points="472.26 353.31 471.02 351.73 521.39 312.14 521.39 51.82 471.02 12.22 472.26 10.65 523.39 50.85 523.39 313.11 472.26 353.31" style="fill: #66bcff;"/>
  <polygon points="522.39 313.28 224.99 313.28 224.99 50.7 522.39 50.7 522.39 52.7 226.99 52.7 226.99 311.28 522.39 311.28 522.39 313.28" style="fill: #66bcff;"/>
  <rect x="80.94" y="331.57" width="147.79" height="2" transform="translate(-84.05 54.16) rotate(-15.66)" style="fill: #66bcff;"/>
  <rect x="153.84" y="-42.38" width="2" height="147.89" transform="translate(82.32 171.97) rotate(-74.2)" style="fill: #66bcff;"/>
  <g>
    <path d="m277.96,310.23c-17.78,5.55-40.84,14.5-56.73,18.63-2.83.75-5.58,1.32-8.03,1.77-3,.92-6.26,1.41-9.36,1.3-.11.02-.16.02-.16.02l-.08-.02h-.01c-3.3-.14-6.41-.95-8.9-2.6-1.07-.7-2.01-1.56-2.81-2.6-.36-.46-.69-.97-.99-1.51-1.05-1.92-5.17-8.48-10.79-17.29-2.13-3.37-4.49-7.05-6.97-10.94-15.45-24.21-35.84-56.09-39.69-64-11.56-23.96,7.27-34.8,9.72-31.05l45.86,72.77,6.4,10.16,5.96,9.46c28.59-14.56,76.65-37.01,84.56-27.81,11.39,13.25,16.27,21.55,20,29.22,3.73,7.66-5.64,7.51-27.98,14.49Z" style="fill: #3442d9;"/>
    <path d="m292.13,306.14c-2.98-2.15-3.83-6.25-.76-10.42,2.73-3.74,6.08-10.26,7.3-12.7,3.19,4.78,5.38,8.83,7.27,12.73,2.81,5.76-1.81,7.11-13.82,10.4Z" style="fill: #ffc619;"/>
    <path d="m203.34,297.45c1.44,2.29,4.29,3.26,6.83,2.33,13.4-4.9,54.29-19.66,73.18-24.12,22.78-5.38,24.85-5.8,21.12-13.46-3.73-7.66-19.26-26.5-30.64-39.76-11.39-13.25-29.61-48.24-32.3-53.84s-8.08-4.61-15.94-2.61-67.09,24.56-74.54,27.46-7.87,8.49-7.87,8.49l60.17,95.5Z" style="fill: #3442d9;"/>
    <path d="m215.69,285.87l-9.24-3.2-.19-.29c-8.67-13.38-33.33-54.23-42.6-71.92l-.21-.4,4.4-11.27.43-.15c10.08-3.59,29.4-10.52,57.42-20.59l.34-.12,9.54,3.41.18.31c5.64,9.48,20.25,29,33.15,46.22,7.25,9.68,14.09,18.82,18.41,24.95l.29.41-3.25,9.82-.48.16c-2.56.84-6.06,1.72-10.12,2.74-4.92,1.24-10.5,2.64-15.31,4.23-10.46,3.46-20.8,7.43-29.1,10.62-5.35,2.05-9.97,3.83-13.33,4.97l-.33.11Zm-7.94-4.87l7.94,2.75c3.3-1.13,7.78-2.85,12.94-4.83,8.33-3.2,18.69-7.17,29.19-10.65,4.88-1.61,10.49-3.03,15.45-4.27,3.62-.91,7.04-1.77,9.51-2.55l2.61-7.9c-4.32-6.1-11.01-15.04-18.09-24.49-12.78-17.08-27.25-36.41-33.08-46.09l-8.19-2.93c-27.45,9.86-46.51,16.7-56.66,20.32l-3.74,9.57c9.34,17.73,33.36,57.53,42.11,71.07Z" style="fill: #808bff;"/>
    <path d="m301,295.93c-19.65,6.77-74.8,25.26-84.69,27.5-7.9,1.8-16.08,1.46-18.06-8.61-2.38-12.07,11.84-14.94,11.84-14.94,0,0,50.81-18.45,73.4-24.08,7.79-1.94,13.14-3.27,16.64-4.45,0,0-2.75,16.04.86,24.57Z" style="fill: #fff;"/>
    <path d="m150.86,214.15c-.96.36-2.25,1.06-3.7,2.3-2.88,2.49-8.93,9.57-8.82,25.21-1.2-2.01-2.24-3.78-3.08-5.27-.01-.01-.01-.02-.02-.03,1.19-13.95,7.32-20.47,10.4-22.92,1.14-.91,2.32-1.63,3.44-2.11l1.78,2.83Z" style="fill: #808bff;"/>
    <path d="m152.32,216.46c-.34.23-.68.48-1.01.75-3.46,2.74-10.77,10.66-10.59,28.4.53.87,1.08,1.77,1.65,2.69h.01c.63,1.03,1.29,2.1,1.96,3.19-1.94-19.91,5.27-28.48,8.5-31.27.43-.36.85-.69,1.24-.97l-1.76-2.79Z" style="fill: #808bff;"/>
    <path d="m199.51,291.32c-14.01,0-15.23,19.63-15.32,23.07-2.13-3.37-8.57-13.5-11.06-17.4-1.75-12.77,9.63-22.29,15.9-22.29l10.49,16.62Z" style="fill: #808bff;"/>
    <path d="m245.72,176.8c-.41-.2-.84-.44-1.29-.74-7.17-4.74-20.5-7-25.96-7.76,3.37-1.18,5.87-1.99,7.11-2.31,7.87-1.99,13.24-2.98,15.94,2.61.64,1.32,2.13,4.27,4.2,8.2Z" style="fill: #ffc619;"/>
    <path d="m289.71,274.15c-1.97-4.28,3.78-12.31,9.64-20.04,2.33,3.27,4.14,6.06,5.12,8.09,3.34,6.89,2.02,7.92-14.75,11.96Z" style="fill: #ffc619;"/>
    <g>
      <path d="m257.23,232.06c3.04-1.5,6.13-2.96,9.16-4.27,0,0-20.02-17.03-25.81-25.53,10.92-4.93,24-9.74,27.45-6.16,2.49,2.57,13.35,18.33,23.61,29.52l-34.41,6.43Z" style="fill: #2b37b5;"/>
      <path d="m291.9,244.27l-5.95-7.39s1.79-1.65-.68-3.35c-2.49-1.7-9.09-.86-14.52,2.1-.98.53-2.47,1.35-4.36,2.38v-10.21c8.5-3.64,16.49-5.99,21.2-4.37,11.65,4.04,9.79,18.48,4.31,20.85Z" style="fill: #202987;"/>
      <path d="m266.39,227.79v10.21c-8.57,4.63-25.01,13.22-35.64,15.71-17.7,4.15-20.34-12.88-20.34-12.88,5.9,7.14,13.97,6.68,23.91,2.79,5.92-2.31,19.55-10.46,32.07-15.83Z" style="fill: #ffc619;"/>
      <path d="m240.58,202.26c-.44.2-.87.4-1.3.59-.63.29-1.25.57-1.86.86-1.7.8-3.33,1.6-4.81,2.32-11.34,5.59-29.51,20.81-22.21,34.79,5.9,7.14,13.97,6.68,23.91,2.79,4.49-1.75,13.4-6.85,22.89-11.55h.01c3.04-1.51,6.13-2.97,9.16-4.28,0,0-20.02-17.03-25.81-25.53Zm-5.74,33.99c-.15.01-.32.01-.47.01-7,0-12.68-5.1-12.68-11.4s5.69-11.4,12.68-11.4,12.68,5.1,12.68,11.4c0,4.82-3.33,8.94-8.05,10.62-1.3.45-2.7.73-4.16.77Z" style="fill: #ffe75c;"/>
      <ellipse cx="234.37" cy="224.86" rx="12.68" ry="11.4" style="fill: #ffc619;"/>
      <path d="m236.89,223.9l2.63,3.19c.39.47.26,1.17-.28,1.49l-3.74,2.15c-.54.31-1.21.07-1.42-.51l-1.44-3.88c-.14-.38-.48-.62-.89-.66-1.04-.11-1.91-.61-2.34-1.46-.78-1.54.17-3.63,2.1-4.74,1.93-1.11,4.22-.88,5.16.57.52.8.51,1.8.09,2.76-.17.37-.13.79.13,1.1Z" style="fill: #242145;"/>
    </g>
  </g>
  <g>
    <path d="m361.7,221.42c-2.26-3.56-2.72-7.66-.82-10.91,3.01-5.14,10.79-6.18,17.39-2.32,6.6,3.86,9.5,11.15,6.5,16.29-1.87,3.19-5.57,4.8-9.69,4.64l-13.37-7.71Z" style="fill: #cfd5ff;"/>
    <path d="m363.95,217.32l-4.51,8.24c-2.01-.49-4.11-.74-6.27-.74-14.69,0-26.59,11.91-26.59,26.59s11.91,26.59,26.59,26.59,26.59-11.91,26.59-26.59c0-7.1-2.78-13.54-7.31-18.31l6.36-9.66-14.87-6.12Z" style="fill: #cfd5ff;"/>
    <path d="m332.88,246.6c-2.95,11.01,3.58,22.33,14.59,25.28,11.02,2.95,22.34-3.58,25.29-14.59.56-2.1.77-4.2.69-6.27h0c0-.18-.01-.34-.03-.51-.69-2.1-8.32-5.61-18.02-8.21-9.69-2.6-18.05-3.37-19.7-1.89-.1.13-.19.27-.28.41h0c-1.11,1.75-1.98,3.68-2.54,5.78Z" style="fill: #d11583;"/>
    <path d="m335.42,240.82h0c-.5,2.01,7.56,5.9,18.04,8.71,10.49,2.81,19.42,3.48,19.98,1.49h0c.04-.16.03-.33-.03-.51-.69-2.1-8.32-5.61-18.02-8.21-9.69-2.6-18.05-3.37-19.7-1.89-.15.12-.23.26-.28.41Z" style="fill: #eb459f;"/>
    <g>
      <path d="m381.37,202.31c2.8,1.72,4.37,3.58,5.25,5.07.85,1.48.72,3.32-.34,4.67l-6.59,7.47c-.11.14-.23.28-.36.4-.23-1.85-2.18-4.26-5.08-6.05-2.94-1.82-6.01-2.47-7.75-1.8.05-.17.12-.34.19-.5l3.77-9.2c.71-1.55,2.3-2.52,4-2.42,1.72.1,4.1.64,6.91,2.36Z" style="fill: #ffe75c;"/>
      <path d="m374.25,213.87c2.9,1.79,4.84,4.2,5.08,6.05-1.14,1.14-2.8,1.63-4.39,1.25-1.26-.3-2.72-.91-4.12-1.77-1.4-.86-2.6-1.88-3.45-2.86-1.06-1.25-1.38-2.94-.87-4.47,1.74-.67,4.81-.02,7.75,1.8Z" style="fill: #ffe75c;"/>
      <path d="m374.25,213.87c2.9,1.79,4.84,4.2,5.08,6.05-1.14,1.14-2.8,1.63-4.39,1.25-1.26-.3-2.72-.91-4.12-1.77-1.4-.86-2.6-1.88-3.45-2.86-1.06-1.25-1.38-2.94-.87-4.47,1.74-.67,4.81-.02,7.75,1.8Z" style="fill: #ffc619;"/>
    </g>
    <path d="m384.12,214.36c-.17,0-.33-.09-.43-.24-1.33-2.2-3.29-4.1-5.68-5.49-2.72-1.59-5.82-2.39-8.68-2.25-.31.02-.51-.2-.52-.47-.01-.28.2-.51.47-.52,3.07-.15,6.34.69,9.23,2.38,2.53,1.48,4.61,3.5,6.03,5.84.14.24.07.54-.17.69-.08.05-.17.07-.26.07Z" style="fill: #cfd5ff;"/>
  </g>
  <path d="m417,80.19l-108.34,17.01c-8.5,1.33-16.72-5.64-18.54-15.56h0c-1.82-9.91,3.37-19.36,11.79-21.14l107.31-22.65c11.5-2.43,22.86,5.28,25.06,17.28h0c2.21,12-5.66,23.24-17.28,25.06Z" style="fill: #fff;"/>
  <g>
    <g>
      <path d="m306.73,88.07c-.95,0-1.79-.67-1.96-1.64l-2.66-14.48c-.2-1.09.52-2.13,1.61-2.33,1.08-.2,2.13.52,2.33,1.6l2.66,14.48c.2,1.09-.52,2.13-1.61,2.33-.12.02-.24.03-.36.03Z" style="fill: #242145;"/>
      <path d="m299.34,81.95c-.95,0-1.79-.67-1.96-1.64-.2-1.09.52-2.13,1.61-2.33l12.23-2.25c1.08-.2,2.13.52,2.33,1.6.2,1.09-.52,2.13-1.61,2.33l-12.23,2.25c-.12.02-.24.03-.36.03Z" style="fill: #242145;"/>
      <path d="m302.04,86.71c-.34,0-.68-.09-.99-.26-.96-.55-1.29-1.77-.74-2.73l6.77-11.83c.55-.96,1.77-1.29,2.73-.74s1.29,1.77.74,2.73l-6.77,11.83c-.37.65-1.04,1.01-1.74,1.01Z" style="fill: #242145;"/>
      <path d="m310.7,85.18c-.45,0-.9-.15-1.27-.45l-10.53-8.65c-.85-.7-.98-1.96-.28-2.81.7-.85,1.96-.98,2.82-.28l10.53,8.65c.85.7.98,1.96.28,2.81-.4.48-.97.73-1.55.73Z" style="fill: #242145;"/>
    </g>
    <g>
      <path d="m325.93,84.75c-.95,0-1.79-.67-1.96-1.64l-2.74-14.87c-.2-1.09.52-2.13,1.61-2.33,1.08-.2,2.13.52,2.33,1.6l2.74,14.87c.2,1.09-.52,2.13-1.61,2.33-.12.02-.24.03-.36.03Z" style="fill: #242145;"/>
      <path d="m318.16,78.49c-.95,0-1.79-.67-1.96-1.64-.2-1.09.52-2.13,1.61-2.33l12.91-2.37c1.08-.2,2.13.52,2.33,1.6.2,1.09-.52,2.13-1.61,2.33l-12.91,2.37c-.12.02-.24.03-.36.03Z" style="fill: #242145;"/>
      <path d="m320.99,83.37c-.35,0-.7-.09-1.01-.28-.95-.56-1.27-1.79-.71-2.74l7.19-12.2c.56-.95,1.79-1.27,2.74-.71.95.56,1.27,1.79.71,2.74l-7.19,12.2c-.37.63-1.04.98-1.72.98Z" style="fill: #242145;"/>
      <path d="m330.13,81.76c-.44,0-.88-.14-1.25-.44l-11.06-8.84c-.86-.69-1-1.95-.31-2.81.69-.86,1.95-1,2.81-.31l11.06,8.84c.86.69,1,1.95.31,2.81-.39.49-.98.75-1.56.75Z" style="fill: #242145;"/>
    </g>
    <g>
      <path d="m346.2,81.23c-.95,0-1.79-.67-1.96-1.64l-2.81-15.29c-.2-1.09.52-2.13,1.61-2.33,1.08-.2,2.13.52,2.33,1.6l2.81,15.29c.2,1.09-.52,2.13-1.61,2.33-.12.02-.24.03-.36.03Z" style="fill: #242145;"/>
      <path d="m338.04,74.83c-.95,0-1.79-.67-1.96-1.64-.2-1.09.52-2.13,1.61-2.33l13.64-2.51c1.08-.21,2.13.52,2.33,1.6.2,1.09-.52,2.13-1.61,2.33l-13.64,2.51c-.12.02-.24.03-.36.03Z" style="fill: #242145;"/>
      <path d="m340.99,79.84c-.35,0-.71-.09-1.04-.29-.94-.57-1.24-1.8-.67-2.75l7.66-12.59c.57-.94,1.8-1.24,2.75-.67.94.57,1.24,1.8.67,2.75l-7.66,12.59c-.38.62-1.04.96-1.71.96Z" style="fill: #242145;"/>
      <path d="m350.65,78.14c-.43,0-.86-.14-1.23-.42l-11.64-9.04c-.87-.68-1.03-1.93-.35-2.81.68-.87,1.94-1.03,2.81-.35l11.64,9.04c.87.68,1.03,1.93.35,2.81-.39.51-.98.77-1.58.77Z" style="fill: #242145;"/>
    </g>
    <g>
      <path d="m367.64,77.52c-.95,0-1.79-.67-1.96-1.64l-2.89-15.73c-.2-1.09.52-2.13,1.61-2.33,1.08-.2,2.13.52,2.33,1.6l2.89,15.73c.2,1.09-.52,2.13-1.61,2.33-.12.02-.24.03-.36.03Z" style="fill: #242145;"/>
      <path d="m359.04,70.97c-.95,0-1.79-.67-1.96-1.64-.2-1.09.52-2.13,1.61-2.33l14.44-2.66c1.08-.2,2.13.52,2.33,1.6.2,1.09-.52,2.13-1.61,2.33l-14.44,2.66c-.12.02-.24.03-.36.03Z" style="fill: #242145;"/>
      <path d="m362.14,76.11c-.36,0-.73-.1-1.06-.31-.94-.59-1.22-1.82-.63-2.76l8.17-13c.59-.93,1.82-1.22,2.76-.63.94.59,1.22,1.82.63,2.76l-8.17,13c-.38.6-1.03.94-1.7.94Z" style="fill: #242145;"/>
      <path d="m372.37,74.31c-.42,0-.84-.13-1.2-.4l-12.26-9.25c-.88-.67-1.06-1.92-.39-2.8.66-.88,1.92-1.06,2.8-.39l12.26,9.25c.88.67,1.06,1.92.39,2.8-.39.52-.99.8-1.6.8Z" style="fill: #242145;"/>
    </g>
    <g>
      <path d="m390.36,73.58c-.95,0-1.79-.67-1.96-1.64l-2.98-16.2c-.2-1.09.52-2.13,1.61-2.33,1.08-.2,2.13.52,2.33,1.6l2.98,16.2c.2,1.09-.52,2.13-1.61,2.33-.12.02-.24.03-.36.03Z" style="fill: #242145;"/>
      <path d="m381.29,66.88c-.95,0-1.79-.67-1.96-1.64-.2-1.09.52-2.13,1.61-2.33l15.32-2.82c1.08-.2,2.13.52,2.33,1.6.2,1.09-.52,2.13-1.61,2.33l-15.32,2.82c-.12.02-.24.03-.36.03Z" style="fill: #242145;"/>
      <path d="m384.54,72.16c-.37,0-.75-.1-1.09-.32-.93-.6-1.19-1.84-.59-2.77l8.72-13.45c.6-.93,1.84-1.19,2.77-.59.93.6,1.19,1.84.59,2.77l-8.72,13.45c-.38.59-1.02.91-1.68.91Z" style="fill: #242145;"/>
      <path d="m395.39,70.25c-.41,0-.82-.13-1.18-.39l-12.94-9.46c-.89-.65-1.09-1.9-.43-2.79.65-.89,1.9-1.09,2.79-.43l12.94,9.46c.89.65,1.09,1.9.43,2.79-.39.54-1,.82-1.62.82Z" style="fill: #242145;"/>
    </g>
    <g>
      <path d="m414.47,69.4c-.95,0-1.79-.67-1.96-1.64l-3.07-16.7c-.2-1.09.52-2.13,1.61-2.33,1.09-.2,2.13.52,2.33,1.6l3.07,16.7c.2,1.09-.52,2.13-1.61,2.33-.12.02-.24.03-.36.03Z" style="fill: #242145;"/>
      <path d="m404.89,62.54c-.95,0-1.79-.67-1.96-1.64-.2-1.09.52-2.13,1.61-2.33l16.27-2.99c1.08-.2,2.13.52,2.33,1.6.2,1.09-.52,2.13-1.61,2.33l-16.27,2.99c-.12.02-.24.03-.36.03Z" style="fill: #242145;"/>
      <path d="m408.31,67.97c-.38,0-.77-.11-1.11-.34-.92-.61-1.16-1.86-.55-2.77l9.33-13.92c.61-.92,1.86-1.16,2.77-.55.92.61,1.16,1.86.55,2.77l-9.33,13.92c-.39.58-1.02.89-1.66.89Z" style="fill: #242145;"/>
      <path d="m419.82,65.93c-.4,0-.8-.12-1.15-.37l-13.67-9.69c-.9-.64-1.11-1.89-.48-2.79.64-.9,1.89-1.11,2.79-.48l13.67,9.69c.9.64,1.11,1.89.48,2.79-.39.55-1.01.84-1.63.84Z" style="fill: #242145;"/>
    </g>
  </g>
  <path d="m195.41,164.49h-74.75c-10.4,0-14.07-7.3-8.33-16.14l49.1-75.48c4.69-7.21,15.84-12.95,24.99-12.95h65.8c9.15,0,13.57,5.75,9.81,12.95l-39.38,75.48c-4.61,8.84-16.85,16.14-27.24,16.14Z"/>
  <path d="m191.24,158.32h-74.75c-10.4,0-14.07-7.3-8.33-16.14l49.1-75.48c4.69-7.21,15.84-12.95,24.99-12.95h65.8c9.15,0,13.57,5.75,9.81,12.95l-39.38,75.48c-4.61,8.84-16.85,16.14-27.24,16.14Z" style="fill: #fff;"/>
  <path d="m193.38,75.37c-2.28,3.81-6.75,7.2-11.7,9.22-3,1.23-6.17,1.95-9.11,1.95s-5.22-.72-6.72-1.94c-2.46-2.02-2.77-5.42-.35-9.23,3.82-6.04,13.03-10.86,20.62-10.86s10.86,4.82,7.25,10.86Z" style="fill: #66bcff;"/>
  <path d="m185.21,80.82l-2.09,3.46c-3.47,1.42-7.14,2.25-10.54,2.25s-6.04-.83-7.78-2.25l2.17-3.47c1.9-3.03,5.85-5.6,9.82-6.67-.65-.75-.66-1.86.11-3.11,1.4-2.25,4.85-4.06,7.7-4.06s4.06,1.81,2.69,4.06c-.76,1.24-2.14,2.35-3.71,3.11,2.66,1.06,3.44,3.64,1.62,6.67Z" style="fill: #242145;"/>
  <path d="m233.82,82.42h-32.1c-2.4,0-3.89-2.6-2.67-4.67l4.58-7.78c.56-.95,1.57-1.53,2.67-1.53h31.71c2.35,0,3.84,2.5,2.73,4.57l-4.2,7.78c-.54,1-1.59,1.63-2.73,1.63Z" style="fill: #57f287;"/>
  <path d="m177.04,102.7c-2.44,4.08-7.14,7.71-12.3,9.88-3.13,1.31-6.43,2.09-9.47,2.09s-5.39-.77-6.91-2.08c-2.5-2.17-2.74-5.8-.15-9.88,4.09-6.46,13.72-11.62,21.57-11.62s11.13,5.16,7.26,11.62Z" style="fill: #66bcff;"/>
  <path d="m168.47,108.54l-2.24,3.71c-3.63,1.52-7.44,2.41-10.96,2.41s-6.24-.89-8-2.41l2.33-3.72c2.03-3.24,6.18-6,10.31-7.14-.66-.8-.65-1.99.18-3.32,1.5-2.41,5.1-4.35,8.06-4.35s4.16,1.94,2.7,4.35c-.81,1.33-2.26,2.52-3.9,3.32,2.73,1.14,3.48,3.9,1.53,7.14Z" style="fill: #242145;"/>
  <path d="m218.81,110.26h-33.47c-2.4,0-3.89-2.6-2.67-4.67l5.16-8.77c.56-.95,1.57-1.53,2.67-1.53h33.04c2.35,0,3.84,2.5,2.73,4.57l-4.73,8.77c-.54,1-1.59,1.63-2.73,1.63Z" style="fill: #57f287;"/>
  <path d="m159.53,132c-2.62,4.38-7.57,8.27-12.97,10.6-3.28,1.41-6.71,2.24-9.86,2.24s-5.56-.83-7.11-2.23c-2.54-2.33-2.7-6.23.07-10.61,4.39-6.93,14.48-12.46,22.61-12.46s11.41,5.53,7.26,12.46Z" style="fill: #66bcff;"/>
  <path d="m150.52,138.26l-2.4,3.98c-3.79,1.63-7.77,2.59-11.42,2.59s-6.44-.96-8.23-2.59l2.5-3.99c2.18-3.48,6.54-6.44,10.85-7.66-.66-.86-.62-2.14.26-3.56,1.61-2.58,5.38-4.66,8.44-4.66s4.27,2.08,2.7,4.66c-.87,1.43-2.4,2.7-4.11,3.56,2.8,1.22,3.52,4.18,1.42,7.66Z" style="fill: #242145;"/>
  <path d="m202.71,140.1h-34.94c-2.4,0-3.89-2.6-2.67-4.67l5.81-9.86c.56-.95,1.57-1.53,2.67-1.53h34.46c2.35,0,3.84,2.5,2.73,4.57l-5.32,9.86c-.54,1-1.59,1.63-2.73,1.63Z" style="fill: #57f287;"/>
  <g>
    <path d="m484.26,191.76s24.02-33.5,27.62-37.8c2.78-3.32,2.36-5.79-2.44-7.11l-12.79-3.52-17.12,40.97,4.74,7.45Z" style="fill: #ffc619;"/>
    <path d="m490.17,133.58c3.23,1.05,6.23,2.04,8.9,2.91,7.31,2.39,12.13,3.96,12.13,3.96-22.56,5.13-20.16,26.66-28.54,42.48-2.32-12.81-6.39-35.6-7.1-40.99-.98-7.59-6.92-7.32-20.76-10.25l35.37,1.89Z" style="fill: #d0d6ef;"/>
    <path d="m429.32,112.64c12.41,3.45,45.88,11.09,65.31,15.45,8.63,1.95,14.5,3.25,14.5,3.25-3.93,1.54-7.25,3.24-10.06,5.15-13.29,8.99-15.26,22.55-16.41,46.43-2.32-12.81-6.39-35.6-7.1-40.99-.98-7.59-6.92-7.32-20.76-10.25l-25.47-19.04Z" style="fill: #e3e6fc;"/>
    <path d="m490.17,133.58c-6.46,10.17-7.35,25.04-7.52,49.34-2.32-12.81-6.39-35.6-7.1-40.99-.98-7.59-6.92-7.32-20.76-10.25-11.61-2.46-31.25-5.77-37.26-6.78-1.12-.18-2.1-.85-2.71-1.8-1.35-2.1-3.99-5.82-6.6-7.15-1.34-.69-2.9-1.24-4.52-1.7h0c.79-2.89,1.9-5.31,3.14-7.33.65-1.07,1.33-2.02,2.03-2.86,3.73-4.55,7.71-6.16,7.71-6.16,0,0,4.8,3.85,15.36,7.34,10.55,3.48,71.53,16.54,71.53,16.54-3.52,1.89-6.43,3.95-8.86,6.3-1.73,1.67-3.2,3.49-4.46,5.48Z" style="fill: #fff;"/>
    <path d="m484.26,191.76l-91.46-22.82c-2.07-.52-3.68-2.11-4.22-4.17l-11.23-40.69c-.99-3.54,2.02-6.93,5.65-6.36,1.33.2,2.7.44,3.97.7,1.04.2,2.11-.32,2.53-1.29.99-2.31,3.1-5.24,6.01-4.66.94.19,1.98.38,3.07.6,1.05.21,2.15.44,3.26.71.62.15,1.25.31,1.87.49,1.62.45,3.18,1.01,4.52,1.7,2.61,1.33,5.25,5.04,6.6,7.15.61.96,1.59,1.62,2.71,1.8,6.01,1.01,25.64,4.32,37.26,6.78,13.84,2.93,19.77,2.66,20.76,10.25.71,5.39,4.78,28.18,7.1,40.99.95,5.26,1.6,8.84,1.6,8.84Z" style="fill: #ffe75c;"/>
  </g>
  <path d="m389.72,281.07c-31.43,3.08-52.89,23.15-61.36,37.65s-2.17,37.25,30.59,16.75c16.85-10.54,19.01-12.42,34.35-12.42,27.72,0,29.08,29.41,54.71,25.5,6.7-1.02,11.79-5.82,11.79-16.22,0-16.38-4.3-37.3-13.43-43.93-10.11-7.34-33.42-9.6-56.65-7.32Z" style="fill: #fff;"/>
  <path d="m418.34,289.34c0,2.87-5.79,5.19-12.94,5.19s-12.94-2.32-12.94-5.19,5.79-7.08,12.94-7.08,12.94,4.22,12.94,7.08Z" style="fill: #ff78b9;"/>
  <path d="m383.06,310.85h0c-1.42.56-3.04-.06-3.71-1.43l-3.03-6.19,6.41-2.55,2.04,6.58c.45,1.46-.29,3.02-1.71,3.59Z" style="fill: #49486e;"/>
  <path d="m416.49,314.49h0c-1.52-.13-2.69-1.42-2.67-2.95l.07-6.89,6.87.6-1.13,6.8c-.25,1.51-1.62,2.57-3.14,2.44Z" style="fill: #49486e;"/>
  <ellipse cx="378.9" cy="300.39" rx="9.13" ry="5.69" transform="translate(-84.16 161.19) rotate(-21.68)" style="fill: #8c8ab3;"/>
  <ellipse cx="417.47" cy="303.28" rx="6.82" ry="9.13" transform="translate(78.96 692.72) rotate(-85)" style="fill: #8c8ab3;"/>
  <g>
    <g>
      <path d="m426.33,290.2c2.2.26,3.46,1.32,2.83,2.4s-2.96,1.77-5.2,1.53-3.55-1.34-2.87-2.43c.67-1.09,3.02-1.75,5.24-1.49Z" style="fill: #8c8ab3;"/>
      <path d="m442.92,292.3c2.2.26,3.46,1.32,2.83,2.4s-2.96,1.77-5.2,1.53c-2.26-.24-3.55-1.34-2.87-2.43.67-1.09,3.02-1.75,5.24-1.49Z" style="fill: #8c8ab3;"/>
      <path d="m436.64,287.58c2.2.26,3.46,1.32,2.83,2.4s-2.96,1.77-5.2,1.53-3.55-1.34-2.87-2.43c.67-1.09,3.02-1.75,5.24-1.49Z" style="fill: #8c8ab3;"/>
      <path d="m432.44,295.24c2.2.26,3.46,1.32,2.83,2.4s-2.96,1.77-5.2,1.53c-2.26-.24-3.55-1.34-2.87-2.43s3.02-1.75,5.24-1.49Z" style="fill: #8c8ab3;"/>
    </g>
    <path d="m387.03,287.19l-1.33-.02c-.78-.01-1.19-.29-.92-.61l.44-.52c.26-.31-.14-.56-.88-.57l-2.83-.05c-.75-.01-1.62.22-1.97.52l-.6.52c-.37.32-1.31.58-2.1.57l-1.34-.02c-.81-.01-1.86.26-2.35.62l-2.03,1.5c-.58.43-.32.8.62.81l1.53.02c.9.01,1.22.38.69.85l-.94.82c-.61.53-.28.99.76,1l3.93.05c1.03.01,2.24-.42,2.69-.95l.7-.82c.39-.46,1.42-.81,2.32-.8l1.52.02c.92.01,1.9-.34,2.18-.77l.96-1.51c.23-.36-.24-.66-1.05-.67Z" style="fill: #8c8ab3;"/>
  </g>
  <g>
    <path d="m317.38,150.15l4.37,14.58,6.59-2h0s-6.59,2.01-6.59,2.01l-13.94,4.23-1.18.36-3.04.92h-.01l-13.76,4.18-3.04-10.12c-2.66-8.88,1.39-18.33,9.28-21.21-.14.05-.27.09-.4.14.23-.09.45-.17.69-.25.09-.03.18-.07.28-.11.68-.25,1.39-.51,2.13-.78.44-.16.9-.33,1.36-.5.04-.01.08-.03.12-.05.48-.18.97-.35,1.46-.54,7.01-2.59,15.43-5.7,21.77-8.05,4-1.48,7.18-2.66,8.66-3.21-.29.12-.58.24-.85.38-1.87.69-4.68,1.72-7.98,2.94-4.99,3.43-8.14,9.68-5.92,17.08Z" style="fill: #57f287;"/>
    <polygon points="331.18 196.19 298.66 203.92 291.74 180.82 301.15 178.1 301.94 177.87 303.38 177.45 304.13 177.24 305.1 176.96 310.05 175.53 323.79 171.55 331.18 196.19" style="fill: #57f287;"/>
    <path d="m355,154.93l-20.42,5.98-4.03-13.44c-1.9-6.35,1.82-12.25,7.89-13.12,5.66-.82,11.31,3.08,12.99,8.66l3.57,11.92Z" style="fill: #23d95b;"/>
    <path d="m362.93,181.37s-.01.01-.02.02c-.19.16-.38.31-.59.45-.1.06-.21.12-.32.18l-18.23,9.51h0l-7.17-23.9,20.25-6.58,6.09,20.32Z" style="fill: #23d95b;"/>
    <polygon points="360.11 159.99 360.1 159.99 356.84 161.05 336.59 167.63 330.41 169.64 329.95 168.11 328.34 162.74 328.34 162.73 334.58 160.91 355 154.93 358.29 153.97 358.3 153.97 360.11 159.99" style="fill: #808bff;"/>
    <polygon points="330.41 169.64 323.79 171.55 310.05 175.53 305.1 176.96 304.13 177.24 303.38 177.45 301.94 177.87 301.15 178.1 291.74 180.82 285.76 182.55 283.86 176.24 289.82 174.43 303.58 170.25 303.59 170.25 306.63 169.33 307.81 168.97 321.75 164.74 328.34 162.74 329.95 168.11 330.41 169.64" style="fill: #a9b3fc;"/>
    <rect x="285.82" y="161.5" width="37.65" height="1" transform="translate(-34.5 98.46) rotate(-17.39)" style="fill: #23d95b;"/>
    <rect x="290.18" y="183.05" width="37.65" height="1" transform="translate(-37.57 88.37) rotate(-15.35)" style="fill: #23d95b;"/>
    <rect x="292.74" y="190.38" width="37.65" height="1" transform="translate(-37.41 82.59) rotate(-14.25)" style="fill: #23d95b;"/>
    <rect x="295.52" y="197.12" width="37.65" height="1" transform="translate(-38.02 80.55) rotate(-13.78)" style="fill: #23d95b;"/>
    <rect x="284.33" y="153.86" width="37.65" height="1" transform="translate(-32.28 97.66) rotate(-17.39)" style="fill: #23d95b;"/>
    <rect x="284.38" y="147.07" width="37.65" height="1" transform="translate(-31.11 103.45) rotate(-18.43)" style="fill: #23d95b;"/>
    <rect x="285.82" y="141.77" width="37.65" height="1" transform="translate(-30.22 112) rotate(-19.87)" style="fill: #23d95b;"/>
    <path d="m324.21,148.98l4.13,13.75-6.59,2-4.37-14.58c-2.22-7.4.93-13.65,5.92-17.08,3.3-1.22,6.11-2.25,7.98-2.94-6.24,3.03-9.55,10.56-7.07,18.85Z" style="fill: #a9b3fc;"/>
    <path d="m286.78,164.31l3.04,10.12-5.96,1.81-2.99-10c-1.98-6.6-.25-13.51,4.02-17.72.28-.27.57-.54.87-.79.45-.38.93-.73,1.43-1.05.33-.21.67-.41,1.02-.59.53-.28,1.08-.52,1.65-.73.34-.12.73-.27,1.17-.42.14-.06.28-.11.43-.16.66-.24,1.41-.52,2.24-.82.33-.12.67-.25,1.02-.38h.01c.3-.11.61-.23.93-.34.13-.05.26-.09.4-.14-7.89,2.88-11.94,12.33-9.28,21.21Z" style="fill: #a9b3fc;"/>
    <g>
      <rect x="331.85" y="150.99" width="22.12" height="1" transform="translate(-25.26 80.88) rotate(-12.98)" style="fill: #1eba4e;"/>
      <rect x="337.74" y="170.53" width="22.12" height="1" transform="translate(-38.16 136.72) rotate(-21.05)" style="fill: #1eba4e;"/>
      <rect x="339.77" y="177.45" width="22.12" height="1" transform="translate(-41.69 151.98) rotate(-23.11)" style="fill: #1eba4e;"/>
      <rect x="341.36" y="184.04" width="22.12" height="1" transform="translate(-45.32 177.09) rotate(-26.57)" style="fill: #1eba4e;"/>
      <rect x="329.46" y="144.77" width="22.12" height="1" transform="translate(-21.05 65.72) rotate(-10.7)" style="fill: #1eba4e;"/>
      <rect x="329.09" y="138.38" width="22.12" height="1" transform="translate(-17.35 54.13) rotate(-8.87)" style="fill: #1eba4e;"/>
    </g>
    <path d="m358.29,153.97l-3.29.96-3.57-11.92c-1.68-5.58-7.33-9.48-12.99-8.66-6.07.87-9.79,6.77-7.89,13.12l4.03,13.44-6.24,1.82-4.13-13.75c-2.48-8.29.83-15.82,7.07-18.85.27-.14.56-.26.85-.38.2-.08.41-.16.62-.23.09-.04.18-.07.28-.09.23-.08.45-.14.69-.2.01,0,.02-.01.03-.01.26-.08.52-.14.79-.19.24-.06.49-.1.75-.14.26-.04.52-.07.79-.1,8.2-.79,16.28,5.4,18.79,13.77l3.42,11.41Z" style="fill: #808aff;"/>
    <path d="m298.66,203.92h-.01l-1.27.3c-2.66.63-5.51-1.3-6.41-4.29l-5.21-17.38,5.98-1.73,6.92,23.1Z" style="fill: #a9b3fc;"/>
    <path d="m337.83,194.37c-1.2.45-2.44.82-3.69,1.12l-2.95.7h-.01l-7.39-24.64,6.62-1.91,7.42,24.73Z" style="fill: #a9b3fc;"/>
    <path d="m343.76,191.53l-2.44,1.28c-1.13.59-2.29,1.11-3.49,1.56l-7.42-24.73,6.18-2.01,7.17,23.9Z" style="fill: #808aff;"/>
    <path d="m362.93,181.37l-6.09-20.32,3.26-1.06,4.41,14.72c.74,2.45.06,5.17-1.58,6.66Z" style="fill: #808aff;"/>
    <path d="m330.41,170.14c-.21,0-.41-.13-.48-.35-.08-.26.06-.54.32-.63l29.84-9.67c.28,0,.5.22.5.5,0,.24-.17.44-.4.49l-29.64,9.64c-.05.02-.1.02-.15.02Z" style="fill: #a9b3fc;"/>
    <path d="m285.76,183.05c-.22,0-.42-.14-.48-.36-.08-.27.08-.54.34-.62l44.65-12.91c.26-.08.54.08.62.34.08.27-.08.54-.34.62l-44.65,12.91s-.09.02-.14.02Z" style="fill: #d1d6fc;"/>
    <g>
      <path d="m304.14,177.27l1.32,4.4c.36,1.19,1.51,1.9,2.57,1.58l2.03-.6c1.08-.32,1.66-1.56,1.3-2.76l-1.34-4.46-1.34-4.46c-.36-1.2-1.53-1.91-2.61-1.59l-2.02.61c-1.06.32-1.63,1.55-1.28,2.74l1.32,4.4.04.12Z" style="fill: #a9b3fc;"/>
      <g>
        <path d="m309.73,182.23c-.12,2.71-.04,2.33-.27,2.33l-1.99-.09.11-2.33c.06-1.49-1.05-2.74-2.53-2.84-.08,0-.14,0-.2,0-.67,0-1.31.24-1.81.69-.55.5-.88,1.17-.9,1.91l-.1,2.32-1.46-.07c-.24-.01-.47,0-.7.06l.11-2.39c.06-1.33.63-2.55,1.63-3.43.99-.88,2.25-1.32,3.59-1.23,2.66.19,4.65,2.43,4.53,5.08Z" style="fill: #808bff;"/>
        <path d="m305.64,184.39l3.81.17c1.73.08,3.07,1.71,2.98,3.63l-.28,6.47c-.08,1.92-1.56,3.36-3.28,3.21l-3.68-.16" style="fill: #808bff;"/>
        <path d="m305.69,197.74l-5.69-.48c-1.66-.14-2.92-1.76-2.84-3.62l.28-6.27c.08-1.86,1.48-3.3,3.14-3.22l5.7.28c1.73.08,3.07,1.71,2.98,3.63l-.28,6.47c-.08,1.92-1.56,3.36-3.28,3.21Z" style="fill: #a9b3fc;"/>
        <path d="m305.33,190.28c-.04.99-.61,1.8-1.38,2.14l-.09,2.04c-.02.38-.3.66-.63.63l-.6-.05c-.33-.03-.59-.35-.58-.72l.09-2.03c-.73-.44-1.2-1.32-1.16-2.29.06-1.33,1.08-2.37,2.27-2.3s2.14,1.23,2.08,2.58Z"/>
      </g>
      <path d="m306.52,172.58c.12.39-.11.82-.5.93l-3.2.96c-.17.05-.27.23-.21.4l1.54,5.13c.05.17.23.27.4.21l1.62-.49c.28.25.52.56.69.93l.1.4-1.97.59c-.97.29-1.98-.25-2.27-1.22l-1.54-5.13c-.29-.96.25-1.98,1.22-2.27l3.2-.96c.39-.12.82.11.93.5Z" style="fill: #d1d6fc;"/>
    </g>
  </g>
  <path d="m317.38,150.15l4.37,14.58,6.59-2h0s-6.59,2.01-6.59,2.01l-13.94,4.23-1.18.36-3.04.92h-.01l-13.76,4.18-3.04-10.12c-2.66-8.88,1.39-18.33,9.28-21.21-.14.05-.27.09-.4.14.23-.09.45-.17.69-.25.09-.03.18-.07.28-.11.68-.25,1.39-.51,2.13-.78.44-.16.9-.33,1.36-.5.04-.01.08-.03.12-.05.48-.18.97-.35,1.46-.54,7.01-2.59,15.43-5.7,21.77-8.05,4-1.48,7.18-2.66,8.66-3.21-.29.12-.58.24-.85.38-1.87.69-4.68,1.72-7.98,2.94-4.99,3.43-8.14,9.68-5.92,17.08Z" style="fill: #eb459f;"/>
  <polygon points="331.18 196.19 298.66 203.92 291.74 180.82 301.15 178.1 301.94 177.87 303.38 177.45 304.13 177.24 305.1 176.96 310.05 175.53 323.79 171.55 331.18 196.19" style="fill: #eb459f;"/>
  <path d="m355,154.93l-20.42,5.98-4.03-13.44c-1.9-6.35,1.82-12.25,7.89-13.12,5.66-.82,11.31,3.08,12.99,8.66l3.57,11.92Z" style="fill: #d11583;"/>
  <path d="m362.93,181.37s-.01.01-.02.02c-.19.16-.38.31-.59.45-.1.06-.21.12-.32.18l-18.23,9.51h0l-7.17-23.9,20.25-6.58,6.09,20.32Z" style="fill: #d11583;"/>
  <polygon points="360.11 159.99 360.1 159.99 356.84 161.05 336.59 167.63 330.41 169.64 329.95 168.11 328.34 162.74 328.34 162.73 334.58 160.91 355 154.93 358.29 153.97 358.3 153.97 360.11 159.99" style="fill: #808bff;"/>
  <polygon points="330.41 169.64 323.79 171.55 310.05 175.53 305.1 176.96 304.13 177.24 303.38 177.45 301.94 177.87 301.15 178.1 291.74 180.82 285.76 182.55 283.86 176.24 289.82 174.43 303.58 170.25 303.59 170.25 306.63 169.33 307.81 168.97 321.75 164.74 328.34 162.74 329.95 168.11 330.41 169.64" style="fill: #a9b3fc;"/>
  <rect x="285.82" y="161.5" width="37.65" height="1" transform="translate(-34.5 98.46) rotate(-17.39)" style="fill: #d43e8f;"/>
  <rect x="290.18" y="183.05" width="37.65" height="1" transform="translate(-37.57 88.37) rotate(-15.35)" style="fill: #d43e8f;"/>
  <rect x="292.74" y="190.38" width="37.65" height="1" transform="translate(-37.41 82.59) rotate(-14.25)" style="fill: #d43e8f;"/>
  <rect x="295.52" y="197.12" width="37.65" height="1" transform="translate(-38.02 80.55) rotate(-13.78)" style="fill: #d43e8f;"/>
  <rect x="284.33" y="153.86" width="37.65" height="1" transform="translate(-32.28 97.66) rotate(-17.39)" style="fill: #d43e8f;"/>
  <rect x="284.38" y="147.07" width="37.65" height="1" transform="translate(-31.11 103.45) rotate(-18.43)" style="fill: #d43e8f;"/>
  <rect x="285.82" y="141.77" width="37.65" height="1" transform="translate(-30.22 112) rotate(-19.87)" style="fill: #d43e8f;"/>
  <path d="m324.21,148.98l4.13,13.75-6.59,2-4.37-14.58c-2.22-7.4.93-13.65,5.92-17.08,3.3-1.22,6.11-2.25,7.98-2.94-6.24,3.03-9.55,10.56-7.07,18.85Z" style="fill: #a9b3fc;"/>
  <path d="m286.78,164.31l3.04,10.12-5.96,1.81-2.99-10c-1.98-6.6-.25-13.51,4.02-17.72.28-.27.57-.54.87-.79.45-.38.93-.73,1.43-1.05.33-.21.67-.41,1.02-.59.53-.28,1.08-.52,1.65-.73.34-.12.73-.27,1.17-.42.14-.06.28-.11.43-.16.66-.24,1.41-.52,2.24-.82.33-.12.67-.25,1.02-.38h.01c.3-.11.61-.23.93-.34.13-.05.26-.09.4-.14-7.89,2.88-11.94,12.33-9.28,21.21Z" style="fill: #a9b3fc;"/>
  <rect x="331.85" y="150.99" width="22.12" height="1" transform="translate(-25.26 80.88) rotate(-12.98)" style="fill: #b81273;"/>
  <rect x="337.74" y="170.53" width="22.12" height="1" transform="translate(-38.16 136.72) rotate(-21.05)" style="fill: #b81273;"/>
  <rect x="339.77" y="177.45" width="22.12" height="1" transform="translate(-41.69 151.98) rotate(-23.11)" style="fill: #b81273;"/>
  <rect x="341.36" y="184.04" width="22.12" height="1" transform="translate(-45.32 177.09) rotate(-26.57)" style="fill: #b81273;"/>
  <rect x="329.46" y="144.77" width="22.12" height="1" transform="translate(-21.05 65.72) rotate(-10.7)" style="fill: #b81273;"/>
  <rect x="329.09" y="138.38" width="22.12" height="1" transform="translate(-17.35 54.13) rotate(-8.87)" style="fill: #b81273;"/>
  <path d="m358.29,153.97l-3.29.96-3.57-11.92c-1.68-5.58-7.33-9.48-12.99-8.66-6.07.87-9.79,6.77-7.89,13.12l4.03,13.44-6.24,1.82-4.13-13.75c-2.48-8.29.83-15.82,7.07-18.85.27-.14.56-.26.85-.38.2-.08.41-.16.62-.23.09-.04.18-.07.28-.09.23-.08.45-.14.69-.2.01,0,.02-.01.03-.01.26-.08.52-.14.79-.19.24-.06.49-.1.75-.14.26-.04.52-.07.79-.1,8.2-.79,16.28,5.4,18.79,13.77l3.42,11.41Z" style="fill: #808aff;"/>
  <path d="m298.66,203.92h-.01l-1.27.3c-2.66.63-5.51-1.3-6.41-4.29l-5.21-17.38,5.98-1.73,6.92,23.1Z" style="fill: #a9b3fc;"/>
  <path d="m337.83,194.37c-1.2.45-2.44.82-3.69,1.12l-2.95.7h-.01l-7.39-24.64,6.62-1.91,7.42,24.73Z" style="fill: #a9b3fc;"/>
  <path d="m343.76,191.53l-2.44,1.28c-1.13.59-2.29,1.11-3.49,1.56l-7.42-24.73,6.18-2.01,7.17,23.9Z" style="fill: #808aff;"/>
  <path d="m362.93,181.37l-6.09-20.32,3.26-1.06,4.41,14.72c.74,2.45.06,5.17-1.58,6.66Z" style="fill: #808aff;"/>
  <path d="m330.41,170.14c-.21,0-.41-.13-.48-.35-.08-.26.06-.54.32-.63l29.84-9.67c.28,0,.5.22.5.5,0,.24-.17.44-.4.49l-29.64,9.64c-.05.02-.1.02-.15.02Z" style="fill: #a9b3fc;"/>
  <path d="m285.76,183.05c-.22,0-.42-.14-.48-.36-.08-.27.08-.54.34-.62l44.65-12.91c.26-.08.54.08.62.34.08.27-.08.54-.34.62l-44.65,12.91s-.09.02-.14.02Z" style="fill: #d1d6fc;"/>
  <g>
    <path d="m304.14,177.27l1.32,4.4c.36,1.19,1.51,1.9,2.57,1.58l2.03-.6c1.08-.32,1.66-1.56,1.3-2.76l-1.34-4.46-1.34-4.46c-.36-1.2-1.53-1.91-2.61-1.59l-2.02.61c-1.06.32-1.63,1.55-1.28,2.74l1.32,4.4.04.12Z" style="fill: #808aff;"/>
    <g>
      <path d="m309.73,182.23c-.12,2.71-.04,2.33-.27,2.33l-1.99-.09.11-2.33c.06-1.49-1.05-2.74-2.53-2.84-.08,0-.14,0-.2,0-.67,0-1.31.24-1.81.69-.55.5-.88,1.17-.9,1.91l-.1,2.32-1.46-.07c-.24-.01-.47,0-.7.06l.11-2.39c.06-1.33.63-2.55,1.63-3.43.99-.88,2.25-1.32,3.59-1.23,2.66.19,4.65,2.43,4.53,5.08Z" style="fill: #ffe75c;"/>
      <path d="m305.64,184.39l3.81.17c1.73.08,3.07,1.71,2.98,3.63l-.28,6.47c-.08,1.92-1.56,3.36-3.28,3.21l-3.68-.16" style="fill: #ffc619;"/>
      <g>
        <path d="m305.69,197.74l-5.69-.48c-1.66-.14-2.92-1.76-2.84-3.62l.28-6.27c.08-1.86,1.48-3.3,3.14-3.22l5.7.28c1.73.08,3.07,1.71,2.98,3.63l-.28,6.47c-.08,1.92-1.56,3.36-3.28,3.21Z" style="fill: #ffe75c;"/>
        <path d="m305.33,190.28c-.04.99-.61,1.8-1.38,2.14l-.09,2.04c-.02.38-.3.66-.63.63l-.6-.05c-.33-.03-.59-.35-.58-.72l.09-2.03c-.73-.44-1.2-1.32-1.16-2.29.06-1.33,1.08-2.37,2.27-2.3s2.14,1.23,2.08,2.58Z"/>
      </g>
    </g>
    <path d="m306.52,172.58c.12.39-.11.82-.5.93l-3.2.96c-.17.05-.27.23-.21.4l1.54,5.13c.05.17.23.27.4.21l1.62-.49c.28.25.52.56.69.93l.1.4-1.97.59c-.97.29-1.98-.25-2.27-1.22l-1.54-5.13c-.29-.96.25-1.98,1.22-2.27l3.2-.96c.39-.12.82.11.93.5Z" style="fill: #808aff;"/>
  </g>
  <g>
    <path d="m317.42,149.83l4.37,14.58,6.59-2h0s-6.59,2.01-6.59,2.01l-13.94,4.23-1.18.36-3.04.92h-.01l-13.76,4.18-3.04-10.12c-2.66-8.88,1.39-18.33,9.28-21.21-.14.05-.27.09-.4.14.23-.09.45-.17.69-.25.09-.03.18-.07.28-.11.68-.25,1.39-.51,2.13-.78.44-.16.9-.33,1.36-.5.04-.01.08-.03.12-.05.48-.18.97-.35,1.46-.54,7.01-2.59,15.43-5.7,21.77-8.05,4-1.48,7.18-2.66,8.66-3.21-.29.12-.58.24-.85.38-1.87.69-4.68,1.72-7.98,2.94-4.99,3.43-8.14,9.68-5.92,17.08Z" style="fill: #ff78b9;"/>
    <polygon points="331.22 195.87 298.7 203.6 291.78 180.5 301.19 177.78 301.98 177.55 303.42 177.13 304.17 176.92 305.14 176.64 310.09 175.21 323.83 171.23 331.22 195.87" style="fill: #ff78b9;"/>
    <path d="m355.04,154.61l-20.42,5.98-4.03-13.44c-1.9-6.35,1.82-12.25,7.89-13.12,5.66-.82,11.31,3.08,12.99,8.66l3.57,11.92Z" style="fill: #d11583;"/>
    <path d="m362.97,181.05s-.01.01-.02.02c-.19.16-.38.31-.59.45-.1.06-.21.12-.32.18l-18.23,9.51h0l-7.17-23.9,20.25-6.58,6.09,20.32Z" style="fill: #d11583;"/>
    <polygon points="360.15 159.67 360.14 159.67 356.88 160.73 336.63 167.31 330.45 169.32 329.99 167.79 328.38 162.42 328.38 162.41 334.62 160.59 355.04 154.61 358.33 153.65 358.34 153.65 360.15 159.67" style="fill: #808bff;"/>
    <polygon points="330.45 169.32 323.83 171.23 310.09 175.21 305.14 176.64 304.17 176.92 303.42 177.13 301.98 177.55 301.19 177.78 291.78 180.5 285.8 182.23 283.9 175.92 289.86 174.11 303.62 169.93 303.63 169.93 306.67 169.01 307.85 168.65 321.79 164.42 328.38 162.42 329.99 167.79 330.45 169.32" style="fill: #a9b3fc;"/>
    <rect x="285.85" y="161.18" width="37.65" height="1" transform="translate(-34.4 98.46) rotate(-17.39)" style="fill: #f749a7;"/>
    <rect x="290.21" y="182.73" width="37.65" height="1" transform="translate(-37.44 88.2) rotate(-15.33)" style="fill: #f749a7;"/>
    <rect x="292.77" y="190.06" width="37.65" height="1" transform="translate(-37.43 82.92) rotate(-14.31)" style="fill: #f749a7;"/>
    <rect x="295.55" y="196.8" width="37.65" height="1" transform="translate(-37.94 80.55) rotate(-13.78)" style="fill: #f749a7;"/>
    <rect x="284.37" y="153.54" width="37.65" height="1" transform="translate(-32.18 97.66) rotate(-17.39)" style="fill: #f749a7;"/>
    <rect x="284.42" y="146.75" width="37.65" height="1" transform="translate(-31 103.45) rotate(-18.43)" style="fill: #f749a7;"/>
    <rect x="285.85" y="141.45" width="37.65" height="1" transform="translate(-30.11 112) rotate(-19.87)" style="fill: #f749a7;"/>
    <path d="m324.25,148.66l4.13,13.75-6.59,2-4.37-14.58c-2.22-7.4.93-13.65,5.92-17.08,3.3-1.22,6.11-2.25,7.98-2.94-6.24,3.03-9.55,10.56-7.07,18.85Z" style="fill: #a9b3fc;"/>
    <path d="m286.82,163.99l3.04,10.12-5.96,1.81-2.99-10c-1.98-6.6-.25-13.51,4.02-17.72.28-.27.57-.54.87-.79.45-.38.93-.73,1.43-1.05.33-.21.67-.41,1.02-.59.53-.28,1.08-.52,1.65-.73.34-.12.73-.27,1.17-.42.14-.06.28-.11.43-.16.66-.24,1.41-.52,2.24-.82.33-.12.67-.25,1.02-.38h.01c.3-.11.61-.23.93-.34.13-.05.26-.09.4-.14-7.89,2.88-11.94,12.33-9.28,21.21Z" style="fill: #a9b3fc;"/>
    <rect x="331.89" y="150.67" width="22.12" height="1" transform="translate(-25.19 80.88) rotate(-12.98)" style="fill: #b81273;"/>
    <rect x="337.77" y="170.21" width="22.12" height="1" transform="translate(-38.04 136.71) rotate(-21.05)" style="fill: #b81273;"/>
    <rect x="339.81" y="177.13" width="22.12" height="1" transform="translate(-41.56 151.97) rotate(-23.11)" style="fill: #b81273;"/>
    <rect x="341.4" y="183.72" width="22.12" height="1" transform="translate(-45.18 177.07) rotate(-26.57)" style="fill: #b81273;"/>
    <rect x="329.49" y="144.45" width="22.12" height="1" transform="translate(-20.99 65.72) rotate(-10.7)" style="fill: #b81273;"/>
    <rect x="329.13" y="138.06" width="22.12" height="1" transform="translate(-17.3 54.13) rotate(-8.87)" style="fill: #b81273;"/>
    <path d="m358.33,153.65l-3.29.96-3.57-11.92c-1.68-5.58-7.33-9.48-12.99-8.66-6.07.87-9.79,6.77-7.89,13.12l4.03,13.44-6.24,1.82-4.13-13.75c-2.48-8.29.83-15.82,7.07-18.85.27-.14.56-.26.85-.38.2-.08.41-.16.62-.23.09-.04.18-.07.28-.09.23-.08.45-.14.69-.2.01,0,.02-.01.03-.01.26-.08.52-.14.79-.19.24-.06.49-.1.75-.14.26-.04.52-.07.79-.1,8.2-.79,16.28,5.4,18.79,13.77l3.42,11.41Z" style="fill: #808aff;"/>
    <path d="m298.7,203.6h-.01l-1.27.3c-2.66.63-5.51-1.3-6.41-4.29l-5.21-17.38,5.98-1.73,6.92,23.1Z" style="fill: #a9b3fc;"/>
    <path d="m337.87,194.05c-1.2.45-2.44.82-3.69,1.12l-2.95.7h-.01l-7.39-24.64,6.62-1.91,7.42,24.73Z" style="fill: #a9b3fc;"/>
    <path d="m343.8,191.21l-2.44,1.28c-1.13.59-2.29,1.11-3.49,1.56l-7.42-24.73,6.18-2.01,7.17,23.9Z" style="fill: #808aff;"/>
    <path d="m362.97,181.05l-6.09-20.32,3.26-1.06,4.41,14.72c.74,2.45.06,5.17-1.58,6.66Z" style="fill: #808aff;"/>
    <path d="m330.45,169.82c-.21,0-.41-.13-.48-.35-.08-.26.06-.54.32-.63l29.84-9.67c.28,0,.51.22.51.5,0,.24-.17.44-.4.49l-29.64,9.64c-.05.02-.1.02-.15.02Z" style="fill: #a9b3fc;"/>
    <path d="m285.8,182.73c-.22,0-.42-.14-.48-.36-.08-.27.08-.54.34-.62l44.65-12.91c.26-.08.54.08.62.34.08.27-.08.54-.34.62l-44.65,12.91s-.09.02-.14.02Z" style="fill: #d1d6fc;"/>
    <g>
      <path d="m304.18,176.95l1.32,4.4c.36,1.19,1.51,1.9,2.57,1.58l2.03-.6c1.08-.32,1.66-1.56,1.3-2.76l-1.34-4.46-1.34-4.46c-.36-1.2-1.53-1.91-2.61-1.59l-2.02.61c-1.06.32-1.63,1.55-1.28,2.74l1.32,4.4.04.12Z" style="fill: #808aff;"/>
      <g>
        <path d="m309.76,181.91c-.12,2.71-.04,2.33-.27,2.33l-1.99-.09.11-2.33c.06-1.49-1.05-2.74-2.53-2.84-.08,0-.14,0-.2,0-.67,0-1.31.24-1.81.69-.55.5-.88,1.17-.9,1.91l-.1,2.32-1.46-.07c-.24-.01-.47,0-.7.06l.11-2.39c.06-1.33.63-2.55,1.63-3.43.99-.88,2.25-1.32,3.59-1.23,2.66.19,4.65,2.43,4.53,5.08Z" style="fill: #ffe75c;"/>
        <path d="m305.68,184.07l3.81.17c1.73.08,3.07,1.71,2.98,3.63l-.28,6.47c-.08,1.92-1.56,3.36-3.28,3.21l-3.68-.16" style="fill: #ffc619;"/>
        <g>
          <path d="m305.72,197.41l-5.69-.48c-1.66-.14-2.92-1.76-2.84-3.62l.28-6.27c.08-1.86,1.48-3.3,3.14-3.22l5.7.28c1.73.08,3.07,1.71,2.98,3.63l-.28,6.47c-.08,1.92-1.56,3.36-3.28,3.21Z" style="fill: #ffe75c;"/>
          <path d="m305.37,189.96c-.04.99-.61,1.8-1.38,2.14l-.09,2.04c-.02.38-.3.66-.63.63l-.6-.05c-.33-.03-.59-.35-.58-.72l.09-2.03c-.73-.44-1.2-1.32-1.16-2.29.06-1.33,1.08-2.37,2.27-2.3s2.14,1.23,2.08,2.58Z"/>
        </g>
      </g>
      <path d="m306.56,172.26c.12.39-.11.82-.5.93l-3.2.96c-.17.05-.27.23-.21.4l1.54,5.13c.05.17.23.27.4.21l1.62-.49c.28.25.52.56.69.93l.1.4-1.97.59c-.97.29-1.98-.25-2.27-1.22l-1.54-5.13c-.29-.96.25-1.98,1.22-2.27l3.2-.96c.39-.12.82.11.93.5Z" style="fill: #808aff;"/>
    </g>
  </g>
  <g>
    <path d="m481.61,248.05l-66.3,1.72c-6.3.16-11.88-5.75-12.65-13.21l-3.27-31.71c-.77-7.46,3.49-14.39,9.69-15.51l65.26-11.83c8.75-1.59,16.87,4.6,17.82,13.88l4.06,39.45c.96,9.28-5.73,16.99-14.62,17.22Z" style="fill: #a9b3fc;"/>
    <path d="m479.05,248.05l-66.3,1.72c-6.3.16-11.88-5.75-12.65-13.21l-3.27-31.71c-.77-7.46,3.49-14.39,9.69-15.51l65.26-11.83c8.75-1.59,16.87,4.6,17.82,13.88l4.06,39.45c.96,9.28-5.73,16.99-14.62,17.22Z" style="fill: #fff;"/>
    <path d="m432.14,234.88l-20.21,1.22c-2.31.14-4.4-1.99-4.68-4.75l-2.36-22.86c-.28-2.77,1.32-5.28,3.62-5.61l20.04-2.92c2.56-.37,4.91,1.73,5.22,4.7l2.53,24.56c.31,2.97-1.57,5.51-4.15,5.66Z" style="fill: #57f287;"/>
    <path d="m425.89,218.71c1.22-2.01,1.73-4.65,1.14-7.37-.87-4.03-4.07-6.93-7.56-6.91-4.59.03-7.93,4.68-7.39,9.85.23,2.22,1.13,4.17,2.43,5.6.51.57.48,1.55-.12,1.91-2.25,1.38-3.62,4.29-3.29,7.52l.69,6.74,20.5-1.25-.73-7.08c-.35-3.39-2.45-6.11-5.11-7.07-.71-.26-.96-1.25-.55-1.93Z" style="fill: #242145;"/>
    <path d="m438.93,203.5c-.74,0-1.38-.54-1.48-1.3-.11-.82.46-1.58,1.28-1.69l8.88-1.22c.82-.1,1.58.46,1.69,1.28.11.82-.46,1.58-1.28,1.69l-8.88,1.22c-.07,0-.14.01-.21.01Z" style="fill: #a9b3fc;"/>
    <path d="m453.43,201.51c-.74,0-1.38-.54-1.48-1.3-.11-.82.46-1.58,1.28-1.69l28.24-3.88c.81-.11,1.58.46,1.69,1.28.11.82-.46,1.58-1.28,1.69l-28.24,3.88c-.07,0-.14.01-.21.01Z" style="fill: #a9b3fc;"/>
    <path d="m439.75,211.45c-.75,0-1.4-.56-1.49-1.32-.1-.82.49-1.57,1.31-1.67l8.9-1.05c.82-.11,1.57.49,1.67,1.31.1.82-.49,1.57-1.31,1.67l-8.9,1.05c-.06,0-.12.01-.18.01Z" style="fill: #a9b3fc;"/>
    <path d="m410.94,243.71c-.8,0-1.46-.63-1.5-1.43-.04-.83.6-1.53,1.43-1.57l23.65-1.07c.82-.04,1.53.6,1.57,1.43.04.83-.6,1.53-1.43,1.57l-23.65,1.07s-.05,0-.07,0Z" style="fill: #a9b3fc;"/>
    <path d="m454.28,209.73c-.75,0-1.4-.56-1.49-1.32-.1-.82.49-1.57,1.31-1.67l18.83-2.23c.83-.11,1.57.49,1.67,1.31.1.82-.49,1.57-1.31,1.67l-18.83,2.23c-.06,0-.12.01-.18.01Z" style="fill: #a9b3fc;"/>
    <path d="m440.57,219.4c-.76,0-1.41-.58-1.49-1.35-.08-.82.52-1.56,1.34-1.64l8.91-.89c.83-.09,1.56.52,1.64,1.34.08.82-.52,1.56-1.34,1.64l-8.91.89c-.05,0-.1,0-.15,0Z" style="fill: #a9b3fc;"/>
    <path d="m455.13,217.96c-.76,0-1.41-.58-1.49-1.35-.08-.82.52-1.56,1.34-1.64l28.35-2.82c.83-.1,1.56.52,1.64,1.34.08.82-.52,1.56-1.34,1.64l-28.35,2.82c-.05,0-.1,0-.15,0Z" style="fill: #a9b3fc;"/>
    <path d="m477.83,231.22c-.53-5.16-4.98-9.02-9.85-8.61-4.76.4-8.13,4.74-7.62,9.71s4.73,8.84,9.51,8.63c4.88-.21,8.49-4.56,7.96-9.73Z" style="fill: #808bff;"/>
    <path d="m467.81,190.75l-56.25,8.64c-.84.13-1.61-.59-1.72-1.6l-.28-2.74c-.1-1.01.49-1.95,1.34-2.1l56.16-9.55c1.11-.19,2.1.61,2.22,1.77l.32,3.15c.12,1.17-.68,2.25-1.79,2.42Z" style="fill: #808bff;"/>
  </g>
  <path d="m472.64,353.52H82.69V10.44h389.95v343.08Zm-387.95-2h385.95V12.44H84.69v339.08Z" style="fill: #66bcff;"/>
  <path d="m115.63,212.3h-56.25c-15.93,0-28.51,13.51-27.38,29.4l3.4,47.87c1.02,14.37,12.98,25.51,27.39,25.51h49.43c14.41,0,26.36-11.14,27.39-25.51l3.4-47.87c1.13-15.89-11.45-29.4-27.38-29.4Zm-15.9,47.98c-1.51,1.14-2.34,2.97-2.1,4.85l2.43,18.37c.34,2.58-1.67,4.87-4.28,4.87h-18.06c-2.6,0-4.62-2.29-4.27-4.87l2.42-18.37c.25-1.88-.59-3.71-2.1-4.85-3.93-2.98-6.41-7.29-6.41-12.1,0-9,8.68-16.3,19.39-16.3s19.39,7.3,19.39,16.3c0,4.81-2.48,9.12-6.41,12.1Z" style="fill: #3f99f2;"/>
  <path d="m97.63,265.13l2.43,18.37c.34,2.58-1.67,4.87-4.28,4.87h-18.06c-2.6,0-4.62-2.29-4.27-4.87l2.42-18.37c.25-1.88-.59-3.71-2.1-4.85-3.93-2.98-6.41-7.29-6.41-12.1,0-9,8.68-16.3,19.39-16.3s19.39,7.3,19.39,16.3c0,4.81-2.48,9.12-6.41,12.1-1.51,1.14-2.34,2.97-2.1,4.85Z"/>
  <path d="m108.24,211.91h-56.25c-15.93,0-28.51,13.51-27.38,29.4l3.4,47.87c1.02,14.37,12.98,25.51,27.39,25.51h49.43c14.41,0,26.36-11.14,27.39-25.51l3.4-47.87c1.13-15.89-11.45-29.4-27.38-29.4Zm-15.9,47.98c-1.51,1.14-2.34,2.97-2.1,4.85l2.43,18.37c.34,2.58-1.67,4.87-4.28,4.87h-18.06c-2.6,0-4.62-2.29-4.27-4.87l2.42-18.37c.25-1.88-.59-3.71-2.1-4.85-3.93-2.98-6.41-7.29-6.41-12.1,0-9,8.68-16.3,19.39-16.3s19.39,7.3,19.39,16.3c0,4.81-2.48,9.12-6.41,12.1Z" style="fill: #8cd9ff;"/>
  <path d="m61.28,173.26c-4.16-2.68-6.97-7.03-7.71-11.93l-1.25-8.34c-.06-.41-.41-.71-.83-.71h0c-.42,0-.77.3-.83.71l-1.25,8.34c-.73,4.9-3.54,9.25-7.71,11.93l-1.08.7c-.24.15-.38.42-.38.71v.05c0,.29.14.55.38.71l1.08.7c4.16,2.68,6.97,7.03,7.71,11.93l1.25,8.34c.06.41.41.71.83.71h0c.42,0,.77-.3.83-.71l1.25-8.34c.73-4.9,3.54-9.25,7.71-11.93l1.08-.7c.24-.15.38-.42.38-.71v-.05c0-.29-.14-.55-.38-.71l-1.08-.7Z" style="fill: #ffe75c;"/>
  <path d="m42.69,139.54c-2.13-1.37-3.57-3.6-3.95-6.11l-.64-4.27c-.03-.21-.21-.37-.42-.37h0c-.21,0-.39.16-.42.37l-.64,4.27c-.38,2.51-1.81,4.73-3.94,6.11l-.55.36c-.12.08-.2.22-.2.36v.03c0,.15.07.28.2.36l.55.36c2.13,1.37,3.57,3.6,3.94,6.11l.64,4.27c.03.21.21.37.42.37h0c.21,0,.39-.16.42-.37l.64-4.27c.38-2.51,1.81-4.73,3.95-6.11l.55-.36c.12-.08.2-.22.2-.36v-.03c0-.15-.07-.28-.2-.36l-.55-.36Z" style="fill: #91ffad;"/>
  <path d="m492.88,39.78c-2.13-1.37-3.57-3.6-3.95-6.11l-.64-4.27c-.03-.21-.21-.37-.42-.37h0c-.21,0-.39.16-.42.37l-.64,4.27c-.38,2.51-1.81,4.73-3.94,6.11l-.55.36c-.12.08-.2.22-.2.36v.03c0,.15.07.28.2.36l.55.36c2.13,1.37,3.57,3.6,3.94,6.11l.64,4.27c.03.21.21.37.42.37h0c.21,0,.39-.16.42-.37l.64-4.27c.38-2.51,1.81-4.73,3.95-6.11l.55-.36c.12-.08.2-.22.2-.36v-.03c0-.15-.07-.28-.2-.36l-.55-.36Z" style="fill: #fff2a6;"/>
  <path d="m500.57,29.89c-.85-.55-1.43-1.44-1.58-2.44l-.26-1.71c-.01-.08-.08-.15-.17-.15h0c-.09,0-.16.06-.17.15l-.26,1.71c-.15,1-.73,1.89-1.58,2.44l-.22.14s-.08.09-.08.14h0c0,.07.03.12.08.15l.22.14c.85.55,1.43,1.44,1.58,2.44l.26,1.71c.01.08.08.15.17.15h0c.09,0,.16-.06.17-.15l.26-1.71c.15-1,.73-1.89,1.58-2.44l.22-.14s.08-.09.08-.14h0c0-.07-.03-.12-.08-.15l-.22-.14Z" style="fill: #ff78b9;"/>
  <path d="m494.94,19.19c-.85-.55-1.43-1.44-1.58-2.44l-.26-1.71c-.01-.08-.08-.15-.17-.15h0c-.09,0-.16.06-.17.15l-.26,1.71c-.15,1-.73,1.89-1.58,2.44l-.22.14s-.08.09-.08.14h0c0,.07.03.12.08.15l.22.14c.85.55,1.43,1.44,1.58,2.44l.26,1.71c.01.08.08.15.17.15h0c.09,0,.16-.06.17-.15l.26-1.71c.15-1,.73-1.89,1.58-2.44l.22-.14s.08-.09.08-.14h0c0-.07-.03-.12-.08-.15l-.22-.14Z" style="fill: #fff2a6;"/>
  <path d="m23.79,316.76c-2.13-1.37-3.57-3.6-3.95-6.11l-.64-4.27c-.03-.21-.21-.37-.42-.37h0c-.21,0-.39.16-.42.37l-.64,4.27c-.38,2.51-1.81,4.73-3.94,6.11l-.55.36c-.12.08-.2.22-.2.36v.03c0,.15.07.28.2.36l.55.36c2.13,1.37,3.57,3.6,3.94,6.11l.64,4.27c.03.21.21.37.42.37h0c.21,0,.39-.16.42-.37l.64-4.27c.38-2.51,1.81-4.73,3.95-6.11l.55-.36c.12-.08.2-.22.2-.36v-.03c0-.15-.07-.28-.2-.36l-.55-.36Z" style="fill: #ff78b9;"/>
  <path d="m495.82,334.95c-1.23-.79-2.06-2.07-2.27-3.52l-.37-2.46c-.02-.12-.12-.21-.24-.21h0c-.12,0-.23.09-.24.21l-.37,2.46c-.22,1.44-1.04,2.73-2.27,3.52l-.32.21c-.07.05-.11.12-.11.21v.02c0,.08.04.16.11.21l.32.21c1.23.79,2.06,2.07,2.27,3.52l.37,2.46c.02.12.12.21.24.21h0c.12,0,.23-.09.24-.21l.37-2.46c.22-1.44,1.04-2.73,2.27-3.52l.32-.21c.07-.05.11-.12.11-.21v-.02c0-.08-.04-.16-.11-.21l-.32-.21Z" style="fill: #ffe75c;"/>
  <path d="m487.51,318.82c-1.53-.98-2.56-2.58-2.83-4.38l-.46-3.06c-.02-.15-.15-.26-.3-.26h0c-.15,0-.28.11-.3.26l-.46,3.06c-.27,1.8-1.3,3.39-2.83,4.38l-.4.26c-.09.06-.14.15-.14.26v.02c0,.1.05.2.14.26l.4.26c1.53.98,2.56,2.58,2.83,4.38l.46,3.06c.02.15.15.26.3.26h0c.15,0,.28-.11.3-.26l.46-3.06c.27-1.8,1.3-3.39,2.83-4.38l.4-.26c.09-.06.14-.15.14-.26v-.02c0-.1-.05-.2-.14-.26l-.4-.26Z" style="fill: #57f287;"/>
  <path d="m501.66,341.77c-.61-.39-1.02-1.03-1.13-1.75l-.18-1.22c0-.06-.06-.1-.12-.1h0c-.06,0-.11.04-.12.1l-.18,1.22c-.11.72-.52,1.36-1.13,1.75l-.16.1s-.06.06-.06.1h0s.02.09.06.11l.16.1c.61.39,1.02,1.03,1.13,1.75l.18,1.22c0,.06.06.1.12.1h0c.06,0,.11-.04.12-.1l.18-1.22c.11-.72.52-1.36,1.13-1.75l.16-.1s.06-.06.06-.1h0s-.02-.09-.06-.11l-.16-.1Z" style="fill: #ff78b9;"/>
</svg>