<?xml version="1.0" encoding="UTF-8"?>
<svg id="Safety_Tile" data-name="Safety Tile" xmlns="http://www.w3.org/2000/svg" xmlns:xlink="http://www.w3.org/1999/xlink" viewBox="0 0 446 290">
  <defs>
    <linearGradient id="linear-gradient" x1="219.84" y1="194.26" x2="163.3" y2="135.82" gradientUnits="userSpaceOnUse">
      <stop offset="0" stop-color="#eff1fc"/>
      <stop offset="1" stop-color="#fff"/>
    </linearGradient>
  </defs>
  <rect x="-26.09" y="-16.24" width="489.24" height="320.02" style="fill: #3f99f2;"/>
  <g>
    <path d="m91.59,182.52c-3.12-2.01-5.23-5.27-5.78-8.95l-.94-6.25c-.05-.31-.31-.54-.62-.54h0c-.31,0-.58.23-.62.54l-.94,6.25c-.55,3.67-2.66,6.93-5.78,8.95l-.81.52c-.18.12-.29.31-.29.53v.04c0,.21.11.41.29.53l.81.52c3.12,2.01,5.23,5.27,5.78,8.95l.94,6.25c.05.31.31.54.62.54h0c.31,0,.58-.23.62-.54l.94-6.25c.55-3.67,2.66-6.93,5.78-8.95l.81-.52c.18-.12.29-.31.29-.53v-.04c0-.21-.11-.41-.29-.53l-.81-.52Z" style="fill: #ffe75c;"/>
    <path d="m76.45,201.34c-1.6-1.03-2.68-2.7-2.96-4.58l-.48-3.2c-.02-.16-.16-.27-.32-.27h0c-.16,0-.29.12-.32.27l-.48,3.2c-.28,1.88-1.36,3.55-2.96,4.58l-.42.27c-.09.06-.15.16-.15.27v.02c0,.11.06.21.15.27l.42.27c1.6,1.03,2.68,2.7,2.96,4.58l.48,3.2c.02.16.16.27.32.27h0c.16,0,.29-.12.32-.27l.48-3.2c.28-1.88,1.36-3.55,2.96-4.58l.42-.27c.09-.06.15-.16.15-.27v-.02c0-.11-.06-.21-.15-.27l-.42-.27Z" style="fill: #ffc619;"/>
    <path d="m325.24,68.04c-1.6-1.03-2.68-2.7-2.96-4.58l-.48-3.2c-.02-.16-.16-.27-.32-.27h0c-.16,0-.29.12-.32.27l-.48,3.2c-.28,1.88-1.36,3.55-2.96,4.58l-.42.27c-.09.06-.15.16-.15.27v.02c0,.11.06.21.15.27l.42.27c1.6,1.03,2.68,2.7,2.96,4.58l.48,3.2c.02.16.16.27.32.27h0c.16,0,.29-.12.32-.27l.48-3.2c.28-1.88,1.36-3.55,2.96-4.58l.42-.27c.09-.06.15-.16.15-.27v-.02c0-.11-.06-.21-.15-.27l-.42-.27Z" style="fill: #57f287;"/>
    <path d="m367.95,204.33c-2-1.29-3.35-3.37-3.7-5.73l-.6-4c-.03-.2-.2-.34-.4-.34h0c-.2,0-.37.15-.4.34l-.6,4c-.35,2.35-1.7,4.44-3.7,5.73l-.52.33c-.12.07-.18.2-.18.34v.02c0,.14.07.26.18.34l.52.33c2,1.29,3.35,3.37,3.7,5.73l.6,4c.03.2.2.34.4.34h0c.2,0,.37-.15.4-.34l.6-4c.35-2.35,1.7-4.44,3.7-5.73l.52-.33c.12-.07.18-.2.18-.34v-.02c0-.14-.07-.26-.18-.34l-.52-.33Z" style="fill: #ffe75c;"/>
    <path d="m194.31,29.98c-1.6-1.03-2.68-2.7-2.96-4.58l-.48-3.2c-.02-.16-.16-.27-.32-.27h0c-.16,0-.29.12-.32.27l-.48,3.2c-.28,1.88-1.36,3.55-2.96,4.58l-.42.27c-.09.06-.15.16-.15.27v.02c0,.11.06.21.15.27l.42.27c1.6,1.03,2.68,2.7,2.96,4.58l.48,3.2c.02.16.16.27.32.27h0c.16,0,.29-.12.32-.27l.48-3.2c.28-1.88,1.36-3.55,2.96-4.58l.42-.27c.09-.06.15-.16.15-.27v-.02c0-.11-.06-.21-.15-.27l-.42-.27Z" style="fill: #ffb0d5;"/>
    <path d="m381.8,211.77c-1.6-1.03-2.68-2.7-2.96-4.58l-.48-3.2c-.02-.16-.16-.27-.32-.27h0c-.16,0-.29.12-.32.27l-.48,3.2c-.28,1.88-1.36,3.55-2.96,4.58l-.42.27c-.09.06-.15.16-.15.27v.02c0,.11.06.21.15.27l.42.27c1.6,1.03,2.68,2.7,2.96,4.58l.48,3.2c.02.16.16.27.32.27h0c.16,0,.29-.12.32-.27l.48-3.2c.28-1.88,1.36-3.55,2.96-4.58l.42-.27c.09-.06.15-.16.15-.27v-.02c0-.11-.06-.21-.15-.27l-.42-.27Z" style="fill: #57f287;"/>
    <path d="m107.59,71.27c-1.12-.72-1.87-1.89-2.07-3.21l-.34-2.24c-.02-.11-.11-.19-.22-.19h0c-.11,0-.21.08-.22.19l-.34,2.24c-.2,1.32-.95,2.49-2.07,3.21l-.29.19c-.06.04-.1.11-.1.19h0c0,.09.04.16.1.2l.29.19c1.12.72,1.87,1.89,2.07,3.21l.34,2.24c.02.11.11.19.22.19h0c.11,0,.21-.08.22-.19l.34-2.24c.2-1.32.95-2.49,2.07-3.21l.29-.19c.06-.04.1-.11.1-.19h0c0-.09-.04-.16-.1-.2l-.29-.19Z" style="fill: #57f287;"/>
    <path d="m330.66,57.64c-.8-.52-1.34-1.35-1.48-2.29l-.24-1.6c-.01-.08-.08-.14-.16-.14h0c-.08,0-.15.06-.16.14l-.24,1.6c-.14.94-.68,1.78-1.48,2.29l-.21.13s-.07.08-.07.14h0c0,.06.03.12.07.15l.21.13c.8.52,1.34,1.35,1.48,2.29l.24,1.6c.01.08.08.14.16.14h0c.08,0,.15-.06.16-.14l.24-1.6c.14-.94.68-1.78,1.48-2.29l.21-.13s.07-.08.07-.14h0c0-.06-.03-.12-.07-.15l-.21-.13Z" style="fill: #ffb0d5;"/>
    <path d="m375.72,192.97c-.8-.52-1.34-1.35-1.48-2.29l-.24-1.6c-.01-.08-.08-.14-.16-.14h0c-.08,0-.15.06-.16.14l-.24,1.6c-.14.94-.68,1.78-1.48,2.29l-.21.13s-.07.08-.07.14h0c0,.06.03.12.07.15l.21.13c.8.52,1.34,1.35,1.48,2.29l.24,1.6c.01.08.08.14.16.14h0c.08,0,.15-.06.16-.14l.24-1.6c.14-.94.68-1.78,1.48-2.29l.21-.13s.07-.08.07-.14h0c0-.06-.03-.12-.07-.15l-.21-.13Z" style="fill: #ff78b9;"/>
    <path d="m186.31,21.7c-.8-.52-1.34-1.35-1.48-2.29l-.24-1.6c-.01-.08-.08-.14-.16-.14h0c-.08,0-.15.06-.16.14l-.24,1.6c-.14.94-.68,1.78-1.48,2.29l-.21.13s-.07.08-.07.14h0c0,.06.03.12.07.15l.21.13c.8.52,1.34,1.35,1.48,2.29l.24,1.6c.01.08.08.14.16.14h0c.08,0,.15-.06.16-.14l.24-1.6c.14-.94.68-1.78,1.48-2.29l.21-.13s.07-.08.07-.14h0c0-.06-.03-.12-.07-.15l-.21-.13Z" style="fill: #57f287;"/>
    <path d="m327.26,261.6c-11.2.9-54.62,3.26-79.28,4.58,0,.07,0,.14,0,.22,0,1.64-.67,3.12-1.74,4.19-1.07,1.08-2.56,1.74-4.19,1.74h-32.75c-3.28,0-5.93-2.66-5.93-5.93,0-.07,0-.14,0-.22-24.65-1.32-68.08-3.68-79.27-4.58-15.89-1.27-18.92-4.28-17.57-18.42,1.83-19.42,11.15-80.12,11.57-84.49.43-4.38,1.41-7.9,9.04-7.63,5.21.2,68.29,47.12,107.72,76.82,22.62-20.98,81.34-97.35,87.52-97.58,7.63-.28,8.62,3.25,9.04,7.63.43,4.37,11.57,85.83,13.41,105.25,1.33,14.14-1.7,17.15-17.58,18.42Z" style="fill: #3442d9;"/>
    <path d="m239.38,260.75h-28.37s3.81-6.77,14.19-6.77,14.18,6.77,14.18,6.77Z" style="fill: #242145;"/>
    <path d="m225.19,253.98l1.06-107.79c16.66-37.34,71.36-12.49,88.09-30.49l8.05,105.04c-29.65,26.47-71.15.42-97.2,33.25Z" style="fill: #fff;"/>
    <path d="m338.06,245.3l-12.14-112.07s-5.79-5.88-11.58-17.53c-5.79-11.65,0,0,0,0l-9.77,65.72,12.31,60.99,21.18,2.89" style="fill: #dee0ff;"/>
    <path d="m132.51,126.35s-5.79,9.04-11.72,10.52l-8.47,108.42,22.24-11.01-2.05-107.93" style="fill: #b0b4ff;"/>
    <path d="m122.34,232.24s-2.21,6.58-10.02,13.06l98.68,15.46s3.81-6.78,14.19-6.78,0,0,0,0l-13.98-24.99-83.22-8.26" style="fill: #b0b4ff;"/>
    <path d="m224.92,254.05l1.33-107.86c-41.22-30.49-75.39,1.34-93.74-19.84l-10.16,105.88c31.91,20.61,78.52-11.51,102.58,21.82Z" style="fill: #d1d4ff;"/>
    <path d="m224.92,254.05l1.33-107.86c0-37.06-67.36-13.13-85.39-47.65l-2.92,110.96c28.64,31.98,64.38,4.66,86.98,44.54Z" style="fill: #e3e5ff;"/>
    <path d="m322.39,220.73s2.54,15.88,15.67,24.56l-98.68,15.46s-3.81-6.78-14.19-6.78,0,0,0,0l13.98-24.99,83.22-8.26" style="fill: #b0b4ff;"/>
    <path d="m225.19,254.05l1.06-107.86c0-37.06-53.79-29.01-68.19-63.53l-2.33,110.96c22.87,31.98,55.69,11.84,69.46,60.43Z" style="fill: url(#linear-gradient);"/>
    <path d="m225.19,253.98l1.06-107.79c16.66-37.34,71.36-12.49,88.09-30.49l8.05,105.04c-29.65,26.47-71.15.42-97.2,33.25Z" style="fill: #fff;"/>
    <path d="m312.76,216.51c.12,1.86-.95,3.59-2.65,4.36-11.41,5.14-23.84,5.56-36.1,6.17-.45.02-.9.05-1.35.07-2.55.13-4.69-1.89-4.69-4.44v-31.1c0-2.37,1.85-4.32,4.21-4.45,10.25-.55,22.09-.74,32.86-4.3,2.79-.92,5.69,1.01,5.88,3.94l1.85,29.77Z" style="fill: #57f287;"/>
    <path d="m270,162.05c-.75,0-1.39-.56-1.49-1.31-.1-.82.48-1.57,1.3-1.67l1.31-.16c9.08-1.13,17.65-2.2,24.65-4.76.78-.29,1.64.11,1.92.89.29.78-.11,1.64-.89,1.92-7.33,2.69-16.06,3.77-25.32,4.93l-1.31.16c-.06,0-.12.01-.19.01Z" style="fill: #a9b3fc;"/>
    <path d="m270,154.4c-.75,0-1.39-.56-1.49-1.31-.1-.82.48-1.57,1.3-1.67l1.31-.16c12.47-1.55,24.24-3.02,31.82-8.42.67-.48,1.61-.33,2.09.35.48.67.32,1.61-.35,2.09-8.2,5.84-20.34,7.35-33.19,8.95l-1.31.16c-.06,0-.12.01-.19.01Z" style="fill: #a9b3fc;"/>
    <path d="m270,146.76c-.75,0-1.39-.56-1.49-1.31-.1-.82.48-1.57,1.3-1.67l1.31-.16c9-1.12,17.5-2.18,24.47-4.7.78-.28,1.64.12,1.92.9.28.78-.12,1.64-.9,1.92-7.29,2.64-15.95,3.71-25.12,4.85l-1.31.16c-.06,0-.12.01-.19.01Z" style="fill: #a9b3fc;"/>
    <path d="m270,139.12c-.75,0-1.39-.56-1.49-1.31-.1-.82.48-1.57,1.3-1.67l1.31-.16c12.46-1.55,24.24-3.02,31.82-8.42.67-.48,1.61-.32,2.09.35.48.67.32,1.61-.35,2.09-8.2,5.84-20.33,7.35-33.19,8.95l-1.31.16c-.06,0-.12.01-.19.01Z" style="fill: #a9b3fc;"/>
    <g>
      <rect x="174.18" y="87.23" width="29.12" height="29.12" rx="5.39" ry="5.39" transform="translate(15.35 -24.39) rotate(7.7)" style="fill: #242145;"/>
      <rect x="177.18" y="84.98" width="29.12" height="29.12" rx="5.39" ry="5.39" transform="translate(15.08 -24.81) rotate(7.7)" style="fill: #57f287;"/>
      <g>
        <path d="m190.85,111.02c-.18,0-.36-.05-.53-.15-1.52-.94-2.73-2.17-3.59-3.65-.28-.48-.12-1.09.36-1.37.48-.28,1.09-.12,1.37.36.7,1.19,1.68,2.19,2.92,2.96.47.29.61.91.32,1.38-.19.3-.52.47-.85.47Z" style="fill: #242145;"/>
        <path d="m186.27,103.41c-.44,0-.85-.3-.97-.75-.76-2.91.28-6.25,2.32-7.45.48-.28,1.09-.12,1.37.36.28.48.12,1.09-.36,1.37-1.13.67-1.98,2.97-1.39,5.21.14.53-.18,1.08-.71,1.22-.08.02-.17.03-.25.03Z" style="fill: #242145;"/>
        <path d="m185.76,109.94c-.31,0-.61-.14-.81-.41-1.35-1.83-2.28-3.91-2.76-6.17-.11-.54.23-1.07.77-1.19.54-.12,1.07.23,1.19.77.42,1.99,1.24,3.81,2.41,5.41.33.44.23,1.07-.21,1.4-.18.13-.39.19-.59.19Z" style="fill: #242145;"/>
        <path d="m182.84,100.53s-.02,0-.03,0c-.55-.01-.99-.47-.97-1.02.1-3.88,1.61-7.44,4.04-9.51,1.89-1.61,4.23-2.28,6.76-1.94,4.37.59,7.21,3.47,8.21,8.33.11.54-.24,1.07-.78,1.18-.54.11-1.07-.24-1.18-.78-.84-4.06-2.97-6.27-6.52-6.75-1.99-.27-3.73.23-5.19,1.48-2,1.71-3.25,4.71-3.33,8.04-.01.54-.46.97-1,.97Z" style="fill: #242145;"/>
        <path d="m199.94,106.37s-.09,0-.13,0c-.55-.07-.93-.58-.86-1.12.31-2.28.39-4.39.24-6.26-.04-.55.37-1.03.92-1.08.56-.04,1.03.37,1.08.92.16,2.01.08,4.26-.25,6.68-.07.5-.5.87-.99.87Z" style="fill: #242145;"/>
        <path d="m196.8,104.83c-.08,0-.16,0-.24-.03-.54-.13-.87-.67-.74-1.21,1.17-4.85-.29-8.06-2.05-9.46-1.4-1.11-3.14-1.28-4.75-.46-.49.25-1.09.05-1.34-.44-.25-.49-.05-1.09.44-1.34,2.31-1.17,4.89-.92,6.9.67,2.25,1.78,4.15,5.73,2.75,11.5-.11.46-.52.76-.97.76Z" style="fill: #242145;"/>
        <path d="m193.9,102.6s-.09,0-.13,0c-.55-.07-.93-.58-.86-1.12.27-1.97.11-4.39-2.17-4.7-.55-.07-.93-.58-.86-1.12.07-.55.58-.93,1.12-.86,1.11.15,4.67,1.09,3.88,6.95-.07.5-.5.87-.99.87Z" style="fill: #242145;"/>
        <path d="m195.04,108.79s-.09,0-.13,0c-5.14-.7-6.38-5.3-5.83-9.38.07-.55.58-.93,1.12-.86.55.07.93.58.86,1.12-.26,1.94-.39,6.52,4.12,7.13.55.07.93.58.86,1.13-.07.5-.5.87-.99.87Z" style="fill: #242145;"/>
      </g>
    </g>
    <g>
      <path d="m410.03,142.52c-9.92,2.01-16.1,5.88-19.18,9.92,1.15,2.94-1.59,6.02-3.61,4.3-2.16-1.83-24.25-16.78-28.05-23.48-.79-1.21-1.88-4.41-2.8-7.21-.29-.9-.57-1.76-.82-2.5-.31-.92-.61-1.83-.9-2.75-.11-.31-.21-.64-.31-.96-.32-1.01-.64-2.03-.95-3.05-.69-2.26-1.35-4.52-1.98-6.77-.02-.06-.04-.13-.05-.19-4.91-17.57-8.08-34.27-9.63-39.97-2.69-9.88,8.35-17.62,15.97-11.46l34.12,26.89c1.12.89,1.98,2.09,2.47,3.44,3.27,9.19,16.6,46.17,18.14,50.52,1.69,4.76-.58,4.33-2.42,3.28Z" style="fill: #3442d9;"/>
      <path d="m410.02,142.51c-9.91,2-16.09,5.89-19.17,9.92-.6.78-1.08,1.57-1.46,2.35,0,0-16.46-12.64-22.73-17.74-6.81-5.54-9.01-11.64-2.91-15.9,4.05-2.82,8.93-2.03,14.1.36,5.17,2.39,31.91,20.86,31.91,20.86.08.05.17.11.25.15Z" style="fill: #fff;"/>
      <path d="m405.4,135.86c-.09,0-.19-.03-.27-.08l-22.56-14.7c-.1-.06-.17-.16-.2-.27-.44-1.36-1.34-2.54-2.54-3.32-.1-.06-.17-.16-.2-.27l-14.8-46.06c-.07-.21,0-.43.19-.56.18-.13.42-.12.59,0,.43.32.89.22,1.18.02.29-.21.54-.61.37-1.12-.07-.21,0-.43.19-.56.18-.13.42-.12.59,0l23.05,17.35c.08.06.14.14.17.24.4,1.2,1.15,2.24,2.17,3.01.08.06.14.14.17.24l14.62,43.68c.07.2,0,.42-.17.55s-.4.14-.58.02c-.44-.29-.88-.16-1.16.05-.27.21-.5.61-.34,1.11.07.2,0,.42-.17.55-.09.07-.2.1-.31.1Zm-22.14-15.53l21.61,14.09c.1-.43.35-.83.73-1.12.38-.29.81-.42,1.26-.42l-14.27-42.63c-1.07-.84-1.88-1.96-2.34-3.25l-22.12-16.65c-.12.43-.38.81-.77,1.08-.39.28-.83.4-1.28.37l14.44,44.93c1.27.87,2.23,2.13,2.74,3.58Z" style="fill: #a9b3fc;"/>
      <path d="m373.6,116.26c-9.2-2.05-15.95,3.84-17.21,9.79-.29-.9-.57-1.76-.82-2.5-.31-.92-.61-1.83-.9-2.75-.11-.31-.21-.64-.31-.96-.32-1.01-.64-2.03-.95-3.05,6.29-10.46,17.83-8.03,17.83-8.03l2.35,7.51Z" style="fill: #a9b3fc;"/>
    </g>
    <g>
      <g>
        <path d="m345.99,82.63c.91-1.54,2.22-2.35,4.15-1.21,1.65.97,2.69,1.89,1.08,4.63l-5.22-3.42Z" style="fill: #6990ff;"/>
        <path d="m347.31,83.2c.51-.82,1.23-1.24,2.25-.64.87.51,1.43,1,.64,2.43l-2.89-1.79Z" style="fill: #b7ccff;"/>
      </g>
      <g>
        <path d="m337.45,97.13c-.91,1.54-.98,3.08.95,4.22,1.65.97,2.96,1.44,4.57-1.3l-5.52-2.91Z" style="fill: #6990ff;"/>
        <path d="m338.59,98c-.47.84-.49,1.68.53,2.28.87.51,1.57.76,2.44-.62l-2.97-1.66Z" style="fill: #b7ccff;"/>
      </g>
      <path d="m349.54,94.49c4.07-6.9,3.29-8.5-1.12-11.1-3.07-1.81-4.92-3.41-9.71,4.72-4.79,8.13-2.49,8.97.58,10.78,4.41,2.6,6.18,2.5,10.25-4.4Z" style="fill: #6990ff;"/>
      <path d="m346.45,92.67c.8-1.35,1.67-2.65,1.21-3.67s-2.11-2.1-2.36-2.26c-.74-.46-1.55-.76-2.16-.15s-1.37,1.75-2.06,2.92c-.68,1.17-1.33,2.42-1.56,3.22s.42,1.39,1.18,1.81c.26.14,2.04,1.06,3.12.97,1.11-.09,1.83-1.48,2.62-2.83Z" style="fill: #b7ccff;"/>
      <g>
        <path d="m337.57,90.18h0c-.21.17-.4.31-.58.41-2.66,1.59-2.67-2.06-.59-2.42.53-.09.84-.15,1.03-.29.09-.07.14-.12.14-.12,0,0,.06.02.15.07.69.3.89,1.18.39,1.74l-.54.62Z" style="fill: #55f186;"/>
        <path d="m336.99,90.59c.58-.3,1.61-1.29,2.32-2.48,2.76-4.63-3.1-6.15-2.07-1.43.46,2.12.05,3.45-.25,3.91Z" style="fill: #29cc7a;"/>
      </g>
    </g>
    <g>
      <path d="m315.86,94.69c-.11,0-.23-.03-.33-.08l-.09-.05c-.37-.19-.51-.64-.32-1.01.19-.37.64-.51,1.01-.32l.08.04c.37.19.52.64.34,1.01-.13.26-.4.41-.67.41Z" style="fill: #ffe75c;"/>
      <path d="m320.54,95.74c-.39,0-.72-.31-.75-.7-.03-.41.29-.77.7-.8h.18c.42-.05.78.26.81.67s-.27.78-.68.81l-.21.02s-.03,0-.05,0Zm-2.31-.18c-.05,0-.11,0-.17-.02l-.21-.05c-.4-.1-.65-.51-.55-.91.1-.4.51-.65.91-.55l.17.04c.4.09.66.49.57.9-.08.35-.39.58-.73.58Zm4.77-.34c-.31,0-.6-.19-.71-.5-.14-.39.07-.82.46-.96l.17-.06c.39-.14.82.05.96.44.14.39-.05.82-.44.96l-.19.07c-.08.03-.17.04-.25.04Zm2.29-1.06c-.26,0-.52-.14-.66-.38-.2-.36-.07-.82.29-1.02l.17-.09c.36-.2.82-.07,1.02.29.2.36.07.82-.29,1.02l-.17.09c-.12.06-.24.1-.36.1Zm2.15-1.32c-.25,0-.49-.12-.63-.34-.23-.35-.13-.81.22-1.04l.15-.1c.35-.23.81-.14,1.04.21.23.34.14.81-.21,1.04l-.17.11c-.13.08-.27.12-.41.12Zm2.11-1.38c-.25,0-.49-.12-.63-.34-.23-.35-.13-.81.22-1.04l.17-.11c.35-.22.81-.12,1.04.23.22.35.12.81-.23,1.04l-.16.1c-.13.08-.27.12-.41.12Zm2.16-1.3c-.27,0-.53-.14-.66-.39-.2-.36-.06-.82.31-1.02l.17-.09c.37-.2.82-.06,1.01.31.19.37.06.82-.31,1.01l-.17.09c-.11.06-.23.09-.35.09Zm2.29-1.04c-.31,0-.59-.19-.71-.5-.14-.39.06-.82.45-.96l.19-.07c.4-.14.82.07.95.47.13.39-.07.82-.47.95l-.17.06c-.08.03-.17.05-.25.05Z" style="fill: #ffe75c;"/>
      <path d="m336.44,88.5c-.37,0-.69-.27-.74-.65-.06-.41.23-.79.64-.85h.1c.41-.07.79.22.84.63.05.41-.24.79-.65.84h-.09s-.07.02-.1.02Z" style="fill: #ffe75c;"/>
    </g>
    <g>
      <rect x="215.93" y="37.39" width="109.93" height="27.38" rx="13.69" ry="13.69" transform="translate(-3.67 75.75) rotate(-15.81)" style="fill: #242145;"/>
      <g>
        <rect x="212.93" y="34.39" width="109.93" height="27.38" rx="13.69" ry="13.69" transform="translate(-2.96 74.82) rotate(-15.81)" style="fill: #fff;"/>
        <g>
          <path d="m233.07,56.38l-1.71.48.87-1.55c.4-.72.15-1.64-.58-2.04-.72-.4-1.64-.15-2.04.58l-.87,1.55-.48-1.71c-.23-.8-1.06-1.26-1.85-1.03s-1.26,1.05-1.03,1.85l.48,1.71-1.55-.87c-.72-.4-1.64-.15-2.04.58-.4.72-.15,1.64.58,2.04l1.55.87-1.71.48c-.8.23-1.26,1.05-1.03,1.85s1.05,1.26,1.85,1.03l1.71-.48-.87,1.55c-.4.72-.15,1.64.58,2.04.36.2.77.24,1.14.13s.7-.35.9-.71l.87-1.55.48,1.71c.23.8,1.05,1.26,1.85,1.03s1.26-1.06,1.03-1.85l-.48-1.71,1.55.87c.36.2.77.24,1.14.13s.7-.35.9-.71c.4-.72.15-1.64-.58-2.04l-1.55-.87,1.71-.48c.8-.23,1.26-1.05,1.03-1.85s-1.05-1.26-1.85-1.03Z" style="fill: #242145;"/>
          <path d="m248.92,51.89l-1.71.48.87-1.55c.4-.72.15-1.64-.58-2.04-.72-.4-1.64-.15-2.04.58l-.87,1.55-.48-1.71c-.23-.8-1.05-1.26-1.85-1.03s-1.26,1.05-1.03,1.85l.48,1.71-1.55-.87c-.72-.4-1.64-.15-2.04.58-.4.72-.15,1.64.58,2.04l1.55.87-1.71.48c-.8.23-1.26,1.05-1.03,1.85s1.05,1.26,1.85,1.03l1.71-.48-.87,1.55c-.4.72-.15,1.64.58,2.04.36.2.77.24,1.14.13s.7-.35.9-.71l.87-1.55.48,1.71c.23.8,1.05,1.26,1.85,1.03s1.26-1.05,1.03-1.85l-.48-1.71,1.55.87c.36.2.77.24,1.14.13s.7-.35.9-.71c.4-.72.15-1.64-.58-2.04l-1.55-.87,1.71-.48c.8-.23,1.26-1.05,1.03-1.85s-1.05-1.26-1.85-1.03Z" style="fill: #242145;"/>
          <path d="m264.76,47.41l-1.71.48.87-1.55c.4-.72.15-1.64-.58-2.04-.72-.4-1.64-.15-2.04.58l-.87,1.55-.48-1.71c-.23-.8-1.05-1.26-1.85-1.03s-1.26,1.05-1.03,1.85l.48,1.71-1.55-.87c-.72-.4-1.64-.15-2.04.58-.4.72-.15,1.64.58,2.04l1.55.87-1.71.48c-.8.23-1.26,1.05-1.03,1.85s1.05,1.26,1.85,1.03l1.71-.48-.87,1.55c-.4.72-.15,1.64.58,2.04.36.2.77.24,1.14.13s.7-.35.9-.71l.87-1.55.48,1.71c.23.8,1.05,1.26,1.85,1.03s1.26-1.05,1.03-1.85l-.48-1.71,1.55.87c.36.2.77.24,1.14.13s.7-.35.9-.71c.4-.72.15-1.64-.58-2.04l-1.55-.87,1.71-.48c.8-.23,1.26-1.05,1.03-1.85s-1.05-1.26-1.85-1.03Z" style="fill: #242145;"/>
          <path d="m280.6,42.92l-1.71.48.87-1.55c.4-.72.15-1.64-.58-2.04-.72-.4-1.64-.15-2.04.58l-.87,1.55-.48-1.71c-.23-.8-1.05-1.26-1.85-1.03s-1.26,1.05-1.03,1.85l.48,1.71-1.55-.87c-.72-.4-1.64-.15-2.04.58-.4.72-.15,1.64.58,2.04l1.55.87-1.71.48c-.8.23-1.26,1.05-1.03,1.85s1.05,1.26,1.85,1.03l1.71-.48-.87,1.55c-.4.72-.15,1.64.58,2.04.36.2.77.24,1.14.13s.7-.35.9-.71l.87-1.55.48,1.71c.23.8,1.05,1.26,1.85,1.03s1.26-1.05,1.03-1.85l-.48-1.71,1.55.87c.36.2.77.24,1.14.13s.7-.35.9-.71c.4-.72.15-1.64-.58-2.04l-1.55-.87,1.71-.48c.8-.23,1.26-1.05,1.03-1.85s-1.05-1.26-1.85-1.03Z" style="fill: #242145;"/>
          <path d="m296.45,38.43l-1.71.48.87-1.55c.4-.72.15-1.64-.58-2.04-.72-.4-1.64-.15-2.04.58l-.87,1.55-.48-1.71c-.23-.8-1.05-1.26-1.85-1.03s-1.26,1.05-1.03,1.85l.48,1.71-1.55-.87c-.72-.4-1.64-.15-2.04.58-.4.72-.15,1.64.58,2.04l1.55.87-1.71.48c-.8.23-1.26,1.05-1.03,1.85s1.05,1.26,1.85,1.03l1.71-.48-.87,1.55c-.4.72-.15,1.64.58,2.04.36.2.77.24,1.14.13s.7-.35.9-.71l.87-1.55.48,1.71c.23.8,1.05,1.26,1.85,1.03s1.26-1.05,1.03-1.85l-.48-1.71,1.55.87c.36.2.77.24,1.14.13s.7-.35.9-.71c.4-.72.15-1.64-.58-2.04l-1.55-.87,1.71-.48c.8-.23,1.26-1.05,1.03-1.85s-1.05-1.26-1.85-1.03Z" style="fill: #242145;"/>
          <path d="m312.29,33.95l-1.71.48.87-1.55c.4-.72.15-1.64-.58-2.04-.72-.4-1.64-.15-2.04.58l-.87,1.55-.48-1.71c-.23-.8-1.05-1.26-1.85-1.03s-1.26,1.05-1.03,1.85l.48,1.71-1.55-.87c-.72-.4-1.64-.15-2.04.58-.4.72-.15,1.64.58,2.04l1.55.87-1.71.48c-.8.23-1.26,1.05-1.03,1.85s1.05,1.26,1.85,1.03l1.71-.48-.87,1.55c-.4.72-.15,1.64.58,2.04.36.2.77.24,1.14.13s.7-.35.9-.71l.87-1.55.48,1.71c.23.8,1.05,1.26,1.85,1.03s1.26-1.05,1.03-1.85l-.48-1.71,1.55.87c.36.2.77.24,1.14.13s.7-.35.9-.71c.4-.72.15-1.64-.58-2.04l-1.55-.87,1.71-.48c.8-.23,1.26-1.05,1.03-1.85s-1.05-1.26-1.85-1.03Z" style="fill: #242145;"/>
        </g>
      </g>
    </g>
    <g>
      <path d="m284.71,82.23c-.47.23-1.04.24-1.55-.03-.85-.44-1.17-1.48-.73-2.33l1.58-3.03c.44-.85,1.49-1.17,2.33-.73.85.44,1.17,1.48.73,2.33l-1.58,3.03c-.18.34-.46.6-.78.76Z" style="fill: #ffe75c;"/>
      <path d="m282.12,80.87c-.47.23-1.04.24-1.55-.03-.85-.44-1.17-1.48-.73-2.33l1.58-3.03c.44-.85,1.49-1.17,2.33-.73.85.44,1.17,1.48.73,2.33l-1.58,3.03c-.18.34-.46.6-.78.76Z" style="fill: #ffe75c;"/>
      <path d="m279.87,79.7c-.47.23-1.04.24-1.55-.03-.85-.44-1.17-1.48-.73-2.33l1.58-3.03c.44-.84,1.49-1.17,2.33-.73.85.44,1.17,1.48.73,2.33l-1.58,3.03c-.18.34-.46.6-.78.76Z" style="fill: #ffe75c;"/>
      <path d="m303.58,88.23c-.47.23-1.04.24-1.55-.03l-23.43-12.23c-.85-.44-1.17-1.48-.73-2.33.44-.85,1.49-1.17,2.33-.73l23.43,12.23c.85.44,1.17,1.48.73,2.33-.18.34-.46.6-.78.76Z" style="fill: #ffe75c;"/>
      <path d="m312.25,97.18c-.36.17-.73.32-1.11.44-2.11.66-4.36.46-6.32-.56-4.05-2.12-5.63-7.14-3.51-11.19,2.12-4.05,7.14-5.63,11.19-3.51,1.96,1.03,3.41,2.75,4.07,4.87.66,2.11.47,4.36-.56,6.32-.84,1.61-2.15,2.87-3.76,3.64Zm-5.69-11.84c-.91.44-1.7,1.16-2.2,2.12-1.23,2.37-.31,5.29,2.05,6.53,1.15.6,2.46.71,3.69.33,1.24-.39,2.24-1.23,2.84-2.38h0c.6-1.15.71-2.46.33-3.69-.39-1.23-1.23-2.24-2.38-2.84-1.4-.73-3-.71-4.33-.07Z" style="fill: #ffe75c;"/>
    </g>
    <g>
      <path d="m272.8,118.97l-5.17-13.43c-.91-2.37-.85-4.96.18-7.29,1.03-2.32,2.91-4.11,5.28-5.02,2.38-.92,4.96-.85,7.29.18,2.32,1.03,4.11,2.91,5.02,5.28l5.17,13.43-17.78,6.84Zm3.72-21.38c-.55,0-1.1.1-1.63.3-2.33.9-3.49,3.52-2.6,5.85l3.38,8.77,8.44-3.25-3.38-8.77c-.43-1.13-1.28-2.02-2.39-2.51-.59-.26-1.21-.39-1.83-.39Z" style="fill: #ffe75c;"/>
      <path d="m290.81,127.27l-11.16,4.3c-2.65,1.02-5.62-.3-6.64-2.95l-4.3-11.16c-1.02-2.65,1.64-9.69,4.29-10.71l9.82-.22c2.65-1.02,5.62.3,6.64,2.95l6.45,7.4c1.02,2.65-2.45,9.38-5.1,10.4Z" style="fill: #ffc619;"/>
      <rect x="272.05" y="103.58" width="22.24" height="22.24" rx="5.14" ry="5.14" transform="translate(-22.3 109.38) rotate(-21.05)" style="fill: #ffe75c;"/>
      <path d="m285.4,114.84l1.66,3.05c.23.43.04.96-.42,1.14l-3.16,1.22c-.45.18-.96-.09-1.08-.56l-.81-3.38c-.08-.35-.35-.61-.69-.71-.89-.26-1.61-.84-1.94-1.69-.61-1.57.42-3.44,2.29-4.16s3.88-.03,4.49,1.55c.32.84.18,1.76-.31,2.55-.19.3-.21.68-.04.99Z" style="fill: #242145;"/>
    </g>
    <path d="m175.76,180.12l30.1,14.81c6.13,3.01,10.73-2.6,8.29-10.11l-11.99-36.89c-2.44-7.52-10.1-11.28-13.78-6.78l-18.11,22.09c-3.69,4.49-.64,13.88,5.49,16.89Z" style="fill: #ffc619;"/>
    <g>
      <ellipse cx="194.87" cy="177.68" rx="4.33" ry="6.22" transform="translate(-65.24 134.22) rotate(-32.87)" style="fill: #242145;"/>
      <path d="m190.28,150.56l-.08,11.58c-.01,1.43.52,2.94,1.37,4.2.85,1.27,2.04,2.3,3.36,2.8,2.63.99,4.79-.53,4.81-3.4l.08-11.58c.02-2.87-2.1-6.01-4.73-7-2.63-.99-4.79.53-4.81,3.4Z" style="fill: #242145;"/>
    </g>
    <path d="m264.93,138.35l.63,26.01c.12,2.92-1.88,5.5-4.74,6.11-5.99,1.28-12.07,2.64-17.41,5.23-3.86,1.87-8.38-.86-8.56-5.15l-.57-23c-.08-1.9.83-6.52,5.22-9.33,6.45-4.12,11.86-5.46,18.16-5.46,3.72,0,7.1,1.89,7.25,5.6Z" style="fill: #ffb0d5;"/>
    <g>
      <polygon points="126.57 63.87 119.78 68.1 112.32 64.82 113.24 58.82 126.57 63.87" style="fill: #242145;"/>
      <g>
        <path d="m95.48,32.23c4.58,1.84,27.34,3.35,27.34,3.35l-5.23,25.88-16.46-15.04-6.76-12.19,1.12-2.01Z" style="fill: #e3e5ff;"/>
        <path d="m131.2,21.55c1.83.46,7.91,2.31,7.91,2.31l-13.75,39.79-.75.2-3.77-14.79,6.92-25.53,3.45-1.97Z" style="fill: #e3e5ff;"/>
        <path d="m113.47,64.67c0-2.01,2.08-3.21,4.12-3.21-2.74-15.37-19.57-15.4-22.11-29.24l-6.79,3.33,24.78,29.12" style="fill: #fff;"/>
        <path d="m124.61,63.84c-.92-4.78-2.74-26.3,6.6-42.29,0,0-4.7,2.24-9.2,1.17-3.65,8.01-6.74,23.98-4.42,38.74,5,0,7.02,2.38,7.02,2.38Z" style="fill: #fff;"/>
        <path d="m124.61,64.15s8.72-39.91,9.34-42.54.89-3.47,5.59-2.18,33.6,7.71,35.72,8.33,3.35,1.01,1.57,4.25c-1.79,3.24-16.99,33.93-16.99,33.93l-35.22-1.79Z" style="fill: #ff78b9;"/>
        <path d="m159.82,65.94l-35.22-1.79c-.01,1.27-2.74,1.54-6.58,1.54-3.27,0-4.31-.36-4.55-1.01-.16-.44-.45-.83-.76-1.2l-23.87-28.14c-.49-.58-1.37-.72-1.97-.25-.63.5-.7,1.41-.18,2l24.73,28.32c-.62,1.22,0,3,1.46,3h43.89c2.35,0,3.89-1.19,3.05-2.47Z" style="fill: #ff78b9;"/>
      </g>
    </g>
    <path d="m232.42,199.43c-.48,0-.95-.23-1.24-.65-.47-.68-.29-1.62.39-2.08,8.13-5.56,19.12-6.67,28.8-7.02.85-.02,1.52.62,1.55,1.44.03.83-.62,1.52-1.44,1.55-9.25.34-19.71,1.38-27.22,6.5-.26.18-.55.26-.84.26Z" style="fill: #a9b3fc;"/>
    <path d="m232.42,207.82c-.48,0-.95-.23-1.24-.65-.47-.68-.29-1.62.39-2.08,8.13-5.55,19.12-6.67,28.8-7.02.85-.03,1.52.62,1.55,1.44.03.83-.62,1.52-1.44,1.55-9.25.34-19.71,1.38-27.22,6.5-.26.18-.55.26-.84.26Z" style="fill: #a9b3fc;"/>
    <path d="m232.42,216.22c-.48,0-.95-.23-1.24-.65-.47-.68-.29-1.62.39-2.08,8.13-5.56,19.12-6.67,28.8-7.02.85-.04,1.52.62,1.55,1.44.03.83-.62,1.52-1.44,1.55-9.25.34-19.71,1.38-27.22,6.5-.26.18-.55.26-.84.26Z" style="fill: #a9b3fc;"/>
    <path d="m232.42,224.61c-.48,0-.95-.23-1.24-.65-.47-.68-.29-1.62.39-2.08,2.65-1.81,5.83-3.28,9.45-4.37.79-.24,1.63.21,1.87,1,.24.79-.21,1.63-1,1.87-3.32,1-6.22,2.33-8.62,3.97-.26.18-.55.26-.84.26Z" style="fill: #a9b3fc;"/>
    <g>
      <path d="m88.51,148.92l-44.88-6.62c-6.46-.95-9.94-6.93-7.79-13.28l13.3-39.26c1.99-5.87,8.56-9.86,14.68-8.95l42.55,6.28c6.13.9,9.77,6.39,8.12,12.32l-11.03,39.59c-1.79,6.41-8.49,10.88-14.95,9.93Z" style="fill: #242145;"/>
      <path d="m86.26,145.92l-44.88-6.62c-6.46-.95-9.94-6.93-7.79-13.28l13.3-39.26c1.99-5.87,8.56-9.86,14.68-8.95l42.55,6.28c6.13.9,9.77,6.39,8.12,12.32l-11.03,39.59c-1.79,6.41-8.49,10.88-14.95,9.93Z" style="fill: #fff;"/>
      <g>
        <path d="m59.15,86.72l-6.31,6.16c-1.29,1.26-.83,3.16.84,3.4l8.21,1.21c1.67.25,3.27-1.34,2.88-2.85l-1.9-7.38c-.38-1.49-2.45-1.8-3.73-.55Z" style="fill: #ffe75c;"/>
        <g>
          <path d="m59.87,94.69c.22-.69-.18-1.33-.89-1.44s-1.48.37-1.7,1.05.17,1.33.89,1.44,1.48-.37,1.7-1.06Z" style="fill: #242145;"/>
          <path d="m60.85,87.52h0c-.68-.1-1.41.35-1.62,1l-.86,2.64c-.22.66.17,1.27.85,1.37h0c.69.1,1.42-.35,1.63-1.01l.86-2.64c.21-.65-.17-1.26-.85-1.37Z" style="fill: #242145;"/>
        </g>
      </g>
      <g>
        <path d="m60.26,108.71c1.04-3.23-.81-6.24-4.13-6.72s-6.86,1.72-7.93,4.94c-1.08,3.25.76,6.29,4.11,6.78s6.91-1.75,7.95-5Z" style="fill: #57f287;"/>
        <path d="m57.53,108.31h0c.22-.68-.17-1.31-.86-1.41l-4.09-.6c-.69-.1-1.44.36-1.66,1.04h0c-.22.68.16,1.31.86,1.41l4.1.61c.7.1,1.44-.36,1.66-1.04Z" style="fill: #242145;"/>
      </g>
      <g>
        <path d="m51.01,131.73l-8.12-1.2c-1.33-.2-2.05-1.42-1.62-2.74l2.64-7.96c.43-1.29,1.84-2.18,3.16-1.99l8.03,1.19c1.32.19,2.05,1.4,1.63,2.69l-2.55,7.97c-.42,1.32-1.84,2.23-3.17,2.03Z" style="fill: #ff78b9;"/>
        <g>
          <path d="m46.95,121.28h0c-.66.42-.92,1.21-.58,1.78l2.94,4.92c.34.57,1.15.69,1.81.27h0c.66-.42.92-1.22.58-1.79l-2.94-4.91c-.34-.56-1.14-.68-1.8-.27Z" style="fill: #242145;"/>
          <path d="m53.07,122.19h0c.34.56.08,1.36-.57,1.78l-5.73,3.64c-.66.42-1.47.3-1.81-.27h0c-.34-.57-.07-1.37.59-1.79l5.72-3.63c.66-.42,1.46-.3,1.8.27Z" style="fill: #242145;"/>
        </g>
      </g>
      <g>
        <path d="m103.05,96.79c-.07,0-.14,0-.21-.02l-29.88-4.41c-.76-.11-1.29-.82-1.18-1.59.11-.77.83-1.29,1.59-1.18l29.88,4.41c.76.11,1.29.82,1.18,1.59-.1.7-.7,1.2-1.38,1.2Z" style="fill: #a9b3fc;"/>
        <path d="m90.59,99.82c-.07,0-.14,0-.21-.02l-18.88-2.79c-.76-.11-1.29-.82-1.18-1.59.11-.76.83-1.29,1.59-1.18l18.88,2.79c.76.11,1.29.82,1.18,1.59-.1.7-.7,1.2-1.38,1.2Z" style="fill: #a9b3fc;"/>
      </g>
      <g>
        <path d="m98.33,113.23c-.07,0-.14,0-.21-.02l-30.31-4.47c-.76-.11-1.29-.82-1.18-1.59.11-.76.83-1.29,1.59-1.18l30.31,4.47c.76.11,1.29.82,1.18,1.59-.1.7-.7,1.2-1.38,1.2Z" style="fill: #a9b3fc;"/>
        <path d="m85.67,116.37c-.07,0-.14,0-.21-.02l-19.15-2.83c-.76-.11-1.29-.82-1.18-1.59.11-.76.83-1.29,1.59-1.18l19.15,2.83c.76.11,1.29.82,1.18,1.59-.1.7-.7,1.2-1.38,1.2Z" style="fill: #a9b3fc;"/>
      </g>
      <g>
        <path d="m93.79,130.19c-.07,0-.14,0-.21-.02l-30.75-4.54c-.76-.11-1.29-.82-1.18-1.59.11-.76.83-1.29,1.59-1.18l30.75,4.54c.76.11,1.29.82,1.18,1.59-.1.7-.7,1.2-1.38,1.2Z" style="fill: #a9b3fc;"/>
        <path d="m80.92,133.44c-.07,0-.14,0-.21-.02l-19.43-2.87c-.76-.11-1.29-.82-1.18-1.59.11-.76.83-1.29,1.59-1.18l19.43,2.87c.76.11,1.29.82,1.18,1.59-.1.7-.7,1.2-1.38,1.2Z" style="fill: #a9b3fc;"/>
      </g>
    </g>
  </g>
</svg>