<svg width="506" height="340" viewBox="0 0 506 340" fill="none" xmlns="http://www.w3.org/2000/svg">
<rect width="446" height="240" rx="16" fill="white"/>
<path d="M96.8789 301.32L165.058 311.703" stroke="#8089FF" stroke-width="10" stroke-miterlimit="10" stroke-linecap="round"/>
<path d="M189.672 284.536L153.55 293.853C141.566 296.944 134.369 309.117 137.475 321.043L137.831 322.407C140.937 334.333 153.169 341.495 165.153 338.404L201.275 329.087C213.258 325.997 220.455 313.823 217.349 301.897L216.994 300.533C213.888 288.607 201.656 281.445 189.672 284.536Z" fill="#5865F1"/>
<mask id="mask0_171_90" style="mask-type:luminance" maskUnits="userSpaceOnUse" x="136" y="283" width="83" height="57">
<path d="M189.672 284.536L153.55 293.853C141.566 296.944 134.369 309.117 137.475 321.043L137.831 322.407C140.937 334.333 153.169 341.495 165.153 338.404L201.275 329.087C213.258 325.997 220.455 313.823 217.349 301.897L216.994 300.533C213.888 288.607 201.656 281.445 189.672 284.536Z" fill="white"/>
</mask>
<g mask="url(#mask0_171_90)">
<path d="M176.18 287.06C186.177 284.482 196.986 292.769 200.326 305.585C203.667 318.388 198.268 330.867 188.271 333.444" stroke="#8089FF" stroke-width="2" stroke-miterlimit="10" stroke-linecap="round"/>
<path d="M152.797 293.107C162.794 290.529 173.603 298.816 176.943 311.631C180.284 324.435 174.886 336.914 164.888 339.491" stroke="#8089FF" stroke-width="2" stroke-miterlimit="10" stroke-linecap="round"/>
</g>
<path d="M283.732 99.3873C292.471 103.88 299.079 111.661 304.114 120.068C307.019 124.934 309.513 130.102 313.265 134.353C318.166 139.906 324.872 143.495 330.742 148.024C340.364 155.456 347.953 165.899 350.458 177.763C352.964 189.627 349.914 202.864 341.308 211.464C332.703 220.064 318.457 223.027 307.697 217.318C299.987 213.223 294.94 205.598 290.22 198.287C284.93 190.109 279.653 181.918 274.364 173.74C270.624 167.946 266.86 162.105 264.185 155.757C259.114 143.7 258.182 130.342 254.551 117.78C253.57 114.383 252.384 110.986 252.312 107.457C252.009 92.1122 274.655 94.7139 283.732 99.3753V99.3873Z" fill="#23272A"/>
<path d="M233.055 269.81C234.823 271.05 238.72 271.448 245.582 270.436C284.217 264.739 322.355 246.72 353.303 222.943C347.845 227.135 327.257 225.918 319.873 227.436C307.601 229.965 295.521 233.446 283.757 237.795C271.314 242.384 258.57 246.539 246.914 253.019C237.606 258.199 228.601 266.702 233.043 269.822L233.055 269.81Z" fill="#D01582"/>
<path d="M158.256 118.972C168.011 119.466 177.852 121.116 187.486 119.478C196.346 117.972 204.479 113.781 212.867 110.577C221.969 107.108 231.506 104.783 241.189 103.663C252.905 102.314 265.965 103.181 274.607 111.167C280.307 116.455 283.2 124.127 284.568 131.764C287.666 149.132 283.636 167.332 275.26 182.882C270.395 191.927 263.931 200.347 255.326 205.996C250.908 208.899 246.006 211.019 241.08 212.97C211.463 224.653 179.534 230.495 147.678 230.049C137.983 229.917 128.01 229.122 119.331 224.834C100.801 215.68 92.9338 191.831 97.7631 171.801C104.275 144.736 129.22 117.503 158.244 118.972H158.256Z" fill="#23272A"/>
<path d="M175.468 88.0414C174.366 77.6106 178.058 72.2988 186.809 66.445C194.845 61.061 204.395 58.3148 214.09 58.3027C230.55 58.3027 239.446 61.1694 249.432 72.3831C249.432 72.3831 255.108 81.7058 256.379 88.8604C257.723 97.1472 256.016 109.216 247.459 113.817C257.166 119.153 261.051 131.234 258.994 142.074C256.936 152.915 248.694 162.069 238.587 166.61C228.481 171.151 216.765 171.391 206.005 168.705C194.47 165.827 183.589 159.455 176.69 149.819C169.791 140.183 163.473 127.898 167.83 116.901C155.921 107.939 145.693 92.7509 142.934 78.1646C152.544 78.4537 167.491 82.7175 175.468 88.0654V88.0414Z" fill="#577EF6"/>
<path d="M195.826 191.651C201.079 179.088 210.859 168.453 222.962 162.117C229.631 158.624 236.881 156.444 244.095 154.276C256.961 150.41 269.875 146.531 283.177 144.604C296.031 142.737 309.066 142.725 322.077 143.026C323.505 143.062 323.844 145.05 322.501 145.532C308.751 150.446 296.176 159.19 289.834 172.115C282.354 187.375 286.638 208.791 301.84 216.512C310.034 220.679 319.911 220.402 328.734 217.861C337.558 215.319 345.618 210.694 353.691 206.298C374.473 194.964 396.477 184.75 420.043 182.28C443.608 179.823 469.183 186.243 484.978 203.829C497.238 217.475 502.298 236.024 505.372 254.079C472.087 267.823 447.747 293.55 423.77 320.326C407.661 317.64 397.421 303.258 390.256 288.636C383.103 274.014 377.947 257.861 366.461 246.298C351.634 231.375 328.432 229.737 308.316 236.036C292.944 240.854 279.267 249.514 265.881 258.235C252.942 266.666 241.081 274.315 224.887 270.28C208.184 266.112 192.231 248.828 190.803 231.544C189.569 216.608 190.017 205.479 195.802 191.639L195.826 191.651Z" fill="#FF78B8"/>
<path d="M322.502 145.52C306.029 146.098 289.811 148.206 270.929 156.167C263.207 159.419 241.917 167.465 237.076 176.932C236.289 178.462 234.607 179.305 232.9 179.1C226.728 178.354 220.736 177.438 214.406 178.679C207.386 180.064 200.62 183.822 196.796 189.844C197.135 189.411 196.53 190.001 196.263 190.471C189.691 201.986 190.429 216.078 191.349 229.291C191.7 234.386 192.16 239.77 195.15 243.926C220.942 218.656 254.118 202.973 286.821 187.532C289.666 172.379 296.395 161.407 309.019 152.481C313.969 148.976 315.119 148.615 322.514 145.532L322.502 145.52Z" fill="#D01582"/>
<path d="M132.232 121.201C147.241 122.02 163.471 129.97 167.308 144.436C169.971 154.469 166.086 165.044 161.269 174.247C153.813 188.496 144.009 201.106 132.559 212.392C134.58 210.405 141.298 209.803 144.045 209.201C148.209 208.297 152.433 207.635 156.669 207.225C163.847 206.539 170.128 206.912 174.861 200.564C179.206 194.735 186.807 190.627 193.815 192.663C200.823 194.699 204.853 204.599 199.757 209.791C207.685 209.947 215.565 212.248 222.294 216.415C224.594 217.837 226.143 220.294 226.216 222.98C226.385 229.821 221.265 229.833 214.899 229.544C219.426 229.46 222.234 231.845 223.674 235.615C224.751 238.445 225.465 241.493 223.335 243.649C219.656 247.346 213.18 243.974 208.545 246.166C212.563 243.022 219.22 247.214 219.184 252.309C219.147 257.404 214.124 261.427 209.029 261.836C203.933 262.246 199.019 259.837 194.928 256.79C175.599 263.45 154.757 267.702 134.302 267.437C113.847 267.184 92.9446 261.102 77.6337 247.599C62.3349 234.085 53.5963 212.513 58.3529 192.723C60.7252 182.883 66.1233 174.03 71.9693 165.755C87.1228 144.291 105.883 122.237 132.22 121.201H132.232Z" fill="#577EF6"/>
<path d="M302.772 79.1192L298.793 83.0796C298.003 83.8652 298.003 85.1388 298.793 85.9243L302.772 89.8847C303.562 90.6702 304.841 90.6702 305.631 89.8847L309.61 85.9243C310.4 85.1387 310.4 83.8652 309.61 83.0796L305.631 79.1192C304.841 78.3337 303.562 78.3337 302.772 79.1192Z" fill="#9CD6FA"/>
<path d="M282.781 284.975L284.176 286.363C284.966 287.148 286.245 287.148 287.035 286.363L288.43 284.975C289.219 284.189 289.219 282.915 288.43 282.13L287.035 280.742C286.245 279.956 284.966 279.956 284.176 280.742L282.781 282.13C281.992 282.915 281.992 284.189 282.781 284.975Z" fill="#9CD6FA"/>
<path d="M55.1109 104.484C49.5796 100.93 45.8397 95.1851 44.8714 88.705L43.2132 77.6719C43.1285 77.1299 42.6686 76.7324 42.1118 76.7324C41.5551 76.7324 41.0951 77.1299 41.0104 77.6719L39.3522 88.705C38.3719 95.1851 34.644 100.93 29.1127 104.484L27.6724 105.411C27.3577 105.616 27.1641 105.965 27.1641 106.339V106.411C27.1641 106.784 27.3577 107.134 27.6724 107.338L29.1127 108.266C34.644 111.819 38.384 117.564 39.3522 124.044L41.0104 135.077C41.0951 135.619 41.5551 136.017 42.1118 136.017C42.6686 136.017 43.1285 135.619 43.2132 135.077L44.8714 124.044C45.8518 117.564 49.5796 111.819 55.1109 108.266L56.5512 107.338C56.8659 107.134 57.0596 106.784 57.0596 106.411V106.339C57.0596 105.965 56.8659 105.616 56.5512 105.411L55.1109 104.484Z" fill="#FDE65C"/>
<path d="M359.197 90.3301C354.78 87.4996 351.802 82.9105 351.027 77.7433L349.708 68.9385C349.648 68.5049 349.272 68.1797 348.825 68.1797C348.389 68.1797 348.014 68.5049 347.941 68.9385L346.622 77.7433C345.847 82.9105 342.87 87.4996 338.452 90.3301L337.302 91.0648C337.048 91.2334 336.891 91.5105 336.891 91.8116V91.8718C336.891 92.1729 337.048 92.45 337.302 92.6186L338.452 93.3533C342.87 96.1839 345.847 100.773 346.622 105.94L347.941 114.745C348.002 115.179 348.377 115.504 348.825 115.504C349.26 115.504 349.636 115.179 349.708 114.745L351.027 105.94C351.802 100.773 354.78 96.1839 359.197 93.3533L360.347 92.6186C360.601 92.45 360.759 92.1729 360.759 91.8718V91.8116C360.759 91.5105 360.601 91.2334 360.347 91.0648L359.197 90.3301Z" fill="#FDE65C"/>
<path d="M356.316 279.168C352.697 276.856 350.264 273.098 349.623 268.858L348.534 261.655C348.485 261.306 348.17 261.041 347.807 261.041C347.444 261.041 347.142 261.306 347.081 261.655L345.992 268.858C345.35 273.086 342.918 276.844 339.299 279.168L338.355 279.771C338.149 279.903 338.016 280.132 338.016 280.385V280.433C338.016 280.674 338.137 280.915 338.355 281.047L339.299 281.65C342.918 283.962 345.35 287.72 345.992 291.96L347.081 299.163C347.13 299.512 347.444 299.777 347.807 299.777C348.17 299.777 348.473 299.512 348.534 299.163L349.623 291.96C350.264 287.732 352.697 283.974 356.316 281.65L357.26 281.047C357.466 280.915 357.599 280.686 357.599 280.433V280.385C357.599 280.144 357.478 279.903 357.26 279.771L356.316 279.168Z" fill="#FDE65C"/>
<path d="M154.019 124.706C164.44 131.089 171.726 146.133 169.608 158.118C167.756 168.609 161.898 177.956 155.302 186.351C148.705 194.746 148.391 197.504 142.569 206.406C148.524 204.623 148.185 206.406 153.474 206.514C145.583 225.364 145.425 246.081 147.265 266.666C148.488 280.3 135.343 290.695 122.296 286.335C118.713 285.142 115.215 283.673 111.899 282.155C98.5608 276.037 86.0338 267.521 71.1586 265.979C67.1161 265.558 63.1582 264.486 59.5514 262.631C53.4271 259.499 46.8791 257.777 41.953 252.983C37.0269 248.189 33.8921 241.54 33.3474 234.675C32.0766 218.462 39.8349 202.937 50.147 190.314C55.2547 184.062 61.379 178.582 65.6879 171.765C71.1828 163.068 76.0847 154.926 82.4027 146.591C91.6861 134.329 104.6 125.115 119.415 120.851C132.68 117.033 143.404 118.213 154.019 124.718V124.706Z" fill="#23272A"/>
<path d="M311.778 204.707C308.486 205.31 304.226 205.346 301.297 207.056C298.368 208.766 297.508 212.5 293.647 213.645C289.98 214.729 285.49 213.127 283.977 209.634C282.464 206.141 284.969 201.359 288.782 201.178C284.8 202.828 280.055 204.442 276.4 202.166C272.938 200.01 272.188 194.879 274.173 191.313C276.158 187.748 280.176 185.689 284.231 185.086C279.789 186.182 273.798 186.592 271.934 182.436C270.941 180.22 271.764 177.498 273.41 175.691C275.056 173.885 277.344 172.825 279.632 171.969C284.182 170.283 289.06 170.115 293.018 167.862C296.976 165.61 297.315 161.346 302.543 157.263C302.943 156.95 303.463 156.408 303.96 156.359C304.347 156.323 304.419 156.54 304.746 156.757C306.997 158.275 309.249 159.78 311.512 161.298C312.25 161.792 313.001 162.298 313.848 162.55C314.998 162.9 316.232 162.791 317.419 162.876C322.163 163.213 326.206 166.778 328.3 171.03C330.393 175.282 330.829 180.136 330.926 184.857C330.987 187.64 330.926 190.41 330.781 193.192C330.672 195.252 330.466 197.396 329.437 199.191C327.125 203.178 316.051 203.912 311.79 204.707H311.778Z" fill="#577EF6"/>
<path d="M173.981 87.5839C175.481 88.1259 177.019 88.5957 178.568 88.9811C181.654 89.7399 185.116 90.1374 187.863 88.5355C190.308 87.1142 191.724 84.3439 192.16 81.5495C192.596 78.7551 192.196 75.9246 191.797 73.1302C195.149 75.6716 201.092 75.1055 204.772 73.082C208.451 71.0585 210.751 66.7585 210.376 62.591C212.554 65.301 216.585 65.7828 220.083 65.8671C223.58 65.9515 227.066 64.4218 229.378 61.808C232.84 67.5896 239.339 72.3834 245.996 71.2632C246.71 71.7209 256.768 82.9828 253.766 100.4C253.585 100.111 253.27 99.6167 253.488 99.8696C253.706 100.123 253.609 100.52 253.5 100.833C252.024 105.254 250.027 109.493 247.545 113.432C250.946 117.66 257.458 117.949 261.222 114.034C264.986 110.12 264.333 102.929 259.927 99.7492C265.906 96.3766 266.766 87.1021 261.755 82.5853C262.106 82.8985 264.684 77.8879 264.841 77.4181C265.555 75.3344 265.809 73.082 265.458 70.9019C264.647 65.7106 262.433 60.8083 259.951 56.2072C257.652 51.9313 255.267 47.1134 251.576 43.8372C248.138 40.7899 243.466 38.8386 238.928 39.6095C237.233 34.7554 233.215 32.0574 228.143 31.0817C223.072 30.1061 217.819 31.0817 212.869 32.5392C208.826 29.0823 202.557 27.7694 197.34 28.8655C192.124 29.9616 187.5 33.5509 185.2 38.3327C180.964 36.8873 176.873 36.6946 173.073 39.0554C169.272 41.4162 166.634 45.5355 166.077 49.968C161.696 50.4739 155.862 51.0761 152.34 53.7139C148.817 56.3517 146.252 60.4711 146.191 64.8554C141.773 64.0122 136.811 66.638 134.414 70.4201C132.018 74.2021 131.582 78.9719 132.308 83.3923C127.552 83.1153 121.924 85.2472 119.152 89.1136C116.38 92.98 115.763 98.2677 117.578 102.652C113.609 102.074 108.561 105.338 105.923 108.349C103.212 111.433 100.815 116.287 101.723 120.575C102.945 126.368 110.68 129.909 114.952 133.294C120.423 137.63 126.499 141.099 132.066 145.291C137.065 149.061 143.056 152.554 149.277 148.94C153.768 146.326 156.043 140.449 154.446 135.522C159.021 136.642 164.334 133.908 167.13 130.138C169.926 126.368 170.204 120.9 167.784 116.877C164.988 112.216 160.824 108.614 157.387 104.447C155.668 102.363 154.216 100.195 153.078 97.7618C151.008 93.3654 141.156 84.0909 150.512 80.6461C151.807 80.1764 153.223 80.2005 154.603 80.3209C162.18 80.9713 167.154 85.1388 173.944 87.596L173.981 87.5839Z" fill="#ECECEC"/>
<path d="M152.084 134.259L125.734 113.289C133.142 119.685 141.009 126.526 144.725 135.548C147.061 134.897 149.663 134.367 152.084 134.247V134.259Z" fill="white"/>
<path d="M164.381 112.204C156.332 104.929 148.077 97.8945 139.617 91.1133C148.404 98.015 155.715 107.181 160.544 117.238C163.304 116.865 166.656 116.672 168.726 118.515C167.189 116.082 166.523 114.143 164.381 112.204Z" fill="white"/>
<path d="M171.618 86.7049C168.871 85.4281 166.123 84.1634 163.376 82.8867C162.395 82.429 161.391 81.9713 160.568 81.2727C159.684 80.5259 159.031 79.5503 158.377 78.5987C156.09 75.2744 153.633 71.7452 150.691 68.9629C158.135 74.2746 165.119 80.2971 171.618 86.7049Z" fill="white"/>
<path d="M192.061 73.3485C188.817 73.0835 185.573 72.8064 182.318 72.5415C180.502 69.5182 178.566 66.5552 176.52 63.6765C174.596 60.9543 171.921 58.3286 170.359 55.4258C171.993 55.6426 174.257 58.1479 175.673 59.2922C177.585 60.8339 179.473 62.3997 181.349 63.9776C183.225 65.5555 185.089 67.1574 186.929 68.7714C187.982 69.6989 190.79 73.24 192.049 73.3485H192.061Z" fill="white"/>
<path d="M188.735 41.1878C196.602 46.7766 203.61 53.5819 209.407 61.2665C206.902 59.4237 204.058 58.5083 200.959 58.1349C197.498 51.1248 194.375 46.5959 188.723 41.1758L188.735 41.1878Z" fill="white"/>
<path d="M215.53 36.1774L215.191 35.6113C222.042 41.0797 227.476 48.2704 230.877 56.3284C228.687 54.0399 225.879 52.2693 222.877 51.2334C221.34 45.0785 218.81 41.6217 215.53 36.1895V36.1774Z" fill="white"/>
<path d="M240.465 42.6097C245.79 47.7047 249.627 54.3172 251.394 61.4478C249.99 59.7254 248.308 57.738 246.674 56.2324C246.408 54.6425 245.597 53.0405 244.979 51.5469C243.503 47.9817 242.656 45.7775 240.477 42.5977L240.465 42.6097Z" fill="white"/>
<mask id="mask1_171_90" style="mask-type:luminance" maskUnits="userSpaceOnUse" x="101" y="28" width="165" height="123">
<path d="M173.981 87.5839C175.481 88.1259 177.019 88.5957 178.568 88.9811C181.654 89.7399 185.116 90.1374 187.863 88.5355C190.308 87.1142 191.724 84.3439 192.16 81.5495C192.596 78.7551 192.196 75.9246 191.797 73.1302C195.149 75.6716 201.092 75.1055 204.772 73.082C208.451 71.0585 210.751 66.7585 210.376 62.591C212.554 65.301 216.585 65.7828 220.083 65.8671C223.58 65.9515 227.066 64.4218 229.378 61.808C232.84 67.5896 239.339 72.3834 245.996 71.2632C246.71 71.7209 256.768 82.9828 253.766 100.4C253.585 100.111 253.27 99.6167 253.488 99.8696C253.706 100.123 253.609 100.52 253.5 100.833C252.024 105.254 250.027 109.493 247.545 113.432C250.946 117.66 257.458 117.949 261.222 114.034C264.986 110.12 264.333 102.929 259.927 99.7492C265.906 96.3766 266.766 87.1021 261.755 82.5853C262.106 82.8985 264.684 77.8879 264.841 77.4181C265.555 75.3344 265.809 73.082 265.458 70.9019C264.647 65.7106 262.433 60.8083 259.951 56.2072C257.652 51.9313 255.267 47.1134 251.576 43.8372C248.138 40.7899 243.466 38.8386 238.928 39.6095C237.233 34.7554 233.215 32.0574 228.143 31.0817C223.072 30.1061 217.819 31.0817 212.869 32.5392C208.826 29.0823 202.557 27.7694 197.34 28.8655C192.124 29.9616 187.5 33.5509 185.2 38.3327C180.964 36.8873 176.873 36.6946 173.073 39.0554C169.272 41.4162 166.634 45.5355 166.077 49.968C161.696 50.4739 155.862 51.0761 152.34 53.7139C148.817 56.3517 146.252 60.4711 146.191 64.8554C141.773 64.0122 136.811 66.638 134.414 70.4201C132.018 74.2021 131.582 78.9719 132.308 83.3923C127.552 83.1153 121.924 85.2472 119.152 89.1136C116.38 92.98 115.763 98.2677 117.578 102.652C113.609 102.074 108.561 105.338 105.923 108.349C103.212 111.433 100.815 116.287 101.723 120.575C102.945 126.368 110.68 129.909 114.952 133.294C120.423 137.63 126.499 141.099 132.066 145.291C137.065 149.061 143.056 152.554 149.277 148.94C153.768 146.326 156.043 140.449 154.446 135.522C159.021 136.642 164.334 133.908 167.13 130.138C169.926 126.368 170.204 120.9 167.784 116.877C164.988 112.216 160.824 108.614 157.387 104.447C155.668 102.363 154.216 100.195 153.078 97.7618C151.008 93.3654 141.156 84.0909 150.512 80.6461C151.807 80.1764 153.223 80.2005 154.603 80.3209C162.18 80.9713 167.154 85.1388 173.944 87.596L173.981 87.5839Z" fill="white"/>
</mask>
<g mask="url(#mask1_171_90)">
<path d="M168.667 140.508C164.746 139.448 158.428 138.545 155.317 136.69C151.238 134.257 148.188 129.993 147.668 125.284C147.147 120.574 149.387 115.551 153.477 113.142C157.568 110.733 163.366 111.348 166.561 114.853C163.172 112.685 162.712 108.77 161.321 105C159.808 100.893 159.323 96.0629 161.599 92.317C163.874 88.571 169.587 86.8245 172.855 89.7514C170.422 87.6195 169.345 84.6203 169.43 81.3923C169.539 77.4778 172.661 74.2377 176.135 72.419C179.052 70.8893 182.393 70.0702 185.661 70.4436C188.928 70.817 192.112 72.431 194.048 75.0929C190.647 72.6839 190.441 67.8781 192.1 64.0719C193.758 60.2657 197.994 57.8086 202.158 57.9893C206.321 58.17 210.218 60.8198 212.143 64.5055C212.119 63.9033 211.986 63.5178 211.961 62.9156C211.877 60.9643 211.792 58.977 212.288 57.0859C213.39 52.9305 217.541 49.7747 221.862 49.8109C226.183 49.847 230.274 53.087 231.278 57.2666C233.578 54.4842 236.943 53.0148 240.55 53.1352C244.157 53.2557 247.679 55.1226 249.797 58.0375C251.83 60.8439 252.411 65.0355 250.136 67.6613C252.762 64.8548 256.914 64.6139 260.363 66.3243C263.813 68.0346 265.991 71.8649 265.931 75.6951C265.894 78.2366 264.974 80.7419 265.241 83.2713C265.422 85.0299 266.173 86.68 266.79 88.3422C270.373 97.9178 269.876 108.915 265.471 118.141C265.083 118.96 264.611 119.815 263.825 120.273C262.844 120.851 261.622 120.683 260.496 120.49C256.538 119.839 252.568 119.177 248.611 118.526C247.667 118.37 246.626 118.165 246.02 117.43C245.088 116.286 245.657 114.6 246.19 113.227C252.096 97.7251 244.435 78.3691 229.487 71.0458C227.647 70.1425 225.65 69.3957 223.593 69.4559C221.414 69.5162 219.381 70.4677 217.432 71.4433C204.082 78.1643 191.652 87.1859 182.659 99.0862C173.303 111.468 169.345 125.392 169.587 140.713C167.929 140.111 166.017 140.255 164.25 140.617C164.189 144.411 163.172 148.253 160.945 151.337C158.718 154.42 155.245 156.684 151.444 157.046C147.644 157.407 143.625 155.685 141.592 152.481C139.474 149.12 139.74 144.748 141.035 140.99C141.894 138.509 143.311 136.028 145.647 134.823C148.346 133.426 151.626 134.016 154.506 134.992" fill="#C0C0C0"/>
</g>
<mask id="mask2_171_90" style="mask-type:luminance" maskUnits="userSpaceOnUse" x="57" y="121" width="170" height="147">
<path d="M132.232 121.201C147.241 122.02 163.471 129.97 167.308 144.436C169.971 154.469 166.086 165.044 161.269 174.247C153.813 188.496 144.009 201.106 132.559 212.392C134.58 210.405 141.298 209.803 144.045 209.201C148.209 208.297 152.433 207.635 156.669 207.225C163.847 206.539 170.128 206.912 174.861 200.564C179.206 194.735 186.807 190.627 193.815 192.663C200.823 194.699 204.853 204.599 199.757 209.791C207.685 209.947 215.565 212.248 222.294 216.415C224.594 217.837 226.095 220.294 226.216 222.98C226.53 230.339 219.873 229.773 213.507 229.496C218.034 229.412 221.979 230.761 223.674 235.627C224.666 238.481 225.465 241.505 223.335 243.661C219.656 247.358 213.18 243.986 208.545 246.178C212.563 243.034 219.22 247.226 219.184 252.321C219.147 257.416 214.124 261.439 209.029 261.848C203.933 262.258 199.019 259.849 194.928 256.802C175.599 263.462 154.757 267.714 134.302 267.449C113.847 267.196 92.9446 261.114 77.6337 247.611C62.3349 234.097 53.5963 212.525 58.3529 192.735C60.7252 182.895 66.1233 174.042 71.9693 165.767C87.1228 144.303 105.883 122.249 132.22 121.213L132.232 121.201Z" fill="white"/>
</mask>
<g mask="url(#mask2_171_90)">
<path d="M200.219 228.255C205.508 227.556 211.257 226.701 222.259 230.821" stroke="#3A5FE2" stroke-width="2" stroke-miterlimit="10" stroke-linecap="round"/>
<path d="M202.762 243.36C207.034 242.987 213.243 243.216 220.009 248.046" stroke="#3A5FE2" stroke-width="2" stroke-miterlimit="10" stroke-linecap="round"/>
<path d="M204.165 209.104C200.219 208.43 192.073 210.875 189.398 211.983" stroke="#3A5FE2" stroke-width="2" stroke-miterlimit="10" stroke-linecap="round"/>
</g>
<mask id="mask3_171_90" style="mask-type:luminance" maskUnits="userSpaceOnUse" x="271" y="156" width="60" height="58">
<path d="M311.775 204.707C308.483 205.31 304.223 205.346 301.294 207.056C298.365 208.767 297.505 212.5 293.644 213.645C289.977 214.729 285.487 213.127 283.974 209.634C282.461 206.141 284.966 201.359 288.779 201.178C284.567 202.937 279.483 204.635 275.756 201.708C273.299 199.793 272.463 196.481 273.286 193.482C274.63 188.567 279.411 185.785 284.228 185.074C279.726 186.182 273.637 186.592 271.858 182.256C271.168 180.582 271.447 178.667 272.355 177.101C273.94 174.391 276.784 173.005 279.629 171.958C284.18 170.271 289.057 170.103 293.015 167.85C296.973 165.598 297.312 161.334 302.541 157.251C302.698 157.13 302.892 156.962 303.085 156.817C303.581 156.444 304.259 156.42 304.78 156.769L311.509 161.298C312.247 161.792 312.998 162.298 313.845 162.551C314.995 162.9 316.23 162.791 317.416 162.876C322.16 163.213 326.203 166.778 328.297 171.03C330.512 175.535 330.875 180.714 330.935 185.701C330.972 188.375 330.923 191.049 330.742 193.723C330.621 195.626 330.378 197.553 329.422 199.191C327.111 203.178 316.036 203.912 311.775 204.707Z" fill="white"/>
</mask>
<g mask="url(#mask3_171_90)">
<path d="M290.934 168.188C294.032 169.019 297.227 169.211 300.374 168.754" stroke="#3A5FE2" stroke-width="2" stroke-miterlimit="10" stroke-linecap="round"/>
<path d="M271.496 189.339C280.198 184.401 290.777 182.546 296.72 181.799" stroke="#3A5FE2" stroke-width="2" stroke-miterlimit="10" stroke-linecap="round"/>
<path d="M276.953 207.032C285.849 202.828 288.5 197.517 298.437 196.252" stroke="#3A5FE2" stroke-width="2" stroke-miterlimit="10" stroke-linecap="round"/>
</g>
<path d="M239.64 82.9353C235.295 80.3577 230.212 79.0328 225.152 79.1653" stroke="black" stroke-width="3" stroke-linecap="round" stroke-linejoin="round"/>
<path d="M235.415 111.072L216.449 107.013C214.282 106.556 212.963 104.363 213.556 102.244C213.702 101.714 213.895 101.22 214.149 100.786C216.037 97.51 218.991 94.9203 222.404 93.5352C226.555 91.8609 231.494 92.0657 235.258 94.5469C239.022 97.0282 241.37 101.882 240.547 106.447C240.378 107.411 240.014 108.362 239.53 109.254C238.744 110.711 237.025 111.41 235.403 111.06L235.415 111.072Z" fill="white"/>
<path d="M208.922 157.686L211.355 159.432" stroke="#3A5FE2" stroke-width="2" stroke-miterlimit="10" stroke-linecap="round"/>
<path d="M221.413 108.146C219.101 106.146 219.077 102.292 220.916 99.8711C222.756 97.4501 226.024 96.3781 229.074 96.5708C232.572 96.7876 236.058 98.6425 237.704 101.726C239.35 104.809 238.781 109.061 236.034 111.217C231.095 110.314 226.339 109.061 221.413 108.158V108.146Z" fill="black"/>
<path d="M73.6406 235.458C81.2053 226.93 89.7866 219.306 99.1426 212.789C101.091 211.428 103.149 210.091 105.497 209.694C117.54 207.658 141.614 203.623 153.475 206.502" stroke="black" stroke-width="2" stroke-linecap="round" stroke-linejoin="round"/>
<path d="M157.48 137.631C167.756 158.011 179.194 174.416 194.311 191.555" stroke="black" stroke-width="2" stroke-linecap="round" stroke-linejoin="round"/>
<path d="M199.067 167.912L198.026 168.587C193.221 171.694 189.396 175.585 186.395 180.439" stroke="black" stroke-width="2" stroke-linecap="round" stroke-linejoin="round"/>
<path d="M119.973 176.318C124.475 185.448 128.481 194.819 131.955 204.371" stroke="black" stroke-width="2" stroke-linecap="round" stroke-linejoin="round"/>
<path d="M226.241 128.043C221.52 127.236 217.647 124.02 214.343 120.648C211.039 117.275 207.989 113.566 203.837 111.229C199.686 108.892 194.021 108.29 190.378 111.229C188.853 112.457 187.836 114.18 187.195 115.987C185.634 120.419 186.263 125.357 187.836 129.814C191.479 140.112 200.242 148.664 210.918 152.326C221.593 155.975 233.926 154.65 243.379 148.833C248.305 145.797 252.566 141.449 254.236 136.053C256.076 130.139 254.732 121.118 247.337 122.021C239.942 122.924 234.531 129.465 226.228 128.055L226.241 128.043Z" fill="#D01582"/>
<mask id="mask4_171_90" style="mask-type:luminance" maskUnits="userSpaceOnUse" x="186" y="109" width="69" height="46">
<path d="M226.241 128.043C221.52 127.236 217.647 124.02 214.343 120.648C211.039 117.275 207.989 113.566 203.837 111.229C199.686 108.892 194.021 108.29 190.378 111.229C188.853 112.457 187.836 114.18 187.195 115.987C185.634 120.419 186.263 125.357 187.836 129.814C191.479 140.112 200.242 148.664 210.918 152.326C221.593 155.975 233.926 154.65 243.379 148.833C248.305 145.797 252.566 141.449 254.236 136.053C256.076 130.139 254.732 121.118 247.337 122.021C239.942 122.924 234.531 129.465 226.228 128.055L226.241 128.043Z" fill="white"/>
</mask>
<g mask="url(#mask4_171_90)">
<path d="M235.837 138.619C237.12 148.532 231.529 159.746 221.458 162.082C217.658 162.974 213.652 162.552 209.742 162.118C204.998 161.588 200.181 161.034 195.763 159.264C185.451 155.132 179.435 145.22 176.47 135.343C172.427 121.865 173.686 111.446 187.206 104.617C209.016 93.5835 233.15 117.962 235.837 138.619Z" fill="#FF78B8"/>
<path d="M199.115 124.756C199.986 124.443 200.882 124.19 201.814 124.19C203.884 124.166 205.917 125.454 206.716 127.285C207.66 129.441 206.946 131.898 206.05 134.042C204.368 138.077 202.068 141.86 199.236 145.232C198.921 145.605 198.594 145.991 198.147 146.208C197.324 146.617 196.319 146.424 195.435 146.147C192.482 145.256 189.626 143.558 188.173 140.932C184.506 134.332 193.45 126.779 199.115 124.744V124.756Z" fill="white"/>
<path d="M241.079 137.776C241.248 136.234 241.624 134.669 242.568 133.416C243.512 132.163 245.121 131.284 246.719 131.513C247.712 131.645 248.595 132.175 249.37 132.79C253.243 135.873 254.55 141.582 252.359 145.882C250.895 148.761 246.453 151.869 243.318 149.05C240.873 146.846 240.776 140.595 241.079 137.776Z" fill="white"/>
</g>
<path d="M152.082 87.127L173.348 96.534" stroke="#3A5FE2" stroke-width="2" stroke-miterlimit="10" stroke-linecap="round"/>
<path d="M165.771 93.3418C164.463 97.6538 166.158 102.701 169.801 105.363" stroke="#3A5FE2" stroke-width="2" stroke-miterlimit="10" stroke-linecap="round"/>
<path d="M194.906 193.06L193.816 192.675L195.39 192.061L194.906 193.06Z" fill="black"/>
</svg>
