<svg width="446" height="290" viewBox="0 0 446 290" fill="none" xmlns="http://www.w3.org/2000/svg">
<rect width="446" height="290" rx="12" fill="#FFCDEE"/>
<g clip-path="url(#clip0_23608_18923)">
<path d="M139.117 164.433C140.373 164.209 142.573 163.001 142.617 158.077C142.617 157.982 142.655 157.891 142.723 157.824C142.79 157.756 142.881 157.719 142.977 157.719C143.022 157.718 143.067 157.728 143.108 157.746C143.149 157.765 143.186 157.792 143.216 157.826C143.246 157.86 143.268 157.9 143.281 157.943C143.294 157.987 143.297 158.032 143.291 158.077C143.201 163.627 145.849 164.075 146.926 164.254C147.151 164.299 147.285 164.433 147.285 164.612C147.285 164.719 147.243 164.821 147.167 164.897C147.091 164.973 146.988 165.015 146.881 165.015C145.669 165.194 143.111 165.686 143.066 170.834C143.073 170.885 143.068 170.936 143.053 170.985C143.038 171.034 143.012 171.079 142.978 171.117C142.944 171.155 142.903 171.185 142.856 171.206C142.809 171.227 142.758 171.237 142.707 171.237C142.656 171.237 142.605 171.227 142.559 171.206C142.512 171.185 142.47 171.155 142.436 171.117C142.402 171.079 142.377 171.034 142.361 170.985C142.346 170.936 142.342 170.885 142.348 170.834C142.393 165.642 140.194 165.418 139.027 165.149C138.949 165.114 138.885 165.055 138.844 164.98C138.802 164.906 138.785 164.821 138.795 164.736C138.805 164.652 138.841 164.573 138.899 164.51C138.957 164.448 139.033 164.405 139.117 164.388V164.433Z" fill="#91FFAD"/>
<path d="M329.371 225.761C330.627 225.537 332.826 224.329 332.871 219.405C332.881 219.313 332.922 219.228 332.987 219.163C333.053 219.097 333.139 219.057 333.23 219.047C333.318 219.058 333.398 219.1 333.456 219.166C333.514 219.232 333.545 219.317 333.545 219.405C333.455 225 336.058 225.403 337.18 225.582C337.263 225.611 337.338 225.658 337.401 225.72C337.463 225.782 337.51 225.857 337.539 225.94C337.531 226.049 337.487 226.152 337.414 226.233C337.341 226.314 337.243 226.368 337.135 226.388C335.923 226.522 333.365 227.059 333.32 232.207C333.32 232.302 333.282 232.393 333.215 232.46C333.148 232.527 333.056 232.565 332.961 232.565C332.91 232.565 332.859 232.555 332.812 232.534C332.766 232.513 332.724 232.483 332.69 232.445C332.656 232.407 332.63 232.362 332.615 232.313C332.6 232.264 332.596 232.213 332.602 232.162C332.647 227.015 330.448 226.746 329.281 226.477C329.229 226.473 329.179 226.457 329.134 226.43C329.088 226.404 329.05 226.369 329.02 226.326C328.99 226.284 328.97 226.235 328.96 226.184C328.951 226.133 328.953 226.08 328.967 226.03C329.012 225.895 329.146 225.806 329.371 225.761Z" fill="#91FFAD"/>
<path d="M131.848 146.802C133.867 146.444 137.368 144.519 137.458 136.686C137.458 136.615 137.472 136.545 137.499 136.48C137.526 136.415 137.565 136.356 137.615 136.306C137.665 136.256 137.725 136.216 137.79 136.189C137.856 136.162 137.926 136.148 137.996 136.148C138.139 136.148 138.276 136.205 138.377 136.306C138.478 136.406 138.535 136.543 138.535 136.686C138.4 145.593 142.574 146.265 144.37 146.578C144.505 146.607 144.626 146.68 144.715 146.785C144.805 146.891 144.857 147.022 144.863 147.16C144.865 147.323 144.806 147.482 144.699 147.606C144.591 147.729 144.442 147.809 144.28 147.831C142.35 148.055 138.266 148.906 138.176 157.097C138.176 157.251 138.114 157.399 138.005 157.508C137.896 157.618 137.747 157.679 137.592 157.679C137.51 157.687 137.426 157.676 137.349 157.647C137.271 157.617 137.201 157.571 137.145 157.51C137.088 157.449 137.047 157.376 137.023 157.297C137 157.218 136.995 157.134 137.009 157.052C137.099 148.816 133.598 148.413 131.713 147.966C131.637 147.955 131.564 147.929 131.499 147.889C131.434 147.848 131.379 147.795 131.336 147.731C131.294 147.668 131.265 147.596 131.253 147.52C131.24 147.445 131.244 147.368 131.264 147.294C131.293 147.16 131.367 147.038 131.472 146.949C131.578 146.86 131.71 146.808 131.848 146.802Z" fill="#FF78B9"/>
<path d="M351.903 134.935C353.384 134.666 355.987 133.279 356.032 127.504C356.032 127.452 356.043 127.399 356.063 127.35C356.083 127.301 356.113 127.257 356.151 127.22C356.188 127.182 356.233 127.152 356.282 127.132C356.331 127.112 356.383 127.102 356.436 127.102C356.487 127.101 356.538 127.112 356.585 127.132C356.632 127.153 356.673 127.184 356.707 127.222C356.741 127.26 356.767 127.305 356.782 127.354C356.797 127.402 356.802 127.454 356.795 127.504C356.75 134.04 359.802 134.532 361.104 134.756C361.207 134.777 361.299 134.833 361.365 134.915C361.43 134.997 361.465 135.099 361.463 135.203C361.508 135.427 361.283 135.651 361.059 135.696C359.623 135.875 356.616 136.457 356.526 142.5C356.532 142.556 356.527 142.613 356.509 142.668C356.492 142.722 356.463 142.772 356.425 142.814C356.387 142.856 356.34 142.89 356.288 142.913C356.236 142.936 356.179 142.948 356.122 142.947C356.059 142.948 355.997 142.935 355.939 142.909C355.882 142.884 355.83 142.847 355.788 142.801C355.745 142.754 355.713 142.7 355.694 142.64C355.674 142.58 355.667 142.517 355.673 142.455C355.763 136.412 353.205 136.099 351.813 135.785C351.756 135.78 351.7 135.763 351.649 135.735C351.599 135.706 351.555 135.668 351.521 135.621C351.487 135.574 351.463 135.521 351.452 135.464C351.44 135.408 351.441 135.349 351.454 135.293C351.488 135.197 351.547 135.113 351.627 135.049C351.706 134.986 351.802 134.946 351.903 134.935Z" fill="#91FFAD"/>
<path d="M102.808 200.425C104.019 200.246 106.039 199.127 106.129 194.516C106.129 194.433 106.162 194.354 106.221 194.295C106.28 194.236 106.36 194.203 106.443 194.203C106.518 194.214 106.587 194.252 106.637 194.309C106.686 194.367 106.713 194.441 106.712 194.516C106.667 199.709 109.091 200.112 110.123 200.291C110.211 200.302 110.291 200.344 110.349 200.41C110.407 200.476 110.438 200.561 110.437 200.649C110.437 200.744 110.4 200.835 110.332 200.902C110.265 200.969 110.174 201.007 110.078 201.007C108.956 201.141 106.578 201.634 106.533 206.423C106.488 206.647 106.398 206.781 106.174 206.781C106.078 206.781 105.987 206.743 105.92 206.676C105.852 206.609 105.815 206.518 105.815 206.423C105.904 201.589 103.84 201.365 102.763 201.096C102.715 201.091 102.67 201.076 102.628 201.053C102.587 201.029 102.55 200.998 102.521 200.961C102.492 200.923 102.47 200.88 102.458 200.834C102.445 200.789 102.442 200.741 102.449 200.694C102.479 200.621 102.529 200.558 102.592 200.511C102.655 200.464 102.729 200.434 102.808 200.425Z" fill="#FFE75C"/>
<path d="M321.339 34.2667C322.551 34.0429 324.57 32.9238 324.66 28.3133C324.66 28.2302 324.693 28.1505 324.752 28.0918C324.811 28.033 324.891 28 324.974 28C325.05 28.0108 325.118 28.0486 325.168 28.1062C325.217 28.1638 325.244 28.2374 325.244 28.3133C325.199 33.5505 327.622 33.9086 328.655 34.0876C328.742 34.0986 328.822 34.1411 328.88 34.2071C328.938 34.2731 328.969 34.358 328.969 34.4457C328.969 34.5407 328.931 34.6318 328.864 34.6989C328.796 34.7661 328.705 34.8038 328.61 34.8038C327.488 34.9829 325.109 35.4752 325.064 40.2648C325.064 40.3118 325.055 40.3584 325.037 40.4018C325.019 40.4452 324.992 40.4847 324.959 40.518C324.926 40.5512 324.886 40.5776 324.842 40.5956C324.799 40.6136 324.752 40.6229 324.705 40.6229C324.606 40.6118 324.514 40.5645 324.448 40.4901C324.382 40.4158 324.345 40.3195 324.346 40.22C324.436 35.4305 322.371 35.1619 321.294 34.9381C321.247 34.9326 321.201 34.9177 321.159 34.8944C321.118 34.8711 321.082 34.8398 321.052 34.8023C321.023 34.7648 321.002 34.7219 320.989 34.676C320.977 34.6302 320.973 34.5823 320.98 34.5352C321 34.4564 321.047 34.3869 321.112 34.3381C321.177 34.2893 321.257 34.2641 321.339 34.2667Z" fill="#FF78B9"/>
<path d="M95.1768 197.605C95.8051 197.516 96.972 196.889 96.972 194.382C96.972 194.335 96.9909 194.289 97.0246 194.256C97.0583 194.222 97.1039 194.203 97.1515 194.203C97.1992 194.203 97.2448 194.222 97.2785 194.256C97.3122 194.289 97.3311 194.335 97.3311 194.382C97.2862 197.247 98.6327 197.471 99.2161 197.56C99.7996 197.65 99.3508 197.65 99.3508 197.739C99.3508 197.829 99.3059 197.963 99.1712 197.963C99.0366 197.963 97.2413 198.321 97.1964 200.962C97.1964 201.01 97.1775 201.055 97.1438 201.089C97.1102 201.122 97.0645 201.141 97.0169 201.141C96.9693 201.141 96.9236 201.122 96.89 201.089C96.8563 201.055 96.8374 201.01 96.8374 200.962C96.8823 198.276 95.7602 198.142 95.1319 198.008C95.103 198.017 95.0721 198.016 95.0438 198.005C95.0156 197.994 94.9918 197.975 94.9763 197.949C94.9608 197.923 94.9544 197.893 94.9582 197.863C94.962 197.833 94.9757 197.805 94.9972 197.784C94.9972 197.695 95.087 197.65 95.1768 197.605Z" fill="#91FFAD"/>
<path d="M357.108 147.065C358.185 146.842 360.07 145.812 360.115 141.605C360.115 141.533 360.143 141.465 360.194 141.415C360.244 141.364 360.313 141.336 360.384 141.336C360.46 141.335 360.534 141.362 360.592 141.411C360.65 141.461 360.687 141.529 360.698 141.605C360.609 146.394 362.853 146.752 363.795 146.931C363.975 146.931 364.064 147.065 364.109 147.245C364.1 147.324 364.064 147.399 364.007 147.455C363.95 147.512 363.875 147.548 363.795 147.558C362.718 147.692 360.519 148.14 360.474 152.571C360.482 152.614 360.479 152.658 360.466 152.7C360.454 152.742 360.431 152.78 360.4 152.81C360.369 152.841 360.331 152.864 360.289 152.877C360.247 152.89 360.203 152.893 360.16 152.885C360.073 152.874 359.992 152.831 359.934 152.765C359.877 152.699 359.845 152.614 359.846 152.526C359.935 148.095 358.05 147.916 357.018 147.647C356.839 147.647 356.749 147.468 356.749 147.289C356.782 147.223 356.833 147.166 356.897 147.127C356.96 147.087 357.033 147.066 357.108 147.065Z" fill="#E6A5D9"/>
<path d="M96.7032 207.136C97.6008 206.957 99.0819 206.151 99.1268 202.794C99.1268 202.735 99.1504 202.678 99.1925 202.636C99.2346 202.594 99.2917 202.57 99.3512 202.57C99.4107 202.57 99.4678 202.594 99.5099 202.636C99.552 202.678 99.5756 202.735 99.5756 202.794C99.5307 206.599 101.326 206.867 102.089 207.002C102.141 207.026 102.184 207.064 102.216 207.111C102.248 207.159 102.266 207.214 102.269 207.27C102.313 207.405 102.179 207.494 102.044 207.539C101.191 207.628 99.441 207.987 99.3961 211.478C99.3961 211.657 99.3063 211.747 99.1717 211.747C99.1363 211.747 99.1013 211.74 99.0686 211.726C99.036 211.713 99.0063 211.693 98.9813 211.668C98.9563 211.643 98.9364 211.613 98.9229 211.581C98.9094 211.548 98.9024 211.513 98.9024 211.478C98.9473 207.942 97.4662 207.807 96.6583 207.584C96.6248 207.588 96.5907 207.584 96.5598 207.57C96.5289 207.556 96.5026 207.534 96.4838 207.506C96.4651 207.478 96.4547 207.445 96.4538 207.411C96.4529 207.377 96.4615 207.344 96.4788 207.315C96.4893 207.264 96.5175 207.218 96.5585 207.185C96.5995 207.152 96.6507 207.135 96.7032 207.136Z" fill="#E6A5D9"/>
<path d="M326.634 47.2888C327.891 47.065 330.09 45.8565 330.135 40.9774C330.146 40.8904 330.189 40.8104 330.255 40.7527C330.321 40.6949 330.406 40.6634 330.494 40.6641C330.577 40.6641 330.657 40.6971 330.716 40.7558C330.775 40.8146 330.808 40.8943 330.808 40.9774C330.718 46.5279 333.322 46.9307 334.399 47.1098C334.486 47.1314 334.565 47.1762 334.628 47.2393C334.691 47.3023 334.736 47.3814 334.758 47.4679C334.75 47.5766 334.706 47.6795 334.632 47.7605C334.559 47.8415 334.461 47.896 334.354 47.9155C333.142 48.0498 330.629 48.5422 330.584 53.645C330.59 53.6957 330.586 53.7471 330.571 53.7958C330.555 53.8446 330.53 53.8896 330.496 53.9277C330.462 53.9659 330.42 53.9963 330.373 54.017C330.327 54.0378 330.276 54.0483 330.225 54.0479C330.174 54.0483 330.123 54.0378 330.076 54.017C330.029 53.9963 329.988 53.9659 329.954 53.9277C329.92 53.8896 329.894 53.8446 329.879 53.7958C329.864 53.7471 329.859 53.6957 329.866 53.645C329.911 48.4974 327.756 48.2736 326.589 48.005C326.537 48.0002 326.487 47.9842 326.442 47.9581C326.397 47.932 326.358 47.8964 326.328 47.8538C326.298 47.8112 326.278 47.7626 326.269 47.7114C326.26 47.6603 326.262 47.6077 326.275 47.5574C326.306 47.4851 326.356 47.4223 326.419 47.3751C326.482 47.328 326.556 47.2982 326.634 47.2888Z" fill="#FFE75C"/>
<path d="M294.765 254.542C295.797 254.363 297.503 253.423 297.548 249.573C297.548 249.502 297.576 249.434 297.627 249.383C297.677 249.333 297.746 249.305 297.817 249.305C297.889 249.305 297.957 249.333 298.008 249.383C298.058 249.434 298.086 249.502 298.086 249.573C297.997 253.96 300.061 254.318 300.959 254.452C301.026 254.472 301.084 254.514 301.125 254.571C301.166 254.627 301.186 254.696 301.183 254.766C301.184 254.842 301.157 254.915 301.108 254.973C301.058 255.03 300.989 255.068 300.914 255.079C299.972 255.213 297.952 255.616 297.907 259.645C297.922 259.693 297.925 259.745 297.915 259.795C297.905 259.845 297.884 259.892 297.852 259.932C297.82 259.972 297.778 260.003 297.731 260.024C297.685 260.044 297.633 260.052 297.582 260.049C297.531 260.045 297.482 260.028 297.439 260.001C297.396 259.974 297.36 259.937 297.334 259.892C297.309 259.848 297.294 259.798 297.292 259.747C297.291 259.697 297.301 259.646 297.323 259.6C297.368 255.571 295.663 255.348 294.72 255.168C294.645 255.147 294.58 255.099 294.539 255.033C294.497 254.967 294.482 254.887 294.496 254.81C294.496 254.676 294.631 254.587 294.765 254.542Z" fill="#FFE75C"/>
<path d="M111.964 39.9998C113.221 39.776 115.375 38.5674 115.465 33.6883C115.465 33.6472 115.473 33.6065 115.489 33.5684C115.505 33.5304 115.528 33.4959 115.557 33.4668C115.586 33.4377 115.621 33.4146 115.659 33.3989C115.697 33.3831 115.738 33.375 115.779 33.375C115.825 33.3746 115.869 33.3839 115.911 33.4023C115.952 33.4208 115.989 33.448 116.019 33.482C116.049 33.516 116.071 33.5561 116.084 33.5994C116.097 33.6428 116.1 33.6884 116.093 33.7331C116.048 39.2836 118.607 39.6864 119.729 39.9103C119.816 39.9212 119.896 39.9637 119.954 40.0297C120.012 40.0957 120.044 40.1806 120.043 40.2683C120.044 40.3679 120.007 40.4641 119.941 40.5385C119.875 40.6129 119.783 40.6602 119.684 40.6712C118.472 40.8055 115.959 41.3426 115.869 46.4007C115.869 46.4957 115.831 46.5868 115.764 46.6539C115.696 46.7211 115.605 46.7588 115.51 46.7588C115.415 46.7588 115.323 46.7211 115.256 46.6539C115.189 46.5868 115.151 46.4957 115.151 46.4007C115.196 41.2979 113.041 41.0293 111.874 40.7607C111.775 40.7391 111.688 40.6811 111.63 40.5982C111.571 40.5152 111.547 40.4134 111.56 40.3131C111.605 40.1341 111.74 40.0445 111.964 39.9998Z" fill="#FFE75C"/>
<path d="M305.986 144.963C305.986 144.963 332.781 121.553 334.082 120.076C335.384 118.598 338.166 116.987 332.736 111.66C327.305 106.334 283.051 58.3489 283.051 58.3489C283.051 58.3489 279.91 54.186 277.621 57.8565C275.332 61.527 257.424 94.3375 257.424 94.3375L246.787 128.491L305.986 144.963Z" fill="#FFC619"/>
<path d="M270.036 111.935C270.036 111.935 288.303 72.7238 306.704 72.5L349.566 111.98C349.566 111.98 314.334 113.144 299.658 154.325C285.34 194.566 270.036 111.935 270.036 111.935Z" fill="#CDD7F4"/>
<path d="M273.627 104.86C273.627 104.86 293.555 64.3957 311.957 64.1719L353.023 104.995C353.023 104.995 317.477 103.518 301.05 145.997C285.027 187.536 273.627 104.86 273.627 104.86Z" fill="#E3E6FC"/>
<path d="M272.011 77.5983C272.011 77.5983 276.005 57.9926 297.01 57.0078L341.129 100.695C341.129 100.695 309.622 98.8602 299.075 147.158C288.527 195.456 272.684 87.983 272.684 87.983L272.011 77.5983Z" fill="white"/>
<path d="M281.3 72.6315L311.551 104.502L292.386 154.322L254.91 105.397C254.91 105.397 266.848 52.802 267.611 50.7429C267.836 50.0715 269.003 49.3106 270.394 50.7429C271.785 52.1753 281.48 63.7687 282.063 64.6639C282.647 65.5591 283.051 65.8725 282.512 68.0658C281.974 70.2591 281.3 72.6315 281.3 72.6315Z" fill="#FFE75C"/>
<path d="M203.433 252.301L281.528 236.902C290.235 235.201 303.206 224.638 300.602 215.82L244.994 58.1681C242.301 49.0815 232.741 42.3672 223.63 43.1729L150.338 42.3672C140.239 43.2177 125.743 59.6453 129.782 69.3139L181.935 238.917C183.685 248.182 193.873 254.181 203.433 252.301Z" fill="#808BFF"/>
<path d="M212.138 244.421L290.188 229.023C298.895 227.322 303.787 218.817 301.184 209.999L253.654 50.2884C250.961 41.2465 241.446 34.5322 232.29 35.2932L150.336 42.3655C140.238 43.216 134.403 51.7655 137.365 61.3894L189.473 230.947C192.346 240.303 202.534 246.301 212.138 244.421Z" fill="black"/>
<path d="M215.817 238.823L285.205 224.052C292.969 222.396 297.098 214.294 294.54 205.923L248.222 54.3596C245.574 45.7654 236.912 39.4092 228.743 40.1254L155.631 46.6606C146.609 47.4663 141.583 55.5682 144.455 64.6996L195.216 226.022C197.999 234.929 207.245 240.659 215.817 238.823Z" fill="#5865F2"/>
<path d="M219.232 227.37L275.513 216.314C282.56 214.927 286.375 207.63 284.086 199.976C281.797 192.322 274.257 187.264 267.21 188.607L210.928 199.663C203.882 201.05 200.067 208.347 202.356 216.001C204.645 223.655 212.185 228.713 219.232 227.37Z" fill="#808BFF"/>
<path d="M262.876 211.811C257.098 206.872 255.971 198.73 260.358 193.624C264.746 188.519 272.987 188.384 278.765 193.323C284.543 198.262 285.67 206.404 281.282 211.51C276.894 216.615 268.654 216.75 262.876 211.811Z" fill="#8DDAFF"/>
<path d="M180.453 106.597C185.313 103.304 190.597 100.684 196.162 98.8082C197.374 100.017 198.541 101.27 199.618 102.568C205.795 100.621 212.216 99.5515 218.693 99.3901C218.916 97.8657 219.231 96.356 219.635 94.8692C225.916 94.8257 232.18 95.5015 238.306 96.8834C253.745 109.954 261.106 123.964 264.023 138.512C258.871 144.022 252.738 148.529 245.936 151.806C243.586 150.011 241.394 148.02 239.383 145.853C241.558 144.591 243.616 143.138 245.532 141.511L243.378 140.616C231.843 148.628 216.404 151.224 201.279 147.643C200.83 148.181 200.381 148.673 199.887 149.165C202.522 150.028 205.224 150.671 207.966 151.09C207.395 153.672 206.568 156.191 205.497 158.61C197.211 157.725 189.103 155.613 181.441 152.343C174.664 136.05 174.933 120.921 180.453 106.597ZM224.034 127.903C225.38 132.111 229.689 135.021 233.863 134.304C238.037 133.588 240.326 129.604 239.024 125.352C237.723 121.1 233.414 118.19 229.195 118.906C224.976 119.622 222.687 123.651 224.034 127.903ZM196.386 132.514C197.733 136.766 202.042 139.631 206.216 138.96C210.39 138.288 212.634 134.26 211.332 130.007C210.031 125.755 205.722 122.845 201.503 123.562C197.284 124.278 194.995 128.306 196.386 132.514Z" fill="white"/>
<path d="M142.694 92.075L145.941 102.6C146.174 103.356 145.755 104.155 145.006 104.385C144.256 104.615 143.459 104.189 143.226 103.433L139.979 92.9082C139.746 92.1521 140.165 91.3526 140.914 91.1226C141.664 90.8925 142.461 91.3189 142.694 92.075Z" fill="#B0B4FF"/>
<path d="M103.03 97.2004L206.483 86.5471C213.036 85.7414 220.486 77.5052 217.973 69.7614C217.973 69.7614 205.944 54.3185 197.866 55.1242L94.6373 65.9118C86.5137 66.7175 81.4869 76.3414 83.8208 85.1595C86.2893 92.9033 94.7271 97.6033 103.03 97.2004Z" fill="black"/>
<path d="M104.825 93.3495L208.054 83.0543C216.133 82.2486 220.711 75.2657 218.197 67.5219C215.684 59.7781 207.111 54.1381 198.988 54.9438L95.8042 65.2391C87.6806 66.0448 83.1476 72.9829 85.6161 80.7714C88.1294 88.5152 96.7468 94.1553 104.825 93.3495Z" fill="#91FFAD"/>
<path d="M192.433 68.7317L196.518 68.3288L192.03 65.4641C191.782 65.3073 191.606 65.0604 191.539 64.776C191.472 64.4917 191.519 64.1924 191.67 63.9422C191.836 63.6925 192.091 63.516 192.384 63.4493C192.677 63.3826 192.984 63.4309 193.241 63.5841L197.55 66.3593L195.979 62.3755C195.921 62.2376 195.891 62.0895 195.891 61.9399C195.892 61.7903 195.922 61.6423 195.98 61.5046C196.039 61.3669 196.125 61.2423 196.232 61.1381C196.34 61.034 196.468 60.9525 196.608 60.8984C196.743 60.841 196.888 60.8118 197.035 60.8125C197.182 60.8132 197.327 60.8439 197.461 60.9026C197.596 60.9613 197.717 61.0467 197.817 61.1538C197.917 61.2608 197.994 61.3872 198.044 61.525L200.108 66.5831L202.128 63.0469C202.277 62.7858 202.523 62.5942 202.814 62.5145C203.104 62.4347 203.415 62.4733 203.676 62.6217C203.938 62.7701 204.13 63.0162 204.21 63.3058C204.29 63.5954 204.252 63.9048 204.103 64.166L201.993 67.8812L207.245 67.3888C207.392 67.3766 207.54 67.3936 207.681 67.4388C207.822 67.484 207.953 67.5565 208.065 67.6522C208.178 67.7478 208.27 67.8648 208.337 67.9963C208.405 68.1278 208.445 68.2712 208.456 68.4184C208.475 68.5666 208.463 68.7171 208.42 68.8603C208.377 69.0035 208.305 69.1362 208.208 69.2499C208.111 69.3636 207.991 69.4559 207.856 69.5208C207.721 69.5858 207.574 69.6219 207.424 69.6269L203.34 69.985L207.828 72.8498C208.078 73.0148 208.255 73.2696 208.322 73.5614C208.389 73.8531 208.341 74.1594 208.187 74.4165C208.088 74.5782 207.95 74.7123 207.785 74.8063C207.62 74.9002 207.434 74.9509 207.245 74.9536C207.021 74.9634 206.801 74.9005 206.616 74.7746L202.307 71.9993L203.878 75.9831C203.937 76.121 203.966 76.2691 203.966 76.4187C203.966 76.5683 203.936 76.7163 203.877 76.8541C203.818 76.9918 203.733 77.1164 203.625 77.2205C203.517 77.3246 203.39 77.4061 203.25 77.4603H202.846C202.627 77.461 202.413 77.3979 202.229 77.2785C202.046 77.1592 201.901 76.989 201.814 76.7888L199.749 71.7307L197.73 75.2669C197.629 75.4405 197.485 75.5853 197.312 75.6872C197.139 75.7892 196.943 75.8448 196.742 75.8488C196.551 75.8309 196.367 75.7697 196.204 75.6698C195.95 75.5197 195.762 75.2793 195.679 74.9969C195.596 74.7145 195.623 74.4111 195.755 74.1479L197.864 70.4774L192.613 70.9698H192.523C192.226 70.9817 191.936 70.8751 191.717 70.6737C191.498 70.4722 191.368 70.1923 191.356 69.8955C191.344 69.5987 191.451 69.3094 191.653 69.0911C191.855 68.8728 192.136 68.7436 192.433 68.7317Z" fill="#294741"/>
<path d="M173.222 70.4317L177.306 70.0288L172.818 67.164C172.571 67.0073 172.395 66.7604 172.328 66.476C172.261 66.1916 172.308 65.8924 172.459 65.6421C172.625 65.3925 172.88 65.216 173.173 65.1493C173.465 65.0826 173.772 65.1308 174.03 65.284L178.384 68.0593L176.768 64.0755C176.712 63.9373 176.684 63.7895 176.685 63.6406C176.686 63.4916 176.717 63.3443 176.775 63.2071C176.834 63.0699 176.919 62.9456 177.025 62.8411C177.132 62.7367 177.258 62.6542 177.396 62.5983C177.535 62.5425 177.683 62.5144 177.832 62.5157C177.982 62.5169 178.129 62.5475 178.267 62.6057C178.404 62.6639 178.529 62.7486 178.634 62.8548C178.739 62.9611 178.821 63.0869 178.877 63.225L180.897 68.2831L182.917 64.7469C183.067 64.4928 183.311 64.308 183.597 64.2326C183.882 64.1572 184.186 64.1972 184.443 64.344C184.577 64.4095 184.697 64.5022 184.793 64.6163C184.89 64.7303 184.961 64.8631 185.004 65.0063C185.046 65.1495 185.058 65.2999 185.038 65.4479C185.019 65.5959 184.969 65.7383 184.892 65.8659L182.782 69.5812L188.033 69.0888C188.181 69.0766 188.329 69.0935 188.47 69.1387C188.611 69.1839 188.741 69.2564 188.854 69.3521C188.967 69.4478 189.059 69.5648 189.126 69.6963C189.193 69.8278 189.234 69.9712 189.245 70.1183C189.264 70.263 189.253 70.4099 189.213 70.5502C189.173 70.6905 189.104 70.8212 189.012 70.9342C188.919 71.0473 188.805 71.1405 188.675 71.208C188.546 71.2755 188.404 71.3159 188.258 71.3269L184.129 71.685L188.617 74.5498C188.743 74.6291 188.853 74.7326 188.94 74.8543C189.027 74.9759 189.088 75.1134 189.122 75.2589C189.155 75.4044 189.159 75.555 189.134 75.7021C189.109 75.8493 189.055 75.99 188.976 76.1164C188.896 76.2428 188.792 76.3523 188.67 76.4387C188.548 76.5251 188.411 76.5867 188.265 76.6199C188.119 76.6532 187.968 76.6575 187.82 76.6325C187.673 76.6076 187.532 76.5539 187.405 76.4745L183.096 73.6993L184.667 77.6831C184.727 77.8182 184.759 77.9637 184.761 78.1113C184.764 78.2588 184.738 78.4054 184.684 78.5427C184.629 78.68 184.548 78.8052 184.445 78.9112C184.342 79.0172 184.22 79.1018 184.084 79.1602H183.635C183.415 79.1671 183.197 79.1064 183.013 78.9863C182.828 78.8662 182.685 78.6926 182.603 78.4888L180.538 73.4307L178.518 76.9669C178.421 77.1435 178.279 77.2908 178.105 77.3932C177.931 77.4956 177.733 77.5494 177.531 77.5488C177.336 77.5522 177.146 77.489 176.992 77.3698C176.738 77.2197 176.551 76.9793 176.468 76.6969C176.384 76.4145 176.411 76.1111 176.543 75.8479L178.698 72.1326L173.402 72.625H173.312C173.165 72.6309 173.018 72.6077 172.879 72.5569C172.741 72.5061 172.614 72.4286 172.505 72.3289C172.397 72.2291 172.309 72.1091 172.248 71.9755C172.186 71.842 172.151 71.6977 172.145 71.5507C172.139 71.4038 172.162 71.2571 172.213 71.1191C172.264 70.981 172.342 70.8544 172.442 70.7463C172.542 70.6382 172.662 70.5509 172.796 70.4892C172.93 70.4275 173.075 70.3928 173.222 70.3869V70.4317Z" fill="#294741"/>
<path d="M154.015 72.1348L158.099 71.7767L153.611 68.9119C153.355 68.7517 153.174 68.4966 153.106 68.2028C153.039 67.909 153.092 67.6005 153.252 67.3453C153.413 67.09 153.669 66.9089 153.963 66.8417C154.258 66.7746 154.567 66.8269 154.823 66.9872L159.177 69.7624L157.561 65.7786C157.505 65.6405 157.477 65.4927 157.478 65.3437C157.479 65.1947 157.51 65.0474 157.568 64.9102C157.627 64.7731 157.712 64.6487 157.818 64.5443C157.925 64.4398 158.051 64.3573 158.189 64.3014C158.328 64.2456 158.476 64.2175 158.625 64.2188C158.775 64.2201 158.922 64.2507 159.06 64.3089C159.197 64.367 159.322 64.4517 159.427 64.5579C159.532 64.6642 159.614 64.79 159.67 64.9281L161.69 69.9862L163.71 66.45C163.868 66.1928 164.12 66.0071 164.413 65.9319C164.707 65.8567 165.017 65.8981 165.281 66.0472C165.535 66.1966 165.721 66.4403 165.796 66.7253C165.872 67.0103 165.832 67.3135 165.684 67.5691L163.575 71.2843L168.826 70.7919C168.974 70.7797 169.122 70.7967 169.263 70.8418C169.404 70.887 169.534 70.9596 169.647 71.0553C169.76 71.1509 169.852 71.2679 169.919 71.3994C169.986 71.5309 170.027 71.6743 170.038 71.8215C170.057 71.9661 170.046 72.1131 170.006 72.2534C169.965 72.3936 169.897 72.5243 169.805 72.6374C169.712 72.7505 169.598 72.8436 169.468 72.9111C169.339 72.9786 169.196 73.0191 169.051 73.03L164.922 73.4329L169.41 76.2976C169.537 76.371 169.647 76.4695 169.735 76.5871C169.822 76.7046 169.885 76.8388 169.919 76.9813C169.952 77.1238 169.956 77.2717 169.93 77.4159C169.905 77.56 169.85 77.6974 169.769 77.8195C169.67 77.9813 169.532 78.1154 169.367 78.2094C169.202 78.3033 169.016 78.354 168.826 78.3567C168.604 78.3605 168.385 78.2982 168.198 78.1776L163.889 75.4024L165.505 79.3862C165.61 79.6658 165.604 79.9751 165.487 80.25C165.37 80.525 165.151 80.7446 164.877 80.8634L164.428 80.9529C164.204 80.95 163.986 80.8802 163.802 80.7526C163.618 80.6249 163.476 80.4452 163.396 80.2367L161.331 75.1786L159.311 78.7148C159.214 78.8914 159.072 79.0387 158.898 79.1411C158.724 79.2435 158.526 79.2972 158.324 79.2967C158.129 79.3001 157.939 79.2369 157.785 79.1176C157.531 78.9682 157.345 78.7245 157.27 78.4395C157.194 78.1546 157.234 77.8513 157.381 77.5957L159.491 73.8805L154.195 74.3729H154.105C153.958 74.3788 153.811 74.3556 153.672 74.3048C153.534 74.254 153.407 74.1765 153.298 74.0768C153.19 73.977 153.102 73.8569 153.041 73.7234C152.979 73.5899 152.944 73.4455 152.938 73.2986C152.932 73.1516 152.955 73.005 153.006 72.8669C153.057 72.7289 153.135 72.6023 153.235 72.4942C153.335 72.3861 153.455 72.2988 153.589 72.2371C153.723 72.1754 153.868 72.1407 154.015 72.1348Z" fill="#294741"/>
<path d="M134.803 73.8379L138.888 73.4798L134.399 70.6151C134.273 70.5357 134.163 70.4322 134.076 70.3105C133.99 70.1889 133.928 70.0514 133.895 69.9059C133.861 69.7604 133.857 69.6098 133.882 69.4627C133.907 69.3155 133.961 69.1748 134.04 69.0484C134.12 68.922 134.224 68.8125 134.346 68.7261C134.468 68.6397 134.606 68.5781 134.752 68.5449C134.897 68.5116 135.048 68.5073 135.196 68.5323C135.343 68.5572 135.485 68.6109 135.611 68.6903L139.965 71.4655L138.349 67.4817C138.236 67.2027 138.239 66.8904 138.357 66.6134C138.474 66.3363 138.698 66.1174 138.977 66.0046C139.257 65.8918 139.57 65.8945 139.848 66.012C140.126 66.1295 140.345 66.3523 140.459 66.6312L142.478 71.6893L144.498 68.1531C144.656 67.896 144.909 67.7102 145.202 67.635C145.495 67.5599 145.806 67.6012 146.069 67.7503C146.324 67.8998 146.509 68.1435 146.584 68.4284C146.66 68.7134 146.62 69.0166 146.473 69.2722L144.363 72.9874L149.614 72.4951C149.917 72.4699 150.218 72.5633 150.452 72.7555C150.687 72.9477 150.837 73.2236 150.871 73.5246C150.883 73.6716 150.866 73.8196 150.821 73.9601C150.776 74.1006 150.703 74.2307 150.607 74.343C150.511 74.4554 150.394 74.5477 150.262 74.6146C150.13 74.6816 149.986 74.7219 149.839 74.7331L145.71 75.136L150.243 78.0008C150.366 78.0778 150.473 78.1791 150.556 78.2983C150.639 78.4176 150.697 78.5524 150.726 78.6947C150.756 78.837 150.756 78.9837 150.727 79.126C150.698 79.2683 150.64 79.4032 150.557 79.5227C150.458 79.6844 150.32 79.8185 150.155 79.9125C149.99 80.0064 149.804 80.0571 149.614 80.0598C149.405 80.0699 149.199 80.0066 149.031 79.8808L144.677 77.1055L146.293 81.0893C146.351 81.2272 146.381 81.3753 146.381 81.5249C146.381 81.6745 146.35 81.8226 146.292 81.9603C146.233 82.098 146.148 82.2226 146.04 82.3267C145.932 82.4308 145.805 82.5124 145.665 82.5665L145.216 82.656C144.992 82.6531 144.774 82.5833 144.59 82.4557C144.406 82.328 144.264 82.1484 144.184 81.9398L142.119 76.8817L140.099 80.4179C140.003 80.5945 139.86 80.7418 139.686 80.8442C139.512 80.9466 139.314 81.0004 139.112 80.9998C138.917 81.0032 138.727 80.94 138.574 80.8208C138.443 80.7513 138.328 80.6556 138.236 80.5398C138.144 80.424 138.077 80.2905 138.039 80.1476C138.001 80.0048 137.993 79.8557 138.015 79.7097C138.038 79.5636 138.09 79.4238 138.17 79.2989L140.279 75.5836L134.983 76.076H134.893C134.746 76.0819 134.599 76.0588 134.46 76.008C134.322 75.9571 134.195 75.8797 134.087 75.7799C133.978 75.6801 133.891 75.5601 133.829 75.4266C133.767 75.293 133.732 75.1487 133.726 75.0017C133.72 74.8548 133.744 74.7081 133.794 74.5701C133.845 74.4321 133.923 74.3054 134.023 74.1973C134.123 74.0893 134.244 74.0019 134.377 73.9402C134.511 73.8786 134.656 73.8438 134.803 73.8379Z" fill="#294741"/>
<path d="M115.594 75.5327L119.723 75.1746L115.19 72.3098C115.063 72.2305 114.954 72.127 114.867 72.0053C114.78 71.8836 114.719 71.7461 114.685 71.6007C114.652 71.4552 114.648 71.3046 114.673 71.1574C114.698 71.0103 114.752 70.8695 114.831 70.7432C114.911 70.6168 115.014 70.5073 115.136 70.4209C115.258 70.3345 115.396 70.2729 115.542 70.2396C115.688 70.2064 115.839 70.2021 115.987 70.2271C116.134 70.252 116.275 70.3057 116.402 70.3851L120.756 73.1603L119.14 69.1765C119.034 68.8969 119.041 68.5876 119.158 68.3127C119.275 68.0377 119.493 67.8181 119.768 67.6993C120.048 67.5943 120.359 67.6008 120.634 67.7174C120.91 67.8341 121.13 68.052 121.249 68.326L123.269 73.3841L125.289 69.8479C125.447 69.5907 125.699 69.405 125.992 69.3298C126.285 69.2546 126.596 69.296 126.859 69.4451C127.114 69.5945 127.3 69.8382 127.375 70.1232C127.451 70.4082 127.411 70.7114 127.263 70.967L125.154 74.6822L130.405 74.1898C130.68 74.2098 130.938 74.3259 131.135 74.5175C131.332 74.7091 131.455 74.9639 131.481 75.237C131.508 75.5101 131.438 75.7838 131.282 76.0099C131.126 76.236 130.895 76.3999 130.63 76.4727L126.5 76.8308L131.033 79.6955C131.157 79.7726 131.263 79.8738 131.346 79.9931C131.43 80.1124 131.488 80.2472 131.517 80.3895C131.546 80.5317 131.546 80.6784 131.517 80.8208C131.488 80.9631 131.431 81.098 131.348 81.2174C131.252 81.3822 131.115 81.5187 130.949 81.6131C130.784 81.7075 130.596 81.7563 130.405 81.7546C130.196 81.7647 129.989 81.7014 129.822 81.5755L125.468 78.8003L127.084 82.7841C127.142 82.922 127.172 83.0701 127.172 83.2197C127.171 83.3693 127.141 83.5173 127.083 83.655C127.024 83.7928 126.938 83.9174 126.831 84.0215C126.723 84.1256 126.595 84.2071 126.456 84.2613L126.007 84.3508C125.783 84.3479 125.565 84.2781 125.381 84.1505C125.197 84.0228 125.055 83.8431 124.974 83.6346L122.91 78.5765L120.89 82.1127C120.793 82.2893 120.65 82.4366 120.477 82.539C120.303 82.6414 120.105 82.6951 119.903 82.6946C119.708 82.698 119.518 82.6348 119.364 82.5155C119.233 82.446 119.118 82.3504 119.026 82.2346C118.934 82.1188 118.867 81.9852 118.83 81.8424C118.792 81.6996 118.784 81.5505 118.806 81.4044C118.829 81.2584 118.881 81.1185 118.96 80.9936L121.07 77.2784L115.774 77.7708H115.684C115.537 77.7767 115.389 77.7535 115.251 77.7027C115.113 77.6519 114.986 77.5744 114.877 77.4747C114.769 77.3749 114.681 77.2548 114.62 77.1213C114.558 76.9878 114.523 76.8434 114.517 76.6965C114.511 76.5495 114.534 76.4029 114.585 76.2648C114.636 76.1268 114.714 76.0002 114.814 75.8921C114.914 75.784 115.034 75.6967 115.168 75.635C115.302 75.5733 115.447 75.5386 115.594 75.5327Z" fill="#294741"/>
<path d="M96.3871 77.2344L100.516 76.8763L95.9831 74.0115C95.7402 73.8397 95.5723 73.5817 95.5139 73.2904C95.4555 72.9992 95.511 72.6967 95.6689 72.4448C95.8261 72.1983 96.0737 72.0228 96.3588 71.9559C96.644 71.889 96.9441 71.936 97.1949 72.0868L101.548 74.862L99.9327 70.8782C99.8752 70.7435 99.8459 70.5984 99.8467 70.452C99.8474 70.3056 99.8781 70.1609 99.9369 70.0267C99.9958 69.8926 100.082 69.7719 100.189 69.672C100.296 69.5721 100.423 69.4951 100.561 69.4458C100.697 69.3865 100.842 69.3546 100.99 69.3518C101.138 69.349 101.285 69.3754 101.423 69.4294C101.561 69.4835 101.686 69.5642 101.793 69.6669C101.899 69.7696 101.984 69.8922 102.042 70.0277L104.062 75.1306L106.082 71.5496C106.24 71.2924 106.492 71.1067 106.785 71.0315C107.078 70.9563 107.389 70.9977 107.652 71.1468C107.907 71.2962 108.092 71.5399 108.168 71.8249C108.244 72.1098 108.204 72.4131 108.056 72.6687L105.947 76.3839L111.198 75.8915C111.472 75.9115 111.731 76.0276 111.928 76.2192C112.125 76.4108 112.248 76.6656 112.274 76.9387C112.301 77.2118 112.23 77.4855 112.075 77.7116C111.919 77.9377 111.688 78.1016 111.423 78.1744L107.293 78.5325L111.826 81.3972C111.95 81.4743 112.056 81.5755 112.139 81.6948C112.223 81.8141 112.281 81.9489 112.31 82.0912C112.339 82.2334 112.339 82.3801 112.31 82.5224C112.281 82.6648 112.223 82.7997 112.141 82.9191C112.045 83.0839 111.908 83.2204 111.742 83.3148C111.577 83.4091 111.389 83.458 111.198 83.4563C110.99 83.4596 110.785 83.3969 110.615 83.2772L106.261 80.5468L107.877 84.4858C107.935 84.6237 107.965 84.7718 107.965 84.9214C107.964 85.071 107.934 85.219 107.875 85.3567C107.817 85.4944 107.731 85.619 107.624 85.7232C107.516 85.8273 107.388 85.9088 107.248 85.9629L106.8 86.0525C106.576 86.0496 106.357 85.9798 106.173 85.8521C105.989 85.7245 105.848 85.5448 105.767 85.3363L103.748 80.2782L101.683 83.8144C101.594 83.9875 101.459 84.133 101.293 84.2355C101.127 84.338 100.936 84.3936 100.741 84.3963C100.538 84.3991 100.338 84.353 100.157 84.262C99.8993 84.1041 99.713 83.8524 99.6376 83.5601C99.5623 83.2678 99.6037 82.9577 99.7532 82.6953L101.863 78.9801L96.6115 79.4725H96.4768C96.3295 79.4783 96.1824 79.4552 96.044 79.4044C95.9056 79.3536 95.7786 79.2761 95.6703 79.1764C95.5619 79.0766 95.4743 78.9565 95.4125 78.823C95.3507 78.6895 95.3158 78.5451 95.3099 78.3982C95.304 78.2512 95.3272 78.1046 95.3781 77.9665C95.4291 77.8285 95.5068 77.7019 95.6068 77.5938C95.7068 77.4857 95.8272 77.3984 95.9611 77.3367C96.095 77.275 96.2397 77.2402 96.3871 77.2344Z" fill="#294741"/>
<path d="M292.206 217.477L345.706 209.375C351.72 208.48 353.874 202.974 352.842 198.319L331.119 151.856C329.324 147.603 324.073 144.739 319.36 145.41L267.836 150.826C264.424 151.811 261.238 157.585 262.764 161.882L280.088 210.315C281.749 215.015 287.225 218.238 292.206 217.477Z" fill="black"/>
<path d="M293.418 214.836L346.917 206.689C351.899 205.973 354.323 201.542 352.348 196.887L332.33 149.215C330.535 144.963 325.284 142.098 320.571 142.769L269.81 150.2C265.052 150.916 262.449 154.945 264.02 159.242L281.3 207.629C283.005 212.374 288.436 215.597 293.418 214.836Z" fill="#B0B4FF"/>
<path d="M296.919 207.809L350.374 199.663C356.388 198.767 358.542 193.306 357.51 188.651L335.787 142.143C333.992 137.891 328.741 135.026 324.028 135.743L272.548 141.114C269.092 142.099 265.906 147.918 267.477 152.215L284.756 200.603C286.462 205.347 291.892 208.57 296.919 207.809Z" fill="black"/>
<path d="M298.13 205.169L351.584 197.022C356.566 196.261 358.99 191.874 357.06 187.219L336.998 139.503C335.202 135.25 329.951 132.386 325.239 133.102L274.522 140.532C269.765 141.204 267.162 145.232 268.688 149.574L285.967 197.962C287.673 202.662 293.103 205.93 298.13 205.169Z" fill="white"/>
<path d="M319.496 186.277C320.142 186.279 320.787 186.234 321.426 186.143C324.702 185.695 327.305 184.039 328.742 181.488C330.178 178.936 330.268 176.027 329.011 173.072L319.316 150.289C316.848 144.47 309.936 140.665 303.608 141.56C300.331 142.052 297.683 143.753 296.247 146.26C294.811 148.767 294.766 151.721 296.023 154.675L305.717 177.459C307.916 182.696 313.751 186.277 319.496 186.277ZM320.842 182.204C316.354 182.83 311.103 179.966 309.398 175.892L299.703 153.109C299.331 152.348 299.141 151.511 299.149 150.664C299.157 149.817 299.362 148.984 299.748 148.23C300.556 146.797 302.127 145.812 304.146 145.544C308.635 144.917 313.886 147.782 315.636 151.855L325.286 174.639C326.049 176.385 326.049 178.13 325.241 179.518C324.433 180.906 322.862 181.89 320.842 182.204Z" fill="#D1D4FF"/>
<path d="M302.846 159.331C307.379 155.571 338.572 174.55 334.308 183.412C333.397 185.065 332.264 186.586 330.942 187.933L330.403 188.471C327.185 191.646 322.897 193.513 318.375 193.708C308.86 193.842 300.557 188.112 297.28 178.802C295.799 174.55 295.126 165.687 302.846 159.331Z" fill="black"/>
<path d="M308.756 186.444C299.329 180.637 295.456 169.843 300.106 162.334C304.756 154.825 316.168 153.445 325.595 159.252C335.022 165.058 338.895 175.853 334.245 183.362C329.595 190.87 318.183 192.25 308.756 186.444Z" fill="#5865F2"/>
<path d="M315.86 175.89C316.533 168.146 320.079 162.237 323.58 158.164C326.882 159.791 329.779 162.13 332.062 165.013C329.414 168.594 324.343 175.845 320.797 183.992C319.585 186.722 317.97 188.423 316.174 189.497C314.323 189.093 312.529 188.462 310.833 187.617C313.212 185.782 315.322 182.291 315.86 175.89Z" fill="#808BFF"/>
<path d="M311.431 183.681C304.168 179.516 301.075 171.292 304.523 165.313C307.97 159.334 316.652 157.863 323.916 162.028C331.179 166.194 334.272 174.417 330.824 180.397C327.377 186.376 318.694 187.846 311.431 183.681Z" fill="#5865F2"/>
<path d="M303.606 174.239C302.761 171.694 302.856 168.931 303.875 166.45C305.536 163.227 308.902 160.944 313.255 160.497C320.975 159.646 329.054 164.883 331.208 172.135C332.03 174.683 331.934 177.438 330.939 179.923C329.278 183.146 325.912 185.429 321.558 185.877C313.839 186.727 305.76 181.49 303.606 174.239Z" fill="#D1D4FF"/>
<path d="M324.882 172.756L324.343 173.651C323.714 174.717 322.91 175.67 321.964 176.471L321.695 176.65C320.76 177.145 319.687 177.318 318.643 177.142C317.717 177.022 316.829 176.701 316.04 176.202C315.752 176.018 315.482 175.808 315.232 175.576C312.853 173.427 313.167 169.578 315.726 167.653L317.431 166.444C317.611 166.314 317.832 166.252 318.053 166.268C318.275 166.285 318.484 166.379 318.643 166.534L324.253 169.488L324.478 169.622C325.016 170.249 325.51 171.771 324.882 172.756Z" fill="#5865F2"/>
<path d="M318.54 173.89C316.133 172.51 315.113 169.776 316.263 167.782C317.412 165.789 320.294 165.293 322.701 166.673C325.108 168.053 326.127 170.788 324.978 172.781C323.829 174.774 320.946 175.271 318.54 173.89Z" fill="#808BFF"/>
<path d="M149.258 263.005C162.274 263.005 166.762 257.767 170.846 249.173C170.983 248.87 170.994 248.526 170.876 248.215C170.758 247.905 170.521 247.654 170.218 247.517C170.072 247.442 169.911 247.397 169.747 247.386C169.583 247.375 169.418 247.397 169.262 247.452C169.107 247.506 168.964 247.591 168.843 247.703C168.722 247.814 168.625 247.949 168.557 248.099C165.55 254.5 162.678 258.215 156.35 259.737C149.034 261.483 137.409 260.185 118.739 255.395C106.935 252.396 98.3622 254.992 92.1236 256.872C85.885 258.752 82.3842 259.603 79.3771 255.44C76.37 251.277 78.4346 246.308 80.0952 243.891C85.3913 236.058 98.3173 229.836 110.75 232.925C114.879 233.954 118.335 235.968 121.701 237.848C129.376 242.235 136.602 246.398 149.887 238.251C155.452 234.805 161.466 235.834 164.967 238.341C167.346 240.042 168.423 242.28 167.884 244.518C167.817 244.838 167.878 245.172 168.054 245.448C168.23 245.724 168.507 245.92 168.827 245.995C168.989 246.035 169.157 246.042 169.322 246.016C169.487 245.99 169.645 245.932 169.787 245.844C169.93 245.757 170.053 245.642 170.15 245.506C170.247 245.371 170.316 245.217 170.353 245.055C171.071 241.877 169.635 238.609 166.448 236.326C162.274 233.327 155.093 232.074 148.585 236.103C136.557 243.488 130.273 239.863 122.957 235.7C119.457 233.686 115.866 231.626 111.378 230.507C97.8236 227.15 83.7756 233.954 78.0307 242.459C74.5748 247.517 74.3504 252.799 77.3126 256.917C81.5315 262.691 86.5582 261.169 92.8866 259.289C99.2149 257.409 106.979 254.992 118.11 257.857C132.068 261.393 141.987 263.005 149.258 263.005Z" fill="#B0B4FF"/>
<path d="M140.504 220.255C141.093 220.237 141.665 220.049 142.15 219.713C142.634 219.377 143.011 218.909 143.234 218.364C143.457 217.82 143.517 217.222 143.407 216.644C143.297 216.066 143.021 215.532 142.613 215.107L83.6384 156.693C83.073 156.129 82.3061 155.812 81.5065 155.812C80.7069 155.813 79.94 156.129 79.3746 156.693C78.8092 157.257 78.4915 158.022 78.4915 158.819C78.4915 159.617 78.8092 160.382 79.3746 160.946L138.394 219.36C138.951 219.924 139.71 220.246 140.504 220.255Z" fill="#FFC619"/>
<path d="M149.796 256.691H149.886C152.59 256.691 155.267 256.158 157.763 255.121C160.259 254.083 162.524 252.563 164.428 250.648L174.167 240.89C176.074 238.974 177.583 236.701 178.61 234.203C179.636 231.705 180.159 229.03 180.148 226.33C180.127 220.878 177.935 215.657 174.055 211.817C170.174 207.976 164.923 205.831 159.456 205.852C153.989 205.873 148.755 208.059 144.904 211.929L135.21 221.687C133.298 223.598 131.783 225.866 130.753 228.362C129.723 230.857 129.196 233.532 129.205 236.231C129.213 238.93 129.756 241.601 130.802 244.09C131.847 246.58 133.376 248.839 135.299 250.737C137.202 252.635 139.463 254.138 141.951 255.16C144.439 256.182 147.105 256.702 149.796 256.691ZM159.536 211.839C162.408 211.857 165.212 212.717 167.598 214.314C169.983 215.91 171.845 218.171 172.95 220.816C174.056 223.46 174.356 226.37 173.815 229.184C173.273 231.997 171.912 234.59 169.903 236.637L160.164 246.396C158.821 247.766 157.214 248.853 155.441 249.591C153.667 250.329 151.763 250.704 149.841 250.693H149.796C146.908 250.709 144.081 249.867 141.675 248.274C139.269 246.682 137.392 244.411 136.285 241.751C135.178 239.091 134.89 236.162 135.457 233.338C136.025 230.514 137.423 227.923 139.473 225.895L149.168 216.136C150.526 214.773 152.141 213.691 153.921 212.953C155.7 212.216 157.608 211.837 159.536 211.839Z" fill="#FFC619"/>
<path d="M74.933 154.633C74.9723 154.447 75.0326 154.267 75.1126 154.095L75.3818 153.558L75.7409 153.111L76.2346 152.753C76.3814 152.622 76.548 152.517 76.7283 152.439L77.3118 152.26C77.6995 152.215 78.091 152.215 78.4787 152.26L79.0622 152.439C79.2424 152.517 79.4091 152.622 79.5559 152.753C79.7243 152.846 79.8759 152.967 80.0047 153.111L80.4086 153.558L80.6779 154.095C80.7228 154.274 80.8126 154.453 80.8574 154.633C80.9023 154.812 80.9023 155.035 80.9023 155.214C80.9023 155.393 80.8574 155.617 80.8574 155.796C80.8574 155.975 80.7228 156.199 80.6779 156.378L80.4086 156.915L80.0047 157.363C79.73 157.626 79.4109 157.838 79.0622 157.99L78.4787 158.169H77.3118L76.7283 157.99C76.5503 157.927 76.3836 157.837 76.2346 157.721L75.7409 157.363L75.3818 156.915L75.1126 156.378C75.0264 156.193 74.966 155.998 74.933 155.796C74.8941 155.605 74.879 155.41 74.8882 155.214C74.8808 155.019 74.8958 154.824 74.933 154.633Z" fill="#FFC619"/>
<path d="M133.861 207.499C134.431 206.944 135.196 206.633 135.993 206.633C136.789 206.633 137.555 206.944 138.125 207.499C138.505 207.887 138.773 208.371 138.9 208.899C139.026 209.427 139.006 209.98 138.843 210.498L140.279 209.065C140.844 208.501 141.611 208.184 142.411 208.184C143.21 208.184 143.977 208.501 144.543 209.065C145.108 209.629 145.426 210.394 145.426 211.191C145.426 211.989 145.108 212.754 144.543 213.318L136.599 221.285C136.02 221.845 135.25 222.164 134.444 222.18C133.65 222.172 132.892 221.85 132.335 221.285C132.052 221.013 131.827 220.688 131.671 220.329C131.516 219.969 131.434 219.582 131.43 219.191C131.426 218.799 131.499 218.411 131.647 218.048C131.795 217.685 132.013 217.355 132.29 217.078L133.726 215.645C133.435 215.734 133.133 215.779 132.829 215.779C132.438 215.783 132.051 215.71 131.689 215.564C131.327 215.418 130.997 215.202 130.719 214.929C130.435 214.653 130.209 214.324 130.053 213.961C129.897 213.598 129.814 213.207 129.81 212.812C129.806 212.417 129.88 212.025 130.029 211.658C130.177 211.292 130.396 210.958 130.674 210.677L133.861 207.499Z" fill="#FFC619"/>
<path d="M108.909 182.833C109.468 182.263 110.232 181.938 111.031 181.93C111.831 181.921 112.601 182.23 113.172 182.788C113.744 183.346 114.07 184.108 114.078 184.905C114.086 185.703 113.777 186.471 113.217 187.041L110.031 190.219C109.474 190.783 108.715 191.105 107.921 191.114C107.114 191.107 106.341 190.786 105.767 190.219C105.487 189.944 105.265 189.616 105.114 189.255C104.962 188.894 104.884 188.506 104.884 188.115C104.884 187.723 104.962 187.336 105.114 186.975C105.265 186.613 105.487 186.286 105.767 186.011L108.909 182.833Z" fill="#FFC619"/>
<path d="M169.094 250.6C169.428 250.603 169.761 250.557 170.082 250.466C170.406 250.418 170.723 250.328 171.024 250.197L171.922 249.75C172.182 249.565 172.422 249.355 172.64 249.123C172.886 248.902 173.098 248.645 173.268 248.362L173.762 247.512C173.872 247.205 173.962 246.891 174.031 246.572C174.081 246.246 174.111 245.917 174.121 245.587C174.113 245.257 174.083 244.928 174.031 244.602C173.962 244.283 173.872 243.969 173.762 243.662C173.624 243.364 173.459 243.079 173.268 242.812C173.098 242.529 172.886 242.272 172.64 242.051C172.422 241.819 172.182 241.609 171.922 241.424L171.024 240.976L170.082 240.663C169.445 240.529 168.788 240.529 168.152 240.663L167.209 240.976L166.312 241.424L165.549 242.051C165.33 242.285 165.134 242.54 164.965 242.812C164.758 243.068 164.591 243.355 164.471 243.662C164.341 243.962 164.25 244.278 164.202 244.602C164.128 244.925 164.098 245.256 164.112 245.587C164.1 245.918 164.13 246.249 164.202 246.572C164.25 246.895 164.341 247.211 164.471 247.512C164.602 247.814 164.768 248.099 164.965 248.362C165.134 248.634 165.33 248.889 165.549 249.123L166.312 249.75L167.209 250.197C167.51 250.328 167.827 250.418 168.152 250.466C168.458 250.554 168.775 250.6 169.094 250.6Z" fill="#FFC619"/>
<path d="M97.4206 171.017C95.5475 170.344 93.7794 169.41 92.1695 168.242C92.3041 167.705 92.4836 167.212 92.6632 166.675C90.9663 165.43 89.4682 163.936 88.2199 162.244C87.7108 162.463 87.1856 162.642 86.649 162.781C85.4802 161.167 84.5295 159.406 83.8214 157.544C85.0333 151.232 87.9954 146.891 91.9451 143.578C94.5437 143.975 97.0602 144.791 99.3954 145.995C99.2551 146.935 99.0451 147.862 98.7671 148.77C97.9661 148.427 97.1411 148.143 96.2986 147.92C96.3435 148.144 96.3435 148.412 96.3884 148.636C98.6592 149.449 100.724 150.747 102.438 152.441C104.151 154.134 105.472 156.182 106.307 158.439L107.025 158.529C106.793 157.685 106.493 156.862 106.128 156.067C107.025 155.794 107.939 155.585 108.866 155.44C110.127 157.738 110.977 160.237 111.379 162.826C107.88 167.158 102.917 170.07 97.4206 171.017ZM96.2088 152.217C95.6735 151.802 95.0046 151.596 94.3278 151.639C93.6511 151.681 93.0131 151.968 92.5336 152.446C92.0542 152.924 91.7663 153.561 91.724 154.235C91.6818 154.91 91.888 155.578 92.3041 156.111C93.2915 157.096 94.9521 157.007 96.0293 155.888C97.1065 154.769 97.1962 153.202 96.2088 152.217ZM102.717 158.663C102.181 158.248 101.512 158.042 100.836 158.084C100.159 158.126 99.521 158.414 99.0415 158.892C98.5621 159.37 98.2741 160.006 98.2319 160.681C98.1896 161.356 98.3959 162.023 98.812 162.557C99.7994 163.542 101.46 163.452 102.537 162.333C103.614 161.214 103.704 159.648 102.717 158.663Z" fill="#FFC619"/>
<path d="M80.9381 155.372L81.2891 155.719L78.5741 158.455L78.2232 158.109L80.9381 155.372Z" fill="#EA882F"/>
<path d="M109.149 182.036L109.5 182.383L105.27 186.646L104.919 186.3L109.149 182.036Z" fill="#EA882F"/>
<path d="M114.027 186.772L109.808 191.025L109.449 190.666L113.668 186.414L114.027 186.772Z" fill="#EA882F"/>
<path d="M134.449 207.053L130.23 211.306L129.871 210.948L134.09 206.695L134.449 207.053Z" fill="#EA882F"/>
<path d="M139.017 209.466L139.367 209.812L133.248 215.958L132.897 215.611L139.017 209.466Z" fill="#EA882F"/>
<path d="M145.384 211.028L145.734 211.375L134.387 222.771L134.037 222.424L145.384 211.028Z" fill="#EA882F"/>
<path d="M113.218 190.982L122.015 199.71C122.091 199.778 122.152 199.86 122.194 199.953C122.236 200.045 122.258 200.146 122.258 200.247C122.258 200.349 122.236 200.45 122.194 200.542C122.152 200.635 122.091 200.717 122.015 200.785C121.872 200.927 121.678 201.008 121.476 201.008C121.289 201.001 121.111 200.921 120.982 200.785L112.186 192.056C112.109 191.989 112.048 191.906 112.006 191.814C111.964 191.721 111.942 191.621 111.942 191.519C111.942 191.417 111.964 191.317 112.006 191.224C112.048 191.132 112.109 191.049 112.186 190.982C112.326 190.853 112.511 190.781 112.702 190.781C112.893 190.781 113.077 190.853 113.218 190.982Z" fill="#FFE75C"/>
<path d="M80.4533 159.604C80.6014 159.471 80.7931 159.398 80.9919 159.398C81.1906 159.398 81.3823 159.471 81.5304 159.604L97.0147 175.002C97.0911 175.069 97.1523 175.152 97.1942 175.244C97.2361 175.337 97.2578 175.437 97.2578 175.539C97.2578 175.64 97.2361 175.741 97.1942 175.834C97.1523 175.926 97.0911 176.009 97.0147 176.076C96.8858 176.212 96.7086 176.292 96.521 176.3C96.3188 176.299 96.1251 176.219 95.9824 176.076L80.4533 160.678C80.3208 160.53 80.2476 160.339 80.2476 160.141C80.2476 159.943 80.3208 159.751 80.4533 159.604Z" fill="#FFE75C"/>
<path d="M133.64 242.908C133.731 242.872 133.828 242.856 133.926 242.86C134.023 242.864 134.119 242.887 134.208 242.929C134.296 242.971 134.374 243.03 134.439 243.104C134.503 243.177 134.552 243.263 134.582 243.355C135.841 246.272 137.994 248.716 140.731 250.338C145.354 253.024 149.169 252.934 149.214 252.934C149.312 252.928 149.41 252.942 149.502 252.975C149.595 253.009 149.679 253.06 149.751 253.128C149.822 253.195 149.879 253.276 149.918 253.366C149.957 253.456 149.977 253.553 149.977 253.651C149.977 253.845 149.903 254.032 149.769 254.173C149.636 254.315 149.453 254.4 149.258 254.411H149.124C148.406 254.411 144.591 254.277 139.968 251.591C136.904 249.838 134.518 247.112 133.191 243.848C133.155 243.757 133.139 243.66 133.143 243.562C133.147 243.465 133.17 243.369 133.212 243.281C133.254 243.193 133.314 243.115 133.387 243.05C133.461 242.986 133.547 242.938 133.64 242.908Z" fill="#FFE75C"/>
<path d="M168.468 252.305C168.684 252.317 168.899 252.269 169.089 252.166C169.279 252.063 169.437 251.91 169.545 251.723C170.271 250.388 170.8 248.956 171.116 247.47C171.156 247.309 171.163 247.141 171.137 246.976C171.111 246.812 171.053 246.654 170.965 246.512C170.877 246.371 170.762 246.248 170.626 246.151C170.49 246.054 170.336 245.985 170.173 245.949C169.852 245.881 169.518 245.942 169.241 246.118C168.964 246.293 168.767 246.57 168.692 246.889C168.414 248.119 167.977 249.307 167.391 250.425C167.227 250.71 167.182 251.049 167.266 251.367C167.35 251.685 167.556 251.958 167.84 252.126C168.024 252.252 168.245 252.314 168.468 252.305Z" fill="#B0B4FF"/>
</g>
<defs>
<clipPath id="clip0_23608_18923">
<rect width="342" height="235" fill="white" transform="matrix(-1 0 0 1 394 28)"/>
</clipPath>
</defs>
</svg>
