<?xml version="1.0" encoding="UTF-8"?>
<svg id="art" xmlns="http://www.w3.org/2000/svg" xmlns:xlink="http://www.w3.org/1999/xlink" viewBox="0 0 214.88 146.47">
  <defs>
    <linearGradient id="linear-gradient" x1="58.08" y1="12.14" x2="58.08" y2="48.43" gradientTransform="translate(0 149.37) scale(1 -1)" gradientUnits="userSpaceOnUse">
      <stop offset="0" stop-color="#4970de"/>
      <stop offset=".05" stop-color="#5279e7"/>
      <stop offset=".14" stop-color="#5f85f5"/>
      <stop offset=".27" stop-color="#668cfc"/>
      <stop offset=".51" stop-color="#698fff"/>
    </linearGradient>
    <linearGradient id="linear-gradient-2" x1="-224.11" y1="15.96" x2="-205.89" y2="25.14" gradientTransform="translate(-169.37 149.37) rotate(-180)" gradientUnits="userSpaceOnUse">
      <stop offset="0" stop-color="#4970dd"/>
      <stop offset=".14" stop-color="#4f76e3"/>
      <stop offset=".65" stop-color="#6288f7"/>
      <stop offset="1" stop-color="#698fff"/>
    </linearGradient>
  </defs>
  <g>
    <g>
      <polygon points="122.53 92.42 159.09 4.38 167.39 4.38 208.27 22.05 211.84 28.63 205.71 44.77 177.54 120.18 171.08 120.94 127.41 105.85 122.53 101.93 120.3 97.4 122.53 92.42" style="fill: #8fffab;"/>
      <path d="m207.5,16.33L167.63.79c-1.41-.55-2.92-.82-4.43-.79-1.51.03-3.01.37-4.39.98-1.39.61-2.63,1.5-3.67,2.6s-1.85,2.4-2.39,3.81l-33.59,86.16c-.85,2.12-1.05,4.44-.57,6.67.48,2.23,1.61,4.27,3.25,5.85,1.09,1.05,2.38,1.88,3.8,2.43l39.88,15.54c1.41.55,2.92.82,4.44.79,1.52-.03,3.02-.36,4.41-.97,1.39-.61,2.65-1.49,3.7-2.58,1.05-1.1,1.88-2.39,2.43-3.8l33.59-86.16c.55-1.42.82-2.93.79-4.45-.03-1.52-.36-3.02-.97-4.41-.61-1.39-1.49-2.65-2.59-3.7-1.1-1.05-2.39-1.88-3.81-2.43h0Zm-33.57,99.26c-.39,1.01-1.16,1.82-2.14,2.25-.49.21-1.01.33-1.54.34-.53,0-1.05-.08-1.55-.28l-41.26-16.08c-.97-.41-1.74-1.17-2.15-2.14-.41-.97-.43-2.06-.05-3.03L159.34,9.2c.4-.95,1.15-1.71,2.1-2.13.95-.42,2.02-.45,2.99-.11l8.02,3.13c.58.22,1.04.67,1.29,1.23.25.57.26,1.21.04,1.78-.21.6-.17,1.25.1,1.82.27.57.74,1.01,1.33,1.24l16.38,6.41c.29.11.6.16.91.15.31,0,.61-.07.89-.19.28-.12.53-.3.74-.52.22-.22.38-.48.49-.77.12-.29.29-.56.51-.79.22-.22.49-.4.78-.52.31-.13.63-.19.96-.17.32,0,.63.07.92.2l7.92,3.08c.98.38,1.77,1.13,2.21,2.09.44.96.48,2.05.12,3.04l-34.1,87.4Z" style="fill: #29ca7a;"/>
    </g>
    <path d="m152.7,19.15c.07-.55.22-1.09.5-1.57,1.79-3.08,6.72-3.79,9.66-1.94,3.21,2.02,4.49,5.82,1.71,10.22-4.95,7.86-7.44,11.28-9.15,10.04-2.34-1.7-3.68-9.16-2.73-16.76Z"/>
    <ellipse cx="157.68" cy="26.96" rx="4.75" ry="5.94" transform="translate(95.7 174.43) rotate(-76.9)" style="fill: #e8459c;"/>
    <path d="m141.95,71.63l-6.37,12.31c-7.89-3.13-6.97-6.44-5.68-7.88,1.87-1.61,3.83-3.13,5.87-4.53l6.18.1Z" style="fill: #e8459c;"/>
    <path d="m185.91,63.5c-4.44-6.33-8.16-8.94-27.28-.56-18.06,7.99-28.64,14.22-28.88,29.81-.04,3.54.4,7.05,1.27,10.46l37.68,14.69c.49.19,1.02.29,1.55.28.53,0,1.05-.12,1.54-.34.98-.44,1.75-1.25,2.14-2.25l16.02-41.06c-.91-4.87-2.12-8.3-4.04-11.04Z" style="fill: #ff78b6;"/>
    <path d="m172.45,58.09c-3.42.68-7.88,2.25-13.82,4.85-8.16,3.64-14.84,6.89-19.64,10.81-3.35,9.52-3.7,20.13-1.69,31.91l29.91,11.67s-5.59-27.68-3.23-45.48l8.48-13.76Z" style="fill: #fff;"/>
    <path d="m167.5,59.49l7.51,27.64c1.76,1.04,6.59-.44,10.37-.89l10.02-25.67c-6.72-7.01-12.44-6.05-27.9-1.08Z" style="fill: #ff78b6;"/>
    <path d="m138.98,73.75c-1.16,2.74-1.9,5.65-2.18,8.61.44,8.21,5.56,10.27,11.8,8.06s11.33-7.94,14.91-13.36l.46-5.2,8.48-13.76c-3.42.68-7.88,2.25-13.82,4.85-8.16,3.64-14.84,6.89-19.64,10.81Z" style="fill: #4b7dff;"/>
    <path d="m151.74,74.2h0l23.89-15.45c-3.41-17.32-3.41-23.78-11.4-30.75-7.99-6.97-20.14-2.63-26.32,2.67s-6.64,10.74-5.08,19.48c-2.47,2.79-8.25,10.89-2.23,18.63,7.36,9.46,13.39,10.41,21.13,5.42Z" style="fill: #4b7dff;"/>
    <path d="m140.92,76.11c5.25.35,16.68-2.71,27.2-10.84-7.85,12.85-25.86,25.69-27.2,10.84Z" style="fill: #2c52f0;"/>
    <path d="m140.33,39.29c2.6-.43,5.16.98,5.54,2.35.38,1.37-1.89.85-4.61,1.32s-4.59,1.73-4.97.36c-.33-1.25,1.44-3.6,4.04-4.03Z"/>
    <path d="m182.23,67.83l-9.21,7.35-9.58,3.06.28-3.15c.05-.75-.18-1.5-.67-2.08-3.43-4.2-3.46-4.71-1.84-5.89,3.77-2.81,8.77-6.31,15.38-10.36l5.63,11.07Z" style="fill: #ff78b6;"/>
    <path d="m161.43,70.87c-.98-1.41-1.05-2-.45-2.49.6-.49,1.77-.21,6.86,3.32,1.28.96,3.27,2.31,4.02,2.37s2.29-2.64,3.99-6.97c1.7-4.33,1.85-8.87,2.14-10.67h0c-.88-.69-2.12-.73-3.03-.07-5.89,4.21-10.57,7.84-14.04,10.82-1.25,1.11-1.21,1.4.5,3.71Z" style="fill: #e8459c;"/>
    <path d="m164.24,28.01c-7.99-6.97-20.14-2.63-26.32,2.67-1.05.9-1.92,1.82-2.65,2.76.12,2.6,4.91,4.7,20.31-2.64.86-.41,1.91,0,2.23.9,1.05,2.97,4.16,8.49,12.4,6.6l.43-2.44c-1.55-2.91-3.54-5.36-6.4-7.85Z"/>
    <path d="m168.57,47.54c.06.18.14.35.23.52,1.19,2.37,4.07,3.32,6.44,2.13,2.13-1.21,2.98-3.82,1.81-6.89-.2-.53-.23-1.1-.09-1.64,2.82-9.27,3.71-12.82,2.17-13.6s-8.39,5.55-13.78,11.34l3.23,8.14Z" style="fill: #4b7dff;"/>
    <path d="m168.11,44.67c.3.22.72.22,1.02,0l.31-.21,1.5-2.15c.63.94,1.26,2.21.46,3.2-.39.35-.41.96-.06,1.34.35.39.96.41,1.34.06l.23-.16c1.27-1.65.94-3.81-.87-5.99l3.98-5.86c.31-.43.21-1.02-.22-1.33-.43-.31-1.02-.21-1.33.22-2.33,3.27-6.49,9.71-6.57,9.76-.2.37-.12.83.19,1.12Z" style="fill: #2c52f0;"/>
    <g>
      <path d="m136.66,54.89c.19-.05.36-.09.54-.12.71,2.14,3.01,2.45,5.72,2.18,2.65-.26,5.82-1.56,6.47-3.85,1.18.56,1.8,1.93,1.73,3.25-.03.55-.12,1.06-.26,1.53-.96-.3-2.06-.44-3.27-.38-3.17.16-6.2,1.64-8.02,3.68l-.75-1.77c-.37-1.06-1.09-1.33-1.55-.1-.18.47-.32.95-.4,1.49-.57-.52-1.05-1.11-1.39-1.74-1.16-2.18,0-3.83,1.18-4.17Z"/>
      <path d="m138.82,59.42l.75,1.77c-.27.3-.51.62-.72.94-.73-.36-1.4-.81-1.98-1.33.08-.53.22-1.01.4-1.49.46-1.23,1.17-.96,1.55.1Z" style="fill: #fff;"/>
      <path d="m147.59,57.51c1.21-.06,2.31.08,3.27.38-.35,1.21-1.03,2.17-1.94,2.92l-.73-1.72c-.37-1.06-1.09-1.33-1.55-.1-.34.92-.55,1.87-.46,3.19,0,.04,0,.08.01.12-.95.33-1.98.55-3.04.67-1.42.16-2.95-.18-4.31-.84.21-.32.45-.64.72-.94,1.82-2.04,4.85-3.52,8.02-3.68Z" style="fill: #ff2ea0;"/>
      <path d="m146.65,58.99c.46-1.23,1.17-.96,1.55.1l.73,1.72c-.77.64-1.69,1.13-2.72,1.49,0-.04-.01-.08-.01-.12-.09-1.31.12-2.26.46-3.19Z" style="fill: #fff;"/>
      <path d="m142.92,56.96c-2.72.26-5.01-.04-5.72-2.18,1.76-.3,2.85.59,4.32.51,1.96-.1,3.53-1.62,5.42-2.24.98-.32,1.8-.25,2.45.06-.65,2.29-3.82,3.59-6.47,3.85Z" style="fill: #fff;"/>
    </g>
    <path d="m138.73,49.47c-.17,0-.35-.04-.52-.11-.62-.29-.9-1.02-.62-1.64.04-.1,1.07-2.35,3.36-2.85,1.64-.36,3.41.25,5.23,1.83.52.45.58,1.24.13,1.76-.45.52-1.24.58-1.76.13-.82-.71-2-1.51-3.04-1.28-1.06.23-1.64,1.43-1.64,1.45-.21.46-.67.73-1.14.73Z"/>
    <g>
      <path d="m132.79,101.99c-.78-.72-1.65-1.32-2.61-1.79-1.5-.75-1.95-1.06-1.99-1.35.19-1.12.47-2.22.83-3.3.41-1.34.46-1.67.34-1.93-.94-.34-1.93-.5-2.93-.49-2.06-.17-2.48-.18-2.6-.44-.12-.26.16-1.43.48-2.51.24-.6.4-1.24.46-1.88-.12-.26-.46-.31-2.38-.64l-.42-.04c-5.18,3.24-9.73,6.22-9.73,6.22l2.72,13.27c.08.42.22.82.42,1.21,1.17,2.32,4,3.24,6.32,2.07,3.44-1.8,6.82-3.7,10.16-5.68,1.02-1.77,1.17-2.4.93-2.7Z" style="fill: #4b7dff;"/>
      <path d="m133.12,80.25c-3.18,2.03-11.13,7.36-11.13,7.36l.42.04c1.93.34,2.26.39,2.38.64-.07.65-.23,1.28-.46,1.88-.32,1.09-.6,2.26-.48,2.51.12.26.54.27,2.6.44,1-.02,1.99.15,2.93.49.12.26.07.59-.34,1.93-.36,1.08-.64,2.18-.83,3.3.04.3.49.6,1.99,1.35.95.46,1.83,1.06,2.61,1.79.24.29.1.93-.93,2.7-.03.04-.04.08-.07.12,1.56-.94,2.74-.08,5.09.64-2.95-7.06-3.9-19.88-3.77-25.2Z" style="fill: #ff78b6;"/>
    </g>
    <path d="m96.07,73.08l12.44-1.54,15.21,37.73-5.05,2.67c-6.69,3.53-14.89-.37-16.37-7.78l-6.23-31.08Z" style="fill: #4b7dff;"/>
    <g>
      <path d="m113.92,74.48c.27-.51.56-1.07.84-1.68.61-1.3,1.23-2.77,1.82-4.23.14-.35.28-.69.41-1.04.54-1.38,1.03-2.69,1.41-3.74.35-.95.11-1.97-.52-2.68-.16-.18-.33-.35-.54-.48-.15-.1-.3-.18-.47-.25l-.07-.03c-1.62-.65-3.47-.12-4.49,1.28-.09.12-.18.26-.27.4-.03.05-.06.1-.09.15-.06.1-.12.2-.19.31-.04.06-.08.13-.12.2-.06.1-.12.21-.18.31-.04.07-.08.14-.12.22-.06.11-.12.22-.18.33-.04.08-.08.15-.12.23-.06.11-.12.23-.18.34-.04.07-.08.15-.11.22-.06.12-.12.25-.18.37-.03.07-.07.13-.1.2-.08.16-.15.32-.23.47-.01.03-.03.06-.04.08-.09.18-.17.36-.25.54-.52,1.12-.88,1.98-.88,1.98,0,0,.08-.85.22-2.14h0s0,0,0,0c.03-.31.07-.66.11-1.02.01-.11.02-.21.04-.32.03-.3.07-.6.11-.92.01-.1.02-.2.04-.31.05-.41.1-.84.16-1.27,0-.07.02-.14.03-.21.05-.36.1-.73.15-1.1.02-.13.04-.26.05-.39.05-.36.1-.72.16-1.07.01-.08.02-.17.04-.25.07-.43.13-.84.2-1.25.02-.1.03-.2.05-.29.05-.31.11-.61.17-.9.02-.11.04-.22.06-.32.07-.36.15-.71.22-1.02.39-1.61-.83-3.14-2.49-3.11l-1.44.03c-1.13,3-2.48,7.49-2.79,12.56-.04.66-.59,1.17-1.25,1.17-.03,0-.05,0-.08,0-.69-.04-1.21-.64-1.17-1.33.3-4.9,1.48-9.23,2.59-12.35l-4.63.09c-1.12,2.99-2.42,7.41-2.72,12.38-.04.66-.59,1.17-1.25,1.17-.03,0-.05,0-.08,0-.69-.04-1.21-.64-1.17-1.33.3-4.77,1.43-9.02,2.51-12.12-.93.1-1.83.37-2.62.81-.64.36-1.22.82-1.71,1.36-.25.27-.47.56-.67.87-.4.62-.71,1.31-.9,2.06-.84,3.31-1.68,7.74-1.67,11.64,0,.98.06,1.92.18,2.8.37,2.65,1.33,4.78,3.26,5.7,7.36,3.49,17.7,1.39,20.02-1.38.28-.34.6-.83.92-1.41.06-.11.12-.22.19-.34Z" style="fill: #4b7dff;"/>
      <path d="m102.84,65.86s.05,0,.08,0c.66,0,1.21-.51,1.25-1.17.31-5.06,1.66-9.56,2.79-12.56l-2.69.05c-1.11,3.12-2.29,7.46-2.59,12.35-.04.69.48,1.28,1.17,1.33Z"/>
      <path d="m95.58,65.82s.05,0,.08,0c.66,0,1.21-.51,1.25-1.17.31-4.97,1.61-9.39,2.72-12.38l-2.12.04c-.2,0-.39.04-.59.06-1.08,3.1-2.22,7.35-2.51,12.12-.04.69.48,1.28,1.17,1.33Z"/>
    </g>
    <path d="m116.5,91.09l2.24,5.67c.19.49.66.79,1.16.79.15,0,.31-.03.46-.09.64-.25.96-.98.7-1.62l-2.42-6.12c-.76.48-1.48.94-2.15,1.37Z" style="fill: #2c52f0;"/>
  </g>
  <g>
    <path d="m116.59,29.56c-1.9-1.24-3.18-3.25-3.5-5.5l-.6-3.9c0-.2-.2-.3-.4-.3h0c-.2,0-.4.1-.4.3l-.6,3.9c-.32,2.25-1.6,4.26-3.5,5.5l-.5.3c-.1.1-.2.2-.2.3h0c0,.1.1.2.2.3l.5.3c1.89,1.26,3.16,3.26,3.5,5.5l.6,3.9c0,.2.2.3.4.3h0c.2,0,.4-.1.4-.3l.6-3.9c.34-2.24,1.61-4.24,3.5-5.5l.5-.3c.1-.1.2-.2.2-.3h0c0-.1-.1-.2-.2-.3,0,0-.5-.3-.5-.3Z" style="fill: #5765f1;"/>
    <path d="m133.98,127.61c-1.9-1.24-3.18-3.25-3.5-5.5l-.6-3.9c0-.2-.2-.3-.4-.3h0c-.2,0-.4.1-.4.3l-.6,3.9c-.32,2.25-1.6,4.26-3.5,5.5l-.5.3c-.1.1-.2.2-.2.3h0c0,.1.1.2.2.3l.5.3c1.89,1.26,3.16,3.26,3.5,5.5l.6,3.9c0,.2.2.3.4.3h0c.2,0,.4-.1.4-.3l.6-3.9c.34-2.24,1.61-4.24,3.5-5.5l.5-.3c.1-.1.2-.2.2-.3h0c0-.1-.1-.2-.2-.3l-.5-.3Z" style="fill: #91ffac;"/>
    <path d="m86.1,45.64c-1.32-.86-2.2-2.25-2.43-3.81l-.42-2.7c0-.14-.14-.21-.28-.21h0c-.14,0-.28.07-.28.21l-.42,2.7c-.22,1.56-1.11,2.95-2.43,3.81l-.35.21c-.07.07-.14.14-.14.21h0c0,.07.07.14.14.21l.35.21c1.31.87,2.19,2.26,2.43,3.81l.42,2.7c0,.14.14.21.28.21h0c.14,0,.28-.07.28-.21l.42-2.7c.24-1.55,1.12-2.94,2.43-3.81l.35-.21c.07-.07.14-.14.14-.21h0c0-.07-.07-.14-.14-.21l-.35-.21Z" style="fill: #6bf;"/>
    <g>
      <path d="m86.99,128.33c-.31-.31-48.73,15.46-48.73,15.46l-6.74-2.73L2.77,46.27l3.84-4.91,45.49-14.19,7.55,6.28,9.49,28.72,17.84,66.17h0Z" style="fill: #5765f1;"/>
      <path d="m90.14,118.83l-26.35-83.03h0l-1.27-4.01c-.23-.72-.52-1.4-.89-2.06s-.79-1.27-1.27-1.85c-.24-.29-.5-.56-.77-.82-.54-.52-1.12-.99-1.75-1.4-.31-.2-.64-.39-.97-.56s-.67-.33-1.02-.47c-.69-.28-1.41-.48-2.15-.62-.37-.07-.74-.12-1.11-.15h-.04c-.73-.06-1.47-.05-2.2.03-.74.08-1.48.24-2.19.47h.04L7.92,37.13c-1.34.42-2.59,1.09-3.68,1.97-.65.52-1.25,1.12-1.77,1.78-1.4,1.76-2.25,3.91-2.43,6.15-.09,1.12-.01,2.24.23,3.33.08.36.18.72.3,1.08l27.61,87.03c.33,1.07.82,2.09,1.44,3.01.21.31.43.61.67.9.72.86,1.56,1.61,2.49,2.23.31.2.63.39.97.57.33.17.67.33,1.02.47,1.04.42,2.13.68,3.25.78.37.03.75.05,1.12.04,1.12,0,2.23-.19,3.3-.53l40.25-12.78c1.43-.45,2.76-1.18,3.91-2.15,1.15-.96,2.1-2.15,2.79-3.48.13-.25.25-.52.36-.78.48-1.11.78-2.29.89-3.5.13-1.5-.04-3-.49-4.43h-.01Z" style="fill: #ffc518;"/>
      <path d="m84.14,123c-.04.52-.19,1.03-.43,1.5-.12.23-.26.8-.42,1.01-.33.4-.73.39-1.19.64-.01.01-.03.01-.04.02-.21.12-.44.21-.68.29l-33.55,10.65-3.6,1.14-1.66.53-2.88.91c-.74.21-1.53.2-2.26-.03-.25-.07-.49-.17-.72-.29-.22-.12-.44-.27-.64-.43-.39-.32-.72-.72-.97-1.17-.12-.22-.22-.46-.3-.71l-14.02-44.15L6.76,48.76c-.21-.73-.2-1.51.02-2.23.07-.24.16-.48.28-.71.24-.45.55-.85.93-1.18.19-.16.4-.31.61-.43.22-.13.45-.24.7-.32l8.09-2.57c.15-.05.3-.08.44-.09.3-.03.61,0,.89.07.15.04.29.1.43.17.53.27.93.74,1.12,1.31.21.58.64,1.06,1.2,1.34.57.26,1.21.29,1.8.09l16.61-5.22c.29-.1.55-.24.79-.43.11-.1.22-.21.31-.33.1-.12.18-.25.25-.38.07-.14.12-.28.16-.42s.07-.29.08-.44c.03-.3,0-.6-.09-.89-.05-.15-.08-.31-.1-.47,0-.16,0-.32,0-.48.02-.31.11-.62.27-.89.14-.27.35-.52.59-.71.17-.13.37-.23.56-.31.09-.04.18-.08.27-.1l8-2.54c.25-.08.5-.13.76-.16.77-.09,1.55.05,2.25.4.23.12.45.26.65.42.21.16.39.33.56.53.34.38.6.84.77,1.33l28,88.34c.16.5.22,1.02.17,1.54Z" style="fill: #ffe65c;"/>
      <g>
        <g>
          <path d="m89.75,71.69c3.34-1.96,8.88,1.83,8.28,7.16-.54,4.82-7.91,25.27-22.45,33.88l-4.61-13.55c9.16-9.27,13.69-24.5,18.78-27.5h0Z" style="fill: #3c58d8;"/>
          <path d="m73.11,100.57c1.41,2.87.09,6.76-8.72,7.15-8.81.38-12.19-.61-12.19-.61,0,0,20.91-6.54,20.91-6.54Z" style="fill: #3c58d8;"/>
          <path d="m73.87,100.95l-28.49,5.86s-7.24,10.98-10.41,18.54c-2.78,6.64,1.79,9.36,4.14,10.64,4.19,1.79,8.72,1.13,8.72,1.13l33.55-10.65c.24-.08.47-.17.68-.29-.51-8.08-3.05-15.83-8.19-25.22h0Z" style="fill: url(#linear-gradient);"/>
        </g>
        <path d="m48.34,96.12c1.08,2.43,3.31,4.07,4.93,3.43.54-.21,1.2-1.09,1.61-2.13-.75-1.25-2.63-2-4.73-1.77-.65.07-1.26.24-1.81.46h0Z" style="fill: #ff78b8;"/>
        <path d="m72.28,101.49c1.22,3.33-.61,7.49-10.13,6.97-9.52-.52-13.06-1.98-13.06-1.98l23.19-4.99Z" style="fill: #3c58d8;"/>
        <g>
          <path d="m49.71,67.61c-22.38,6.49-25.37,8.5-19.38,26.1,6.31,18.52,10.13,18.53,32.46,11.53,19.02-5.96,24.98-12.07,18.85-27.66s-12.78-15.52-31.93-9.97Z" style="fill: #698fff;"/>
          <ellipse cx="48.11" cy="84.51" rx="2.44" ry="3.01" transform="translate(-32.04 29.44) rotate(-25.86)" style="fill: #231f20;"/>
          <g>
            <path d="m23.63,97.42c3.71,10.45,7.25,9.3,13.3,7.33l-3.71-10.45-3.71-10.45c-6.05,1.97-9.59,3.12-5.88,13.57Z" style="fill: #698fff;"/>
            <path d="m28.34,95.76c1.71,4.77,2.44,4.72,6.54,3.33l-1.77-4.95-1.77-4.95c-4.1,1.39-4.71,1.8-3.01,6.57h0Z" style="fill: #b6cbff;"/>
          </g>
          <g>
            <path d="m78.34,75.83c-1.73-3.59-4.93-4.17-14.02-.89s-11.35,5.81-10.22,9.63c1.36,4.6,3.77,9.62,6.1,10.9,2.65,1.46,7.04.61,11.61-1.03,4.14-1.48,8.57-3.79,9.06-7.51.34-2.63-.34-6.55-2.53-11.11h0Z" style="fill: #b6cbff;"/>
            <path d="m76.54,82.24l-2.97,1.07c-1.06.38-1.61,1.55-1.23,2.61s1.55,1.61,2.61,1.23l2.97-1.07c1.06-.38,1.61-1.55,1.23-2.61s-1.55-1.61-2.61-1.23Z" style="fill: #698fff;"/>
            <path d="m66.55,85.83l-2.97,1.07c-1.06.38-1.61,1.55-1.23,2.61s1.55,1.61,2.61,1.23l2.97-1.07c1.06-.38,1.61-1.55,1.23-2.61s-1.55-1.61-2.61-1.23Z" style="fill: #698fff;"/>
          </g>
          <g>
            <path d="m46.34,71.07c-4.75.1-14.3-5.44-9.72-8.24,4.1-2.51,11.99,1.15,16.86,1.58l-1.86,5.41s-5.28,1.25-5.28,1.25Z" style="fill: #2ccb7a;"/>
            <path d="m34.78,59.58s5.93,9.39,18.35,8.96" style="fill: none; stroke: #048b3c; stroke-linecap: round; stroke-linejoin: round; stroke-width: 2px;"/>
            <path d="m60.24,68.2c-.19.13-.38.25-.58.36-1.07.65-2.28,1.15-3.56,1.52-3.67,1.1-7.91,1.22-11.32.85,2.47.05,4.92-1.04,6.68-3.69,2.41-3.63,2.77-7.72,5.58-10.17,2.96-2.6,6.94-1.72,7.63,2.98.44,2.97-1.59,6.23-4.43,8.15Z" style="fill: #59f186;"/>
            <path d="m56.54,69.95c.82-.27,1.61-.58,2.35-.97,2.12-3.29,2.73-7.3,2.77-7.51.05-.34-.18-.66-.53-.71-.34-.05-.66.18-.71.53,0,.06-.86,5.58-3.87,8.66h0Z" style="fill: #048b3c;"/>
          </g>
          <g>
            <path d="m48.12,95.56c.09.27.2.54.33.79l5.62.88.79.26c.28-.7.46-1.47.39-2.16-.04-.46-.44-1.27-2.86-1.54-2.61-.29-4.96-.25-4.27,1.76h0Z" style="fill: #231f20;"/>
            <path d="m48.34,96.12c1.08,2.43,3.31,4.07,4.93,3.43.54-.21,1.2-1.09,1.61-2.13-.75-1.25-2.63-2-4.73-1.77-.65.07-1.26.24-1.81.46h0Z" style="fill: #ff78b8;"/>
          </g>
        </g>
      </g>
    </g>
    <line x1="50.59" y1="126.71" x2="53.61" y2="120.13" style="fill: none; stroke: #4970de; stroke-linecap: round; stroke-miterlimit: 10; stroke-width: 2px;"/>
    <path d="m36.79,134.32c3.96,3.34,11.07,5.59,16.62,5.76,12.14.38,13.69-6.24,12.28-8,.21-.21,2.96-1.27,1.41-2.82-.74-.74-5.22-2.33-7.55-1.65,0,0-11.43-3.32-15.59-4.77-8.34-2.9-12.52,6.97-7.17,11.48Z" style="fill: url(#linear-gradient-2);"/>
    <path d="m99.46,75.51c-.43-.36-1.1-.35-1.87-.08-.88-3.38-3.29-6.38-6.13-6.38-3.59,0-6.49,4.78-6.49,9.07s2.91,6.62,6.49,6.62c1.91,0,3.61-.66,4.8-1.92.54-.43,1.09-.96,1.6-1.57,1.92-2.3,2.63-4.87,1.59-5.74h.01Z" style="fill: #3c58d8;"/>
    <path d="m42.55,123.14c3.11-.75,8.75.38,17.52,5.29" style="fill: none; stroke: #4970de; stroke-linecap: round; stroke-miterlimit: 10; stroke-width: 2px;"/>
  </g>
  <path d="m61.97,61.6c-.02.19-.42,3.6-2.31,6.96-1.07.65-2.28,1.15-3.56,1.52,3.25-3.44,3.87-8.65,3.88-8.7.06-.55.55-.94,1.1-.88.55.06.95.55.89,1.1Z" style="fill: #048b3c;"/>
</svg>