<?xml version="1.0" encoding="UTF-8"?>
<svg id="Safety_Tile" data-name="Safety Tile" xmlns="http://www.w3.org/2000/svg" xmlns:xlink="http://www.w3.org/1999/xlink" viewBox="0 0 446 290">
  <defs>
    <linearGradient id="linear-gradient" x1="374.2" y1="165.59" x2="335.08" y2="233.35" gradientUnits="userSpaceOnUse">
      <stop offset=".53" stop-color="#688ffe"/>
      <stop offset=".71" stop-color="#648bfa"/>
      <stop offset=".86" stop-color="#5a81f0"/>
      <stop offset=".99" stop-color="#4a71df"/>
      <stop offset="1" stop-color="#4970de"/>
    </linearGradient>
    <linearGradient id="linear-gradient-2" x1="332.33" y1="262.78" x2="372.49" y2="239.6" gradientUnits="userSpaceOnUse">
      <stop offset=".33" stop-color="#f2f2f2"/>
      <stop offset=".76" stop-color="#d0d4ff"/>
    </linearGradient>
    <clipPath id="clippath">
      <path d="m380.43,194.31c18.41-4.93,10.19,24.52,7.31,25.41,0,0-6.05,1.25-15,2.46-12.74,1.73-.97-25.55,7.69-27.87Z" style="fill: none;"/>
    </clipPath>
    <linearGradient id="linear-gradient-3" x1="401.43" y1="156.62" x2="309.39" y2="103.48" gradientUnits="userSpaceOnUse">
      <stop offset=".4" stop-color="#6990ff"/>
      <stop offset="1" stop-color="#809cff"/>
    </linearGradient>
    <clipPath id="clippath-1">
      <path d="m375.75,90.85c-9.02,1.46-33.09-2.36-33.25-16.83-.11-9.53,16.1-14.07,24.15,4.8,5.63,13.19,9.11,12.03,9.11,12.03Z" style="fill: none;"/>
    </clipPath>
    <linearGradient id="linear-gradient-4" x1="305.33" y1="141.76" x2="305.33" y2="165.84" gradientTransform="translate(7.37 48.96) rotate(1.88)" gradientUnits="userSpaceOnUse">
      <stop offset="0" stop-color="#ffc619"/>
      <stop offset=".25" stop-color="#ffd334"/>
      <stop offset=".51" stop-color="#ffde4a"/>
      <stop offset=".77" stop-color="#ffe457"/>
      <stop offset="1" stop-color="#ffe75c"/>
    </linearGradient>
    <clipPath id="clippath-2">
      <path d="m324.4,225.22c.01-3.05-7.43-6.86-16.62-6.89-9.2-.03-16.66,3.72-16.67,6.77,0,2.03,7.44,4.25,16.63,4.29,9.2.03,16.66-2.22,16.67-4.17Z" style="fill: none;"/>
    </clipPath>
  </defs>
  <rect x="-26.09" y="-16.24" width="489.24" height="320.02" style="fill: #3442d9;"/>
  <g>
    <path d="m120.14,226.5h-30.4v-28.49h30.4v28.49Zm-27.81-2.59h25.21v-23.31h-25.21v23.31Z" style="fill: #66bcff;"/>
    <g>
      <path d="m355.01,16.67v50.47c-33.44,22.26-60.56,4.85-60.56,4.85l-19.51,17.8,8.29-24.64c-24.29-28.11-4.78-61.22-4.78-61.22l26.78-.24h36.8c7.14,0,12.97,5.83,12.97,12.97Z" style="fill: #66bcff;"/>
      <path d="m274.94,91.09c-.25,0-.49-.07-.71-.21-.49-.32-.71-.94-.52-1.5l8.06-23.94c-23.88-28.36-4.63-61.82-4.43-62.16.23-.39.65-.63,1.1-.64l26.78-.24h36.82c7.86,0,14.26,6.4,14.26,14.26v50.47c0,.43-.22.84-.58,1.08-17.61,11.73-33.5,12.44-43.72,10.98-8.99-1.29-15.2-4.37-17.39-5.6l-18.8,17.16c-.25.22-.56.34-.87.34Zm4.29-85.86c-2.46,4.66-16.59,34.12,4.99,59.08.3.35.39.83.25,1.26l-6.69,19.89,15.81-14.43c.43-.4,1.08-.45,1.57-.13.26.17,26.54,16.46,58.57-4.46V16.67c0-6.44-5.24-11.67-11.67-11.67h-36.8l-26.01.23Z" style="fill: #66bcff;"/>
    </g>
    <path d="m92.33,226.5h-57.6c-7.86,0-14.26-6.4-14.26-14.26v-14.23h71.86v28.49Zm-69.27-25.9v11.64c0,6.43,5.24,11.67,11.67,11.67h55.01v-23.31H23.06Z" style="fill: #66bcff;"/>
    <path d="m203.72,226.5h-84.88c-.72,0-1.3-.58-1.3-1.3v-25.9c0-.72.58-1.3,1.3-1.3h121.46c.72,0,1.3.58,1.3,1.3s-.58,1.3-1.3,1.3h-120.17v23.31h83.58c.72,0,1.3.58,1.3,1.3s-.58,1.3-1.3,1.3Z" style="fill: #66bcff;"/>
    <path d="m342.04,226.5c-.72,0-1.3-.58-1.3-1.3s.58-1.3,1.3-1.3c6.43,0,11.67-5.24,11.67-11.67v-12.93c0-.72.58-1.3,1.3-1.3s1.3.58,1.3,1.3v12.93c0,7.86-6.4,14.26-14.26,14.26Z" style="fill: #f2f2f2;"/>
    <path d="m240.55,200.6H21.76c-.72,0-1.3-.58-1.3-1.3V16.67c0-7.86,6.4-14.26,14.26-14.26h307.32c7.86,0,14.26,6.4,14.26,14.26v61.34c0,.72-.58,1.3-1.3,1.3s-1.3-.58-1.3-1.3V16.67c0-6.44-5.24-11.67-11.67-11.67H34.73c-6.43,0-11.67,5.23-11.67,11.67v181.34h217.49c.72,0,1.3.58,1.3,1.3s-.58,1.3-1.3,1.3Z" style="fill: #66bcff;"/>
    <rect x="353.71" y="99.47" width="2.59" height="99.83" style="fill: #f2f2f2;"/>
    <g>
      <path d="m142.34,181.95c-41.67,0-75.57-33.9-75.57-75.57S100.67,30.81,142.34,30.81s75.57,33.9,75.57,75.57-33.9,75.57-75.57,75.57Zm0-148.55c-40.24,0-72.98,32.74-72.98,72.98s32.74,72.98,72.98,72.98,72.98-32.74,72.98-72.98-32.74-72.98-72.98-72.98Z" style="fill: #91ffad;"/>
      <path d="m165.12,177.69c-6.68,0-14.68-4.97-23.04-14.45-10-11.33-19.46-27.84-26.65-46.5-15.24-39.54-15.36-75.07-.27-80.89,15.08-5.82,38.85,20.6,54.09,60.14h0c15.24,39.54,15.36,75.07.27,80.89-1.39.54-2.86.8-4.4.8ZM119.56,37.66c-1.22,0-2.38.2-3.47.63-13.28,5.12-12.47,40.63,1.75,77.54,7.08,18.37,16.38,34.61,26.18,45.71,9.38,10.63,18.33,15.35,24.56,12.94,13.28-5.12,12.47-40.63-1.75-77.54-13.05-33.87-33.7-59.28-47.27-59.28Z" style="fill: #91ffad;"/>
      <path d="m69.51,108.49l-2.14-1.46c28-41.17,74.13-63.01,123.43-58.41l-.24,2.58c-48.33-4.51-93.59,16.9-121.04,57.28Z" style="fill: #91ffad;"/>
      <rect x="68.14" y="105.98" width="149.22" height="2.59" transform="translate(-31.34 67.53) rotate(-24.06)" style="fill: #91ffad;"/>
      <path d="m99.06,163.31c-.97,0-1.94,0-2.92-.02l.04-2.59c26.87.35,50.83-4.3,71.19-13.85,20.16-9.46,36.35-23.5,48.13-41.74l2.18,1.41c-12.05,18.66-28.6,33.02-49.21,42.68-19.97,9.37-43.31,14.12-69.41,14.12Z" style="fill: #91ffad;"/>
    </g>
    <path d="m59.63,59.91c-13.59,0-24.65-11.06-24.65-24.65s11.06-24.65,24.65-24.65,24.65,11.06,24.65,24.65-11.06,24.65-24.65,24.65Zm0-46.71c-12.16,0-22.06,9.9-22.06,22.06s9.9,22.06,22.06,22.06,22.06-9.9,22.06-22.06-9.9-22.06-22.06-22.06Z" style="fill: #91ffad;"/>
    <path d="m226.97,43.53h-28.61c-1.52,0-2.76-1.24-2.76-2.76v-17.07c0-1.52,1.24-2.76,2.76-2.76h28.61c1.52,0,2.76,1.24,2.76,2.76v17.07c0,1.52-1.24,2.76-2.76,2.76Zm-28.61-20c-.09,0-.17.08-.17.17v17.07c0,.09.08.17.17.17h28.61c.09,0,.17-.08.17-.17v-17.07c0-.09-.08-.17-.17-.17h-28.61Z" style="fill: #91ffad;"/>
    <rect x="36.56" y="68.41" width="6.44" height="7.11" rx="1.47" ry="1.47" style="fill: #91ffad;"/>
    <rect x="45.89" y="80.42" width="4.18" height="4.62" rx="1.47" ry="1.47" style="fill: #91ffad;"/>
    <rect x="97.84" y="29.81" width="4.18" height="4.62" rx="1.47" ry="1.47" style="fill: #91ffad;"/>
    <rect x="218.07" y="185.42" width="4.18" height="4.62" rx="1.47" ry="1.47" style="fill: #91ffad;"/>
    <rect x="86.06" y="17.24" width="6.44" height="7.11" rx="1.47" ry="1.47" style="fill: #91ffad;"/>
    <path d="m68,30.57h-2.59v-2.08c0-2.62-2.14-4.76-4.77-4.76s-4.76,2.13-4.76,4.76v2.08h-2.59v-2.08c0-4.05,3.3-7.35,7.35-7.35s7.36,3.3,7.36,7.35v2.08Z" style="fill: #ffc619;"/>
    <path d="m65.63,30.57h-2.59v-2.08c0-2.62-2.14-4.76-4.77-4.76s-4.76,2.13-4.76,4.76v2.08h-2.59v-2.08c0-4.05,3.3-7.35,7.35-7.35s7.36,3.3,7.36,7.35v2.08Z" style="fill: #ffe75c;"/>
    <g>
      <rect x="48.84" y="30.57" width="21.72" height="16.98" rx="1.47" ry="1.47" style="fill: #ffc619;"/>
      <path d="m69.09,48.85h-18.78c-1.52,0-2.76-1.24-2.76-2.76v-14.05c0-1.52,1.24-2.76,2.76-2.76h18.78c1.52,0,2.76,1.24,2.76,2.76v14.05c0,1.52-1.24,2.76-2.76,2.76Zm-18.78-16.98c-.09,0-.17.08-.17.17v14.05c0,.09.08.17.17.17h18.78c.09,0,.17-.08.17-.17v-14.05c0-.09-.08-.17-.17-.17h-18.78Z" style="fill: #ffc619;"/>
    </g>
    <g>
      <rect x="49.61" y="29.8" width="17.05" height="18.59" rx="1.21" ry="1.21" transform="translate(97.23 -19.04) rotate(90)" style="fill: #ffe75c;"/>
      <path d="m66.22,48.91h-16.18c-1.38,0-2.5-1.12-2.5-2.5v-14.64c0-1.38,1.12-2.5,2.5-2.5h16.18c1.38,0,2.5,1.12,2.5,2.5v14.64c0,1.38-1.12,2.5-2.5,2.5Zm-16.09-2.59h16v-14.46h-16v14.46Z" style="fill: #ffe75c;"/>
    </g>
    <rect x="202.81" y="174.64" width="6.44" height="7.11" rx="1.47" ry="1.47" style="fill: #91ffad;"/>
    <polygon points="245.51 146.13 219.77 146.13 199.23 125.59 201.06 123.76 220.84 143.54 245.51 143.54 245.51 146.13" style="fill: #91ffad;"/>
    <g>
      <path d="m258.36,122.28l-15.76,27.3c-2.87,4.97.72,11.18,6.46,11.18h31.53c5.74,0,9.33-6.21,6.46-11.18l-15.76-27.3c-2.87-4.97-10.04-4.97-12.91,0Z" style="fill: #ffc619;"/>
      <rect x="261.33" y="127.93" width="7.42" height="16.42" rx="3.71" ry="3.71" style="fill: #242145;"/>
      <rect x="261.33" y="147.89" width="7.42" height="8.06" rx="3.71" ry="3.71" style="fill: #242145;"/>
    </g>
    <path d="m71.92,189.52c-2.01,0-3.98-.7-5.53-1.98-3.71-3.05-4.25-8.56-1.2-12.27l2.87-3.49-1.56-1.28c-1.81-1.49-2.76-3.76-2.54-6.09.22-2.33,1.57-4.39,3.62-5.52l25.33-13.89c1.04-.57,2.21-.87,3.39-.87,2.24,0,4.36,1.08,5.69,2.9,1.34,1.83,1.71,4.11,1.02,6.28l-8.73,27.53c-.93,2.94-3.63,4.91-6.72,4.91,0,0,0,0,0,0-1.62,0-3.21-.57-4.47-1.6l-1.56-1.28-2.87,3.49c-1.66,2.02-4.12,3.18-6.74,3.18Z" style="fill: #91ffad;"/>
    <path d="m95.4,149.53l-25.32,13.89c-1.15.63-1.3,2.23-.29,3.07l5.56,4.58-6.16,7.49c-1.24,1.51-1.02,3.74.49,4.98,1.51,1.24,3.74,1.02,4.98-.49l6.16-7.49,5.56,4.58c1.02.84,2.56.38,2.96-.87l8.74-27.53c.51-1.6-1.2-3-2.67-2.19Z" style="fill: #242145;"/>
    <rect x="228.76" y="69.88" width="34.25" height="35.63" rx="1.47" ry="1.47"/>
    <rect x="224.69" y="66.62" width="34.25" height="35.63" rx="1.47" ry="1.47" style="fill: #eb459f;"/>
    <g>
      <rect x="239.74" y="72.32" width="3.9" height="25.2" rx="1.95" ry="1.95" transform="translate(10.74 195.77) rotate(-45)" style="fill: #f2f2f2;"/>
      <path d="m249.22,95.69c-.83,0-1.66-.32-2.3-.95l-15.06-15.06c-1.27-1.27-1.27-3.33,0-4.59h0c1.23-1.23,3.37-1.23,4.59,0l15.06,15.06c.61.61.95,1.43.95,2.3s-.34,1.68-.95,2.3-1.46.95-2.29.95Zm-15.06-18.96c-.1,0-.3.02-.46.19h0c-.25.26-.25.67,0,.93l15.06,15.06c.17.17.36.19.46.19s.3-.02.46-.19c.17-.17.19-.36.19-.46s-.03-.3-.19-.46l-15.06-15.06c-.17-.17-.36-.19-.46-.19Z" style="fill: #f2f2f2;"/>
    </g>
    <g>
      <rect x="239.74" y="72.32" width="3.9" height="25.2" rx="1.95" ry="1.95" transform="translate(130.83 -146.03) rotate(45)" style="fill: #f2f2f2;"/>
      <path d="m234.16,95.69c-.83,0-1.66-.32-2.3-.95-1.27-1.27-1.27-3.33,0-4.59l15.06-15.06c1.22-1.23,3.36-1.23,4.59,0h0s0,0,0,0c.61.61.95,1.43.95,2.3s-.34,1.68-.95,2.3l-15.06,15.06c-.63.63-1.46.95-2.3.95Zm15.06-18.96c-.1,0-.3.02-.46.19l-15.06,15.06c-.25.26-.25.67,0,.93.17.17.36.19.46.19s.3-.02.46-.19l15.06-15.06c.17-.17.19-.36.19-.46s-.03-.3-.19-.46h0c-.17-.17-.36-.19-.46-.19Z" style="fill: #f2f2f2;"/>
    </g>
    <path d="m105.06,68.04h-16.49l-12.34-16.12c-.43-.57-.33-1.38.24-1.82.57-.44,1.38-.33,1.82.24l11.56,15.1h15.21c.72,0,1.3.58,1.3,1.3s-.58,1.3-1.3,1.3Z" style="fill: #91ffad;"/>
    <polygon points="208.88 53.94 193.96 53.94 193.96 51.34 207.01 51.34 210.13 41.99 212.59 42.81 208.88 53.94" style="fill: #91ffad;"/>
    <path d="m211.96,36.13c-.93,0-1.83-.29-2.52-.87-.27-.22-1.61-1.26-3.17-2.46q-10.67-8.21-10.67-9.1c0-1.23.83-2.62,2.66-2.76h0c.17-.01,2.34-.02,26.24,0h2.46c2.76,0,2.76,2.08,2.76,2.77q0,.85-7.53,6.21c-3.64,2.6-7.24,5.13-7.68,5.42-.78.53-1.69.79-2.57.79Zm-13.36-12.61c1.85,1.53,6.7,5.27,9.25,7.23,1.88,1.45,2.96,2.27,3.25,2.52.47.39,1.34.36,1.98-.07.91-.62,10.49-7.38,13.54-9.67h-2.1c-6.01,0-23.79-.02-25.9,0Z" style="fill: #91ffad;"/>
    <path d="m219.8,43.53c-3.89,0-9.85,0-18.99,0h-2.46c-2.76,0-2.76-2.08-2.76-2.77q0-.89,11.77-9.23l1.5,2.11c-6.02,4.27-8.87,6.33-10.14,7.29h2.1c6.02,0,23.8.02,25.9,0-1.78-1.48-6.36-5.01-9.03-7.06l-1.27-.98,1.58-2.05,1.27.98q10.45,8.05,10.45,8.94c0,1.24-.84,2.63-2.67,2.76-.1,0-.97.01-7.26.01Z" style="fill: #91ffad;"/>
    <g>
      <circle cx="315.46" cy="37.36" r="18.35" style="fill: #ffc619;"/>
      <path d="m302.7,35.71c-.08-2.97,3.42-5.16,6.04-3.83.33.18.63.37.9.62.61.53.38,1.6-.39,1.83-.55.21-1.17.23-1.69.39-1.32.25-2.16,1.16-3.28,1.87-.66.45-1.61-.09-1.58-.88h0Z" style="fill: #242145;"/>
      <path d="m318.7,30.16c1.08-2.64,4.87-3.3,6.85-1.35.67.61,1.24,1.73.24,2.32-.47.26-1.11.13-1.58.07-.97-.1-1.72-.15-2.67.02-.52.11-1.22.31-1.8.33-.76.11-1.36-.73-1.04-1.41h0Z" style="fill: #242145;"/>
      <path d="m318.81,47.11c5.43-1.4,7.01-6.16,7.01-8.11,0-1.41-1.4-3.6-4.09-2.13-2.68,1.46-5.37,3.11-11.04,2.62-2.77-.24-3.85,1.94-2.8,4.02,1.28,2.56,6.26,4.8,10.91,3.6Z" style="fill: #242145;"/>
    </g>
    <path d="m213.47,234.92c-4.55,5.41-6.34,16.72,2.11,25.31,15.75,16,53.58,30.68,130.41,24.7,48.53-3.78,71.3-15.01,81.14-20.75,19.51-11.38,17.39-24.16,14.96-31.87l-228.62,2.61Z" style="fill: #3f99f2;"/>
    <path d="m263.31,213.45c-31.21-.66-56.04,13.78-49.76,31.22,6.59,18.29,55.61,37.81,132.44,31.46,76.83-6.34,105.61-31.71,94.15-47.56-8.58-11.87-36.34-11.71-60.49-8.78-16.69,2.02-38.54,6.59-67.56.49-7.35-1.54,8.04-16.16,2.72-17.2-8.43-1.65-37.29,10.67-51.5,10.37Z" style="fill: #66bcff;"/>
    <path d="m331.02,181.5l15.75-17.14c-11.04-4.01-17.55-7.23-27.31-.91-17.59,11.39-32.61,30.33-51.53,38.49-.29.12-1.29.31-2.5.78-13.9,2.93-19.02,9.67-19.02,13.9,0,4.66,15.27,8.54,35.67,3.5,19.79-5.12,46.31-19.19,48.95-38.62Z" style="fill: #698eff;"/>
    <path d="m325.92,223.5c-2.12-.28-19.73-2.23-19.03-10.04,1.3-14.39,14.47-36.95,22.2-41.95,14.22-9.21,37.09-8.53,44.81-3.41,1.12.74,7.39,1.32,8.27,2.11,1.5,1.37,1.77,3.72,3.84,8.62,7.87,18.63,4.61,40.01,1.74,40.89,0,0-35.51,7.32-61.82,3.78Z" style="fill: url(#linear-gradient);"/>
    <path d="m368.11,259.22c-.27,1.92-.54,3.54-.78,4.66-.17.81-.72,1.49-1.55,1.46-6.16-.25-27.53-1.77-32.89-2.87-1.4-.29-1.22-.73-.67-2.13,3.33-8.6,10.23-23.9,11.34-26.16.09-.18,3.14-.12,7.13.03,7.82.31,19.28,1,19.28,1,.59,2.03-.67,15.72-1.85,24Z" style="fill: url(#linear-gradient-2);"/>
    <path d="m353.96,258.86c5.43.67,27.5-.43,34.09-2.62.92-.21-6.43-30.02-7.5-30.37-.72-.23-29.67,2.98-29.76,3.23,1.4,9.39,2.74,25.73,3.17,29.76Z" style="fill: #f2f2f2;"/>
    <path d="m374.45,178.82c2.32-8.41,7.8-9.59,18.54-4.88,10.73,4.72,19.31,15.51,22.44,24.23,6.02,16.75.41,26.3-2.2,30.37-2.6,4.07-15.2,16.21-29.67,14.19-13.98-1.95-6.4-13.17-2.46-20.41,1.28-2.34,6.36-11.59,7.01-12.89.53-1.06-4.76-7.93-9.27-12.68-4.23-4.46-5.74-13.02-4.39-17.93Z" style="fill: #698eff;"/>
    <g style="clip-path: url(#clippath); fill: none;">
      <path d="m379.57,223.65c-.21,0-.43-.05-.63-.16-.63-.35-.85-1.14-.5-1.76l7.08-12.72-6.55-8.24c-.45-.56-.35-1.38.21-1.82.56-.45,1.38-.35,1.82.21l7.09,8.92c.33.41.37.98.12,1.44l-7.5,13.48c-.24.43-.68.67-1.13.67Z" style="fill: #3d58d9;"/>
    </g>
    <path d="m331.1,162.61c-.86,1.02-1.52,7.53,10.22,9.99,15.77,3.31,31.78-1.45,31.78-1.45l-42.01-8.54Z" style="fill: #3d58d9;"/>
    <path d="m363.55,94.25c43.73,9.89,48.3,14.91,41.97,45.52-7.4,35.79-15.91,36.15-59.92,26.71-37.51-8.05-50.04-18.49-41.25-48.52,8.79-30.04,16.33-33.4,59.21-23.71Z" style="fill: url(#linear-gradient-3);"/>
    <g>
      <path d="m419.37,147.13c-6.04,22.27-13.56,20.44-26.44,17.31l6.04-22.27,6.04-22.27c12.88,3.13,20.4,4.96,14.36,27.23Z" style="fill: #698eff;"/>
      <path d="m409.81,144.91c-2.78,10.17-4.32,10.18-13.05,7.94l2.88-10.55,2.88-10.55c8.72,2.24,10.06,2.99,7.28,13.16Z" style="fill: #b5caff;"/>
    </g>
    <path d="m370.55,130.59c-.75,4.05-2.87,12.04-5.49,16.46-2.77,4.69-7.48,6.93-15,6.65-5.79-.22-21.71-3.9-28.29-7.93-10.85-6.65-4.7-23.05-2.99-26.89,2.52-5.66,5.84-8.73,11.34-8.87,9.15-.22,26.96,5.16,33.19,8.06,6.03,2.81,8.11,7.8,7.24,12.51Z" style="fill: #b5caff;"/>
    <path d="m351.11,136.84c-2.76-.63-7.55-1.89-10.12-1.27-2.34.56-3.02,3.92-1.36,5.34,1.72,1.47,5.29,2.67,9.23,2.97,2.88.23,5.27-.04,6.11-2.53.93-2.75-1.72-4.02-3.86-4.51Z" style="fill: #698eff;"/>
    <path d="m323.23,129.98c2.47.56,6.76,1.45,8.54,3.05,1.62,1.46.61,5.67-2.24,5.47-2.7-.19-4.87-.68-7.34-1.5-1.65-.55-2.81-1.71-2.68-4.33.12-2.38,1.8-3.12,3.72-2.69Z" style="fill: #698eff;"/>
    <ellipse cx="377.99" cy="130.73" rx="4.8" ry="3.9" transform="translate(124.08 439.76) rotate(-69.67)" style="fill: #231f20;"/>
    <ellipse cx="313.96" cy="114.74" rx="4.8" ry="3.38" transform="translate(97.3 369.29) rotate(-69.67)" style="fill: #231f20;"/>
    <path d="m363.1,155.69c-4.13,1.88-4.37,3.28-4.19,3.96.26.99.97,1.95,1.82,2.75,0,0,0,0,0,0,.03.02.05.04.08.07,0,0,0,0,0,0h0c1.29,1.18,2.91,1.99,3.96,1.95,3.12-.09,6.05-3.58,6.71-7.55h0s0-.05,0-.07c.02-.11.04-.21.05-.32,0,0-.01,0-.02,0,.04-.31.09-.63.1-.94.1-3.29-4.08-1.89-8.53.13Z" style="fill: #ffaed7;"/>
    <path d="m371.03,91.14c7.12.04,17.73-1.63,22.2-10.25,4.19-8.09-11.01-12.8-25.38-1.78-4.38,3.36-10.83,8.29-10.83,8.29,0,0,7.71,3.7,14.01,3.74Z" style="fill: #29cc7a;"/>
    <path d="m364.18,89.3c-.68,0-1.25-.53-1.29-1.21-.04-.71.5-1.33,1.21-1.37h0c.17-.01,16.8-1.34,28.47-20.55.37-.61,1.17-.81,1.78-.44.61.37.81,1.17.43,1.78-12.4,20.42-29.79,21.75-30.52,21.79-.03,0-.06,0-.08,0Z" style="fill: #0aa348;"/>
    <path d="m375.75,90.85c-9.02,1.46-33.09-2.36-33.25-16.83-.11-9.53,16.1-14.07,24.15,4.8,5.63,13.19,9.11,12.03,9.11,12.03Z" style="fill: #55f186;"/>
    <g style="clip-path: url(#clippath-1); fill: none;">
      <path d="m379.63,96.22c-7.02,0-17.9-1.25-23.88-8.27-4.68-5.49-5.32-11.52-5.34-11.77-.07-.71.45-1.35,1.16-1.42.71-.08,1.34.45,1.42,1.16.01.11.62,5.52,4.74,10.34,8.19,9.6,27.95,7.02,28.15,7,.7-.1,1.36.4,1.46,1.11.1.71-.4,1.36-1.11,1.46-.3.04-2.91.38-6.59.38Z" style="fill: #008d3c;"/>
    </g>
    <g>
      <path d="m247.69,233.49l47.71,8.63c.7.12.98.24,1.27.66l7.12,10.35c.18.56-.69,1.22-1.59,1.22l-53.46-11.38c-1.11-.1-1.59-.38-1.92-.91l.09-7.2c-.06-.7-.14-1.38.76-1.37Z" style="fill: #d0d4ff;"/>
      <path d="m295.16,242.1l-47.55-8.63c-.37-.11-.68.01-.8.31l-8.49,11.56c-.25.6.35,1.59,1.09,1.8l45.57,9.89c.93.16,1.38-.04,1.75-.57l9.17-13.25c.25-.6.01-.9-.73-1.11Z" style="fill: #f2f2f2;"/>
    </g>
    <path d="m61.65,36.74c0-1.99-1.62-3.61-3.61-3.61s-3.61,1.62-3.61,3.61c0,1.41.82,2.62,1.99,3.21l-.82,4.84c0,.89,1.54.73,2.43.73s2.69.1,2.69-.79l-1.07-4.78c1.18-.59,1.99-1.8,1.99-3.21Z" style="fill: #242145;"/>
    <g>
      <path d="m324.4,225.22c.01-3.05-7.43-6.86-16.62-6.89-9.2-.03-16.66,3.72-16.67,6.77,0,2.03,7.44,4.25,16.63,4.29,9.2.03,16.66-2.22,16.67-4.17Z" style="fill: #ffe75c;"/>
      <rect x="304.69" y="200.65" width="5.61" height="24.09" rx="2.8" ry="2.8" transform="translate(.78 -1.12) rotate(.21)" style="fill: url(#linear-gradient-4);"/>
      <path d="m336.48,185.16c-1.16,5.44-3.31,9.87-10.02,9.84-6.53-.02-11.82-3.35-11.79-9.88.02-6.53,1.83-9.17,7.99-11.34,6.91-2.44,15.14,5.17,13.82,11.38Z" style="fill: #ffc619;"/>
      <path d="m294.54,205.3c.36,2.62,3.95,4.98,5.17,4.65,6.41-1.74,21.05-14.07,23.53-16.25,2.14-1.88,3.35-3.34,2.89-5.12-.88-3.36-3.8-5.92-7.23-6.06-1.1-.05-2.99,1.83-5.07,3.52-1.65,1.34-19.55,17.27-19.28,19.26Z" style="fill: #ffe75c;"/>
      <ellipse cx="297.78" cy="206.88" rx="2.93" ry="3.87" transform="translate(-58.54 274.04) rotate(-45.46)" style="fill: #ffc619;"/>
    </g>
    <g style="clip-path: url(#clippath-2); fill: none;">
      <path d="m306.2,225.15h0c-2.26,0-4.09-2.04-4.08-4.53v-2.19c-.01-.72.56-1.3,1.28-1.3h0c.71,0,1.29.58,1.3,1.29v2.2c0,1.05.69,1.94,1.51,1.94.72,0,1.29.58,1.29,1.3,0,.71-.58,1.29-1.3,1.29Z" style="fill: #ffc619;"/>
    </g>
    <path d="m443.38,153.08c-1.1-.7-1.84-1.83-2.04-3.12l-.34-2.19c-.02-.11-.11-.19-.22-.19h0c-.11,0-.2.08-.22.19l-.31,2.19c-.18,1.29-.91,2.43-2,3.14l-.28.18c-.06.04-.1.11-.1.19h0c0,.09.04.16.1.2l.28.18c1.1.7,1.84,1.83,2.04,3.12l.34,2.19c.02.11.11.19.22.19h0c.11,0,.2-.08.22-.19l.31-2.19c.18-1.29.91-2.43,2-3.14l.28-.18c.06-.04.1-.11.1-.19h0c0-.09-.04-.16-.1-.2l-.28-.18Z" style="fill: #ffc300;"/>
    <path d="m25.42,247.38c-1.38-.88-2.32-2.31-2.57-3.92l-.43-2.75c-.02-.14-.14-.23-.28-.23h0c-.14,0-.25.1-.27.24l-.39,2.75c-.23,1.62-1.15,3.06-2.52,3.95l-.36.23c-.08.05-.13.14-.13.23v.02c0,.09.05.18.13.23l.36.23c1.38.88,2.32,2.31,2.57,3.92l.43,2.75c.02.14.14.23.28.23h0c.14,0,.25-.1.27-.24l.39-2.75c.23-1.62,1.15-3.06,2.52-3.95l.36-.23c.08-.05.13-.14.13-.23v-.02c0-.09-.05-.18-.13-.23l-.36-.23Z" style="fill: #ffacd7;"/>
    <path d="m13.57,234.07c-2.26-1.43-3.79-3.77-4.2-6.41l-.7-4.49c-.03-.22-.23-.38-.45-.38h0c-.22,0-.41.17-.45.39l-.64,4.5c-.38,2.65-1.88,5-4.12,6.46l-.58.38c-.13.08-.21.23-.2.38v.03c0,.15.08.3.21.38l.59.37c2.26,1.43,3.79,3.77,4.2,6.41l.7,4.49c.03.22.23.38.45.38h0c.22,0,.41-.17.45-.39l.64-4.5c.38-2.65,1.88-5,4.12-6.46l.58-.38c.13-.08.21-.23.2-.38v-.03c0-.15-.08-.3-.21-.38l-.59-.37Z" style="fill: #57f287;"/>
    <path d="m435.62,169.02c-1.98-1.26-3.32-3.31-3.68-5.62l-.62-3.94c-.03-.19-.2-.34-.39-.34h0c-.2,0-.36.15-.39.34l-.57,3.95c-.33,2.32-1.65,4.39-3.61,5.67l-.51.33c-.11.07-.18.2-.18.33v.02c0,.13.07.26.18.33l.51.33c1.98,1.26,3.32,3.31,3.68,5.62l.62,3.94c.03.19.2.34.39.34h0c.2,0,.36-.15.39-.34l.57-3.95c.33-2.32,1.65-4.39,3.61-5.67l.51-.33c.11-.07.18-.2.18-.33v-.02c0-.13-.07-.26-.18-.33l-.51-.33Z" style="fill: #ffe75c;"/>
    <path d="m381.56,17.65c-1.59-1.01-2.66-2.65-2.95-4.51l-.49-3.16c-.02-.16-.16-.27-.32-.27h0c-.16,0-.29.12-.31.27l-.45,3.17c-.27,1.86-1.32,3.52-2.89,4.54l-.41.27c-.09.06-.14.16-.14.27v.02c0,.11.06.21.15.27l.41.26c1.59,1.01,2.66,2.65,2.95,4.51l.49,3.16c.02.16.16.27.32.27h0c.16,0,.29-.12.31-.27l.45-3.17c.27-1.86,1.32-3.52,2.89-4.54l.41-.27c.09-.06.14-.16.14-.27v-.02c0-.11-.06-.21-.15-.27l-.41-.26Z" style="fill: #00d071;"/>
    <path d="m402.74,32.7c-1.81-1.15-3.04-3.03-3.38-5.15l-.56-3.61c-.03-.18-.18-.31-.36-.31h0c-.18,0-.33.13-.36.31l-.52,3.62c-.3,2.13-1.51,4.02-3.31,5.2l-.47.31c-.1.07-.17.18-.16.31v.02c0,.12.06.24.17.3l.47.3c1.81,1.15,3.04,3.03,3.38,5.15l.56,3.61c.03.18.18.31.36.31h0c.18,0,.33-.13.36-.31l.52-3.62c.3-2.13,1.51-4.02,3.31-5.2l.47-.31c.1-.07.17-.18.16-.31v-.02c0-.12-.06-.24-.17-.3l-.47-.3Z" style="fill: #ffc300;"/>
  </g>
</svg>