<?xml version="1.0" encoding="UTF-8"?>
<svg id="Safety_Tile" data-name="Safety Tile" xmlns="http://www.w3.org/2000/svg" viewBox="0 0 446 290">
  <rect x="-26.09" y="-16.24" width="489.24" height="320.02" style="fill: #29cc7a;"/>
  <g>
    <g>
      <rect x="360.54" y="164.86" width="46.68" height="46.68" rx="4.5" ry="4.5" style="fill: #242145;"/>
      <rect x="358.29" y="162.61" width="46.68" height="46.67" rx="4.5" ry="4.5" style="fill: #91ffad;"/>
      <g>
        <rect x="358.29" y="203.68" width="46.68" height="1" style="fill: #57f287;"/>
        <rect x="358.29" y="194.56" width="46.68" height="1" style="fill: #57f287;"/>
        <rect x="358.29" y="185.45" width="46.68" height="1" style="fill: #57f287;"/>
        <rect x="358.29" y="176.33" width="46.68" height="1" style="fill: #57f287;"/>
        <rect x="358.29" y="167.21" width="46.68" height="1" style="fill: #57f287;"/>
        <rect x="399.36" y="162.61" width="1" height="46.67" style="fill: #57f287;"/>
        <rect x="390.25" y="162.61" width="1" height="46.67" style="fill: #57f287;"/>
        <rect x="381.13" y="162.61" width="1" height="46.67" style="fill: #57f287;"/>
        <rect x="372.01" y="162.61" width="1" height="46.67" style="fill: #57f287;"/>
        <rect x="362.89" y="162.61" width="1" height="46.67" style="fill: #57f287;"/>
      </g>
    </g>
    <path d="m401.67,122.4h-12.97c-.28,0-.5-.22-.5-.5v-6.37h-21.27c-.28,0-.5-.22-.5-.5s.22-.5.5-.5h21.77c.28,0,.5.22.5.5v6.37h12.47c.28,0,.5.22.5.5s-.22.5-.5.5Z" style="fill: #242145;"/>
    <path d="m402.65,92.87h-25.86c-.28,0-.5-.22-.5-.5s.22-.5.5-.5h25.86c.28,0,.5.22.5.5s-.22.5-.5.5Z" style="fill: #242145;"/>
    <path d="m392.72,62.26h-15.94c-.28,0-.5-.22-.5-.5s.22-.5.5-.5h15.44v-10.12c0-.28.22-.5.5-.5h12.97c.28,0,.5.22.5.5s-.22.5-.5.5h-12.47v10.12c0,.28-.22.5-.5.5Z" style="fill: #242145;"/>
    <path d="m330.2,162.41h-36.73c-.28,0-.5-.22-.5-.5s.22-.5.5-.5h36.23v-14.51c0-.28.22-.5.5-.5s.5.22.5.5v15.01c0,.28-.22.5-.5.5Z" style="fill: #242145;"/>
    <path d="m348.16,147.4h-35.92c-.28,0-.5-.22-.5-.5v-5.77c0-.28.22-.5.5-.5s.5.22.5.5v5.27h34.92v-5.27c0-.28.22-.5.5-.5s.5.22.5.5v5.77c0,.28-.22.5-.5.5Z" style="fill: #242145;"/>
    <path d="m252.97,245.76h-31.78c-.28,0-.5-.22-.5-.5v-28.68c0-.28.22-.5.5-.5s.5.22.5.5v28.18h31.28c.28,0,.5.22.5.5s-.22.5-.5.5Z" style="fill: #242145;"/>
    <path d="m159.28,175.29H63.92c-.28,0-.5-.22-.5-.5v-9.79h-17.39c-.28,0-.5-.22-.5-.5v-48.75c0-.28.22-.5.5-.5s.5.22.5.5v48.25h17.39c.28,0,.5.22.5.5v9.79h94.87c.28,0,.5.22.5.5s-.22.5-.5.5Z" style="fill: #242145;"/>
    <path d="m100.92,206.51h-16.16c-.28,0-.5-.22-.5-.5s.22-.5.5-.5h15.66v-30.72c0-.28.22-.5.5-.5s.5.22.5.5v31.22c0,.28-.22.5-.5.5Z" style="fill: #242145;"/>
    <rect x="63.3" y="101.39" width="78.89" height="46.46" rx="4.5" ry="4.5" style="fill: #242145;"/>
    <g>
      <rect x="61.05" y="99.14" width="78.89" height="46.46" rx="4.5" ry="4.5" style="fill: #5865f2;"/>
      <g>
        <rect x="70.86" y="99.14" width=".75" height="46.46" style="fill: #808aff;"/>
        <rect x="90.37" y="99.14" width=".75" height="46.46" style="fill: #808aff;"/>
        <rect x="109.87" y="99.14" width=".75" height="46.46" style="fill: #808aff;"/>
        <rect x="129.39" y="99.14" width=".75" height="46.46" style="fill: #808aff;"/>
        <g>
          <rect x="61.06" y="133.52" width="78.89" height=".75" style="fill: #808aff;"/>
          <rect x="61.06" y="110.48" width="78.89" height=".75" style="fill: #808aff;"/>
        </g>
      </g>
    </g>
    <rect x="400.09" y="114.96" width="25.02" height="13.84" rx="1.89" ry="1.89" style="fill: #57f287;"/>
    <rect x="397.16" y="85.45" width="19.77" height="13.84" rx="1.89" ry="1.89" style="fill: #808aff;"/>
    <path d="m328.1,24.81c-30.29,0-54.84,24.55-54.84,54.84s24.55,54.84,54.84,54.84,54.84-24.55,54.84-54.84-24.55-54.84-54.84-54.84Zm0,70.47c-8.63,0-15.63-7-15.63-15.63s7-15.63,15.63-15.63,15.63,7,15.63,15.63-7,15.63-15.63,15.63Z" style="fill: #3442d9;"/>
    <path d="m382.93,78.56l-39.2.78s0-.07,0-.11c0-.16,0-.31-.02-.47-.02-.38-.05-.76-.1-1.12-.02-.19-.05-.38-.08-.56-.04-.31-.1-.63-.18-.94-.13-.59-.31-1.18-.51-1.74-.04-.11-.08-.22-.12-.34-.07-.16-.13-.33-.2-.49-.06-.15-.13-.3-.2-.45-.09-.22-.19-.43-.31-.64-.02-.04-.04-.07-.05-.11-.08-.15-.16-.3-.25-.44-.09-.16-.18-.31-.27-.46-.12-.18-.23-.37-.36-.55-.13-.21-.28-.41-.44-.61-.15-.2-.3-.4-.46-.59-.12-.14-.24-.29-.36-.43-.12-.13-.23-.25-.35-.38-.12-.13-.25-.25-.38-.38-.24-.23-.48-.47-.73-.68-.11-.11-.22-.2-.33-.29-.18-.15-.37-.29-.55-.44,0,0,0,0,0,0-.2-.14-.4-.29-.61-.43-.39-.26-.79-.51-1.21-.74-.16-.08-.32-.16-.48-.25-.15-.08-.3-.16-.46-.23,0,0-.02,0-.03-.01l16.47-35.59c.58.27,1.15.55,1.72.83.46.23.93.48,1.39.73.04.02.07.04.1.06.2.11.41.22.6.33.27.15.52.3.79.45.25.15.5.3.75.45.49.29.97.59,1.45.91.46.29.91.6,1.37.91.04.02.07.05.11.08.5.34,1,.71,1.49,1.07,0,0,.01,0,.02.02.44.32.86.65,1.28.99.13.1.27.21.4.33.4.31.79.63,1.17.97.41.35.83.71,1.23,1.09.26.23.51.46.76.7.11.1.22.2.33.31.27.25.53.52.79.78.31.31.62.62.92.95.23.23.45.47.67.72.14.14.27.29.4.43.16.18.32.36.49.55.36.41.71.82,1.07,1.25.34.41.67.82.98,1.24.13.16.26.33.39.5.32.41.63.84.94,1.27.35.49.69.97,1.02,1.48.45.67.88,1.34,1.29,2.03.22.35.42.7.63,1.06,1.1,1.92,2.09,3.91,2.96,5.96.16.37.31.74.46,1.12.02.04.03.08.04.12.16.41.32.83.47,1.25.14.38.28.77.41,1.15.02.06.04.13.07.19.13.4.26.81.39,1.21.13.43.26.86.38,1.29.11.36.2.72.3,1.09.04.17.08.33.13.5.08.32.16.64.24.97,0,.06.02.11.03.16.1.41.19.83.27,1.24.19.92.35,1.86.5,2.8.06.42.12.85.17,1.28.06.49.12.99.16,1.48.04.34.07.68.1,1.01.06.79.11,1.59.13,2.38.02.34.02.67.03,1.01Z" style="fill: #5865f2;"/>
    <path d="m382.94,79.65c0,.52,0,1.04-.02,1.54,0,.31-.02.62-.04.92-.02.38-.03.76-.06,1.13-.02.43-.06.86-.1,1.29,0,.12-.02.23-.03.35-.04.46-.09.92-.15,1.37,0,.05,0,.11-.02.16-.06.53-.13,1.06-.21,1.58-.08.49-.16.97-.24,1.46-.05.26-.1.52-.16.77-.05.33-.12.65-.2.97,0,.04-.01.09-.03.13-.11.5-.22.99-.34,1.48,0,.04-.01.07-.03.11-.12.5-.26,1-.4,1.5-.16.59-.34,1.19-.52,1.79-.14.45-.29.9-.45,1.35-.17.51-.35,1.01-.55,1.52-.18.49-.38.97-.58,1.46,0,.03-.02.07-.04.1-.13.33-.27.66-.42.98-.27.64-.56,1.27-.86,1.89-.22.46-.45.91-.68,1.36-.02.02-.02.05-.04.07l-34.81-18.07c.13-.25.26-.52.38-.79.02-.03.03-.06.04-.1.11-.24.21-.49.31-.73,0-.02.01-.04.02-.06.09-.22.17-.46.24-.7.14-.42.26-.85.36-1.28.04-.17.08-.35.11-.53.04-.17.06-.33.09-.5.02-.08.03-.17.04-.26.03-.2.06-.4.08-.59.01-.09.02-.18.02-.28.02-.17.04-.35.04-.53.02-.29.03-.57.03-.86,0-.11,0-.21,0-.31l39.2-.78c.01.36.01.73.01,1.09Z" style="fill: #808aff;"/>
    <path d="m376.78,104.92c-.04.07-.08.16-.13.23-.16.33-.34.66-.53.98-.12.23-.25.46-.38.68-.5.88-1.03,1.75-1.58,2.6-.14.22-.29.45-.44.67-.26.39-.53.77-.79,1.15-.29.42-.59.83-.89,1.23-.02.03-.04.06-.07.09-.19.25-.38.5-.57.73-.08.12-.17.23-.27.35-.22.28-.44.55-.67.82-.57.71-1.17,1.39-1.79,2.06-.27.3-.55.6-.83.89-.04.06-.11.12-.16.17-.27.28-.54.55-.82.83-.32.32-.64.64-.97.95-.22.21-.44.41-.65.62-.35.32-.7.64-1.05.94-.4.35-.8.7-1.21,1.04-.56.47-1.14.93-1.73,1.37-.3.22-.6.45-.91.68-.68.49-1.37.98-2.08,1.44-.35.24-.71.46-1.06.68-.22.14-.44.29-.66.41-.32.19-.63.38-.95.56-.12.07-.24.15-.37.21-.32.19-.64.37-.97.55-.32.18-.65.35-.98.52-.53.28-1.07.55-1.62.8-.28.13-.56.27-.85.4-.44.2-.89.4-1.35.59-.35.15-.71.29-1.06.44-.77.31-1.55.61-2.35.88-.26.09-.53.18-.79.26-.98.33-1.98.63-2.99.89-.24.07-.48.13-.72.19-.44.11-.87.22-1.3.31-.35.08-.71.16-1.07.23-.4.08-.81.16-1.21.24-.36.06-.73.13-1.09.18-.21.04-.42.07-.64.1-.38.06-.75.11-1.12.16-.46.06-.91.11-1.37.16-.29.03-.59.06-.89.08-.26.02-.52.05-.78.06-.06,0-.12.02-.18.02-.59.04-1.19.07-1.79.09-.03,0-.07,0-.11,0-.24.02-.48.02-.73.02-.38,0-.76.02-1.14.02-.52,0-1.03,0-1.54-.02-.42,0-.85-.03-1.28-.05-.32-.02-.64-.03-.97-.06-.22,0-.43-.02-.64-.04-.47-.04-.95-.08-1.41-.13-.22-.02-.44-.04-.67-.08-.31-.03-.62-.07-.93-.11-.11,0-.2-.02-.31-.04-.4-.05-.81-.11-1.21-.18-.09-.02-.18-.03-.27-.04-.29-.05-.58-.11-.87-.16-.3-.05-.59-.11-.89-.17-.37-.08-.74-.15-1.1-.24-.46-.1-.91-.21-1.36-.32-.3-.08-.6-.15-.89-.23-.22-.06-.45-.12-.67-.19-.54-.15-1.07-.31-1.61-.49-.75-.23-1.5-.49-2.24-.76-.13-.04-.26-.1-.39-.15-.37-.13-.74-.28-1.1-.42-.55-.22-1.1-.45-1.65-.69-.34-.15-.69-.31-1.04-.46-.02-.02-.04-.02-.06-.03l16.51-35.57c.28.13.56.25.85.36.23.1.46.18.7.25.16.06.34.11.51.17.2.06.39.12.59.16.2.06.41.11.62.15.15.03.29.06.44.08.15.04.29.06.44.08.35.05.71.1,1.06.12.19.02.38.04.57.04.27.02.53.02.8.02s.54,0,.8-.02c.27,0,.53-.03.79-.06.26-.02.53-.06.8-.1.24-.04.49-.08.73-.13h.03c.25-.05.5-.11.75-.18.22-.05.46-.12.68-.2.51-.15,1.01-.33,1.49-.54.21-.08.42-.18.63-.28.52-.25,1.03-.53,1.52-.83.17-.1.34-.22.51-.34.21-.14.41-.28.62-.44.15-.11.29-.22.43-.35.2-.16.41-.32.6-.5.11-.1.22-.2.33-.3.13-.12.25-.25.38-.37.13-.13.25-.25.37-.38.11-.1.2-.22.3-.34.11-.11.2-.23.3-.35.14-.17.28-.35.41-.52.17-.22.33-.46.49-.69.1-.14.19-.29.28-.43.04-.06.08-.13.12-.19.08-.13.17-.28.24-.41.02-.02.02-.04.04-.06.08-.15.17-.3.24-.45l34.81,18.07Z" style="fill: #c0c8ff;"/>
    <path d="m321.52,93.83l-16.51,35.57c-7.35-3.41-13.81-8.41-18.95-14.54l30.05-25.18c1.47,1.75,3.31,3.17,5.41,4.15Z" style="fill: #e3f6ff;"/>
    <path d="m107.35,262.95h0c-4.88-4.88-4.6-12.87.61-17.4l53.69-48.23,11.33,11.33-48.23,53.69c-4.53,5.21-12.52,5.49-17.4.61Z" style="fill: #242145;"/>
    <path d="m224.02,220.06c-18.9,0-37.8-7.19-52.19-21.58-28.78-28.78-28.78-75.6,0-104.38,28.78-28.78,75.6-28.78,104.38,0,28.78,28.78,28.78,75.6,0,104.38h0c-14.39,14.39-33.29,21.58-52.19,21.58Zm0-132.56c-15.06,0-30.12,5.73-41.58,17.2-22.93,22.93-22.93,60.24,0,83.17,22.93,22.93,60.24,22.93,83.17,0,22.93-22.93,22.93-60.24,0-83.17-11.46-11.46-26.53-17.2-41.58-17.2Z" style="fill: #242145;"/>
    <rect x="150.74" y="195.91" width="33.14" height="14.16" rx="7.08" ry="7.08" transform="translate(192.54 -58.85) rotate(45)" style="fill: #fff2a6;"/>
    <g id="_图层_2" data-name="图层 2">
      <g id="Discord_Logos" data-name="Discord Logos">
        <g id="Discord_Logo_-_Large_-_White" data-name="Discord Logo - Large - White">
          <path d="m247.19,125.23c-4.41-2.05-9.03-3.47-13.75-4.25-.63,1.16-1.26,2.36-1.79,3.57-5.04-.79-10.24-.79-15.28,0-.52-1.21-1.1-2.41-1.79-3.57-4.78.79-9.4,2.26-13.76,4.25-8.71,12.92-11.08,25.46-9.92,37.85h0c5.09,3.78,10.82,6.61,16.91,8.5,1.36-1.84,2.57-3.78,3.62-5.83-1.99-.74-3.89-1.63-5.72-2.73.47-.37.94-.68,1.42-1.05,10.71,5.04,23.1,5.04,33.76,0,.47.37.95.74,1.42,1.05-1.84,1.05-3.73,2-5.72,2.73,1.05,2.05,2.26,3.99,3.62,5.83,6.09-1.84,11.81-4.73,16.91-8.45h0c1.36-14.44-2.36-26.88-9.92-37.9Zm-34.23,30.24c-3.31,0-6.04-2.99-6.04-6.67s2.62-6.67,5.99-6.67,6.09,2.99,6.04,6.67-2.68,6.67-5.99,6.67Zm22.15,0c-3.31,0-5.99-2.99-5.99-6.67s2.62-6.67,5.99-6.67,6.04,2.99,5.99,6.67-2.62,6.67-5.99,6.67Z" style="fill: #fff;"/>
        </g>
      </g>
    </g>
    <rect x="249.84" y="187.09" width="133.1" height="79.34" rx="9.75" ry="9.75" style="fill: #fff;"/>
    <rect x="14.61" y="56.45" width="111.13" height="65.45" rx="9.75" ry="9.75" style="fill: #fff;"/>
    <rect x="404.12" y="44.24" width="27.27" height="13.84" rx="1.89" ry="1.89" style="fill: #57f287;"/>
    <path d="m289.01,230.85h10.06c1.25,0,2.26,1.01,2.26,2.26v20.1h-14.59v-20.1c0-1.25,1.01-2.26,2.26-2.26Z" style="fill: #57f287;"/>
    <path d="m323.26,253.21v-36.11c0-1.25-1.01-2.26-2.26-2.26h-10.06c-1.25,0-2.26,1.01-2.26,2.26v36.11" style="fill: #29cc7a;"/>
    <path d="m345.18,253.21v-50.09c0-1.25-1.01-2.26-2.26-2.26h-10.06c-1.25,0-2.26,1.01-2.26,2.26v50.09" style="fill: #57f287;"/>
    <path d="m367.1,253.21v-26.18c0-1.25-1.01-2.26-2.26-2.26h-10.06c-1.25,0-2.26,1.01-2.26,2.26v26.18" style="fill: #91ffad;"/>
    <path d="m372.29,254.71h-90.72c-.83,0-1.5-.67-1.5-1.5s.67-1.5,1.5-1.5h90.72c.83,0,1.5.67,1.5,1.5s-.67,1.5-1.5,1.5Z" style="fill: #a9b3fc;"/>
    <path d="m281.69,220.32h-17.48c-2.49,0-4.5-2.01-4.5-4.5s2.01-4.5,4.5-4.5h17.48c2.49,0,4.5,2.01,4.5,4.5s-2.01,4.5-4.5,4.5Z" style="fill: #242145;"/>
    <polygon points="59.83 182.31 33.12 201.71 43.32 233.12 76.34 233.12 86.55 201.71 59.83 182.31" style="fill: #91ffad;"/>
    <rect x="45.98" y="192.01" width="1" height="28.09" transform="translate(-163.85 186.58) rotate(-72)" style="fill: #1eba4e;"/>
    <rect x="59.15" y="205.55" width="28.09" height="1" transform="translate(-60.02 32.64) rotate(-17.97)" style="fill: #1eba4e;"/>
    <rect x="59.33" y="182.3" width="1" height="28.09" style="fill: #1eba4e;"/>
    <rect x="67.56" y="207.73" width="1" height="28.09" transform="translate(-117.04 81.94) rotate(-35.87)" style="fill: #1eba4e;"/>
    <rect x="37.56" y="221.27" width="28.09" height="1" transform="translate(-158.36 133.67) rotate(-54.14)" style="fill: #1eba4e;"/>
    <circle cx="48.46" cy="206.7" r="1.47" style="fill: #242145;"/>
    <circle cx="59.83" cy="192.59" r="1.47" style="fill: #242145;"/>
    <circle cx="64.44" cy="208.93" r="1.47" style="fill: #242145;"/>
    <circle cx="71.83" cy="227.06" r="1.47" style="fill: #242145;"/>
    <circle cx="54.13" cy="218.33" r="1.47" style="fill: #242145;"/>
    <path d="m72.79,228.09l-19.03-9.38-5.89-12.08,12.18-15.1,4.87,17.27,7.86,19.29Zm-18.28-10.12l16.36,8.06-6.88-16.9-4.37-15.46-10.57,13.1,5.46,11.2Z" style="fill: #242145;"/>
    <circle cx="26.02" cy="75.46" r="4.7" style="fill: #242145;"/>
    <circle cx="45.05" cy="103.13" r="4.7" style="fill: #242145;"/>
    <circle cx="71.8" cy="91.47" r="4.7" style="fill: #242145;"/>
    <circle cx="87.31" cy="70.01" r="4.7" style="fill: #242145;"/>
    <circle cx="99.55" cy="104.81" r="4.7" style="fill: #242145;"/>
    <circle cx="114.56" cy="79.4" r="4.7" style="fill: #242145;"/>
    <polygon points="99.21 108.34 86.85 73.21 72.78 92.68 44.52 105 24.78 76.31 27.25 74.61 45.59 101.26 70.82 90.26 87.78 66.8 99.9 101.27 113.27 78.64 115.85 80.16 99.21 108.34" style="fill: #242145;"/>
    <path d="m300.68,208.4h-36.48c-2.49,0-4.5-2.01-4.5-4.5s2.01-4.5,4.5-4.5h36.48c2.49,0,4.5,2.01,4.5,4.5s-2.01,4.5-4.5,4.5Z" style="fill: #808aff;"/>
    <path d="m146.59,52.88c-3.12-2.01-5.23-5.27-5.78-8.95l-.94-6.25c-.05-.31-.31-.54-.62-.54h0c-.31,0-.58.23-.62.54l-.94,6.25c-.55,3.67-2.66,6.93-5.78,8.95l-.81.52c-.18.12-.29.31-.29.53v.04c0,.21.11.41.29.53l.81.52c3.12,2.01,5.23,5.27,5.78,8.95l.94,6.25c.05.31.31.54.62.54h0c.31,0,.58-.23.62-.54l.94-6.25c.55-3.67,2.66-6.93,5.78-8.95l.81-.52c.18-.12.29-.31.29-.53v-.04c0-.21-.11-.41-.29-.53l-.81-.52Z" style="fill: #fff2a6;"/>
    <path d="m263.84,63.33c-1.8-1.16-3.02-3.04-3.34-5.17l-.54-3.61c-.03-.18-.18-.31-.36-.31h0c-.18,0-.33.13-.36.31l-.54,3.61c-.32,2.12-1.53,4-3.34,5.17l-.47.3c-.1.07-.17.18-.17.31v.02c0,.12.06.24.17.31l.47.3c1.8,1.16,3.02,3.04,3.34,5.17l.54,3.61c.03.18.18.31.36.31h0c.18,0,.33-.13.36-.31l.54-3.61c.32-2.12,1.53-4,3.34-5.17l.47-.3c.1-.07.17-.18.17-.31v-.02c0-.12-.06-.24-.17-.31l-.47-.3Z" style="fill: #57f287;"/>
    <path d="m254.41,53.96c-.81-.52-1.36-1.37-1.5-2.32l-.24-1.63c-.01-.08-.08-.14-.16-.14h0c-.08,0-.15.06-.16.14l-.24,1.63c-.14.95-.69,1.8-1.5,2.32l-.21.14s-.07.08-.07.14h0c0,.07.03.12.07.15l.21.14c.81.52,1.36,1.37,1.5,2.32l.24,1.63c.01.08.08.14.16.14h0c.08,0,.15-.06.16-.14l.24-1.63c.14-.95.69-1.8,1.5-2.32l.21-.14s.07-.08.07-.14h0c0-.07-.03-.12-.07-.15l-.21-.14Z" style="fill: #ff78b9;"/>
    <path d="m398.56,226.66c-1.48-.96-2.48-2.51-2.75-4.25l-.44-2.97c-.02-.15-.15-.25-.3-.25h0c-.15,0-.27.11-.3.25l-.44,2.97c-.26,1.75-1.26,3.3-2.75,4.25l-.39.25c-.09.06-.14.15-.14.25v.02c0,.1.05.2.14.25l.39.25c1.48.96,2.48,2.51,2.75,4.25l.44,2.97c.02.15.15.25.3.25h0c.15,0,.27-.11.3-.25l.44-2.97c.26-1.75,1.26-3.3,2.75-4.25l.39-.25c.09-.06.14-.15.14-.25v-.02c0-.1-.05-.2-.14-.25l-.39-.25Z" style="fill: #ffe75c;"/>
    <path d="m407.84,232.01c-.87-.56-1.45-1.46-1.6-2.48l-.26-1.73c-.01-.09-.09-.15-.17-.15h0c-.09,0-.16.06-.17.15l-.26,1.73c-.15,1.02-.74,1.92-1.6,2.48l-.22.14s-.08.09-.08.15h0c0,.07.03.13.08.16l.22.14c.87.56,1.45,1.46,1.6,2.48l.26,1.73c.01.09.09.15.17.15h0c.09,0,.16-.06.17-.15l.26-1.73c.15-1.02.74-1.92,1.6-2.48l.22-.14s.08-.09.08-.15h0c0-.07-.03-.13-.08-.16l-.22-.14Z" style="fill: #ff78b9;"/>
    <path d="m402.51,239.12c-.62-.4-1.04-1.04-1.14-1.77l-.19-1.24c0-.06-.06-.11-.12-.11h0c-.06,0-.11.05-.12.11l-.19,1.24c-.11.73-.53,1.37-1.14,1.77l-.16.1s-.06.06-.06.1h0s.02.09.06.11l.16.1c.62.4,1.04,1.04,1.14,1.77l.19,1.24c0,.06.06.11.12.11h0c.06,0,.11-.05.12-.11l.19-1.24c.11-.73.53-1.37,1.14-1.77l.16-.1s.06-.06.06-.1h0s-.02-.09-.06-.11l-.16-.1Z" style="fill: #66bcff;"/>
    <path d="m148,188.48c-1.65-1.06-2.76-2.78-3.05-4.72l-.49-3.3c-.02-.16-.16-.28-.33-.28h0c-.16,0-.3.12-.33.28l-.49,3.3c-.29,1.94-1.4,3.66-3.05,4.72l-.43.28c-.09.06-.15.17-.15.28v.02c0,.11.06.22.15.28l.43.28c1.65,1.06,2.76,2.78,3.05,4.72l.49,3.3c.02.16.16.28.33.28h0c.16,0,.3-.12.33-.28l.49-3.3c.29-1.94,1.4-3.66,3.05-4.72l.43-.28c.09-.06.15-.17.15-.28v-.02c0-.11-.06-.22-.15-.28l-.43-.28Z" style="fill: #ff78b9;"/>
    <path d="m140.52,197.64c-.82-.53-1.38-1.39-1.53-2.36l-.25-1.65c-.01-.08-.08-.14-.16-.14h0c-.08,0-.15.06-.16.14l-.25,1.65c-.15.97-.7,1.83-1.53,2.36l-.21.14s-.08.08-.08.14h0c0,.07.03.12.08.15l.21.14c.82.53,1.38,1.39,1.53,2.36l.25,1.65c.01.08.08.14.16.14h0c.08,0,.15-.06.16-.14l.25-1.65c.15-.97.7-1.83,1.53-2.36l.21-.14s.08-.08.08-.14h0c0-.07-.03-.12-.08-.15l-.21-.14Z" style="fill: #91ffad;"/>
    <path d="m130.25,37.93c-1.6-1.03-2.68-2.7-2.96-4.58l-.48-3.2c-.02-.16-.16-.27-.32-.27h0c-.16,0-.29.12-.32.27l-.48,3.2c-.28,1.88-1.36,3.55-2.96,4.58l-.42.27c-.09.06-.15.16-.15.27v.02c0,.11.06.21.15.27l.42.27c1.6,1.03,2.68,2.7,2.96,4.58l.48,3.2c.02.16.16.27.32.27h0c.16,0,.29-.12.32-.27l.48-3.2c.28-1.88,1.36-3.55,2.96-4.58l.42-.27c.09-.06.15-.16.15-.27v-.02c0-.11-.06-.21-.15-.27l-.42-.27Z" style="fill: #91ffad;"/>
    <path d="m34.22,183.79c1.48.96,2.48,2.51,2.75,4.25l.44,2.97c.02.15.15.25.3.25h0c.15,0,.27-.11.3-.25l.44-2.97c.26-1.75,1.26-3.3,2.75-4.25l.39-.25c.09-.06.14-.15.14-.25v-.02c0-.1-.05-.2-.14-.25l-.39-.25c-1.48-.96-2.48-2.51-2.75-4.25l-.44-2.97c-.02-.15-.15-.25-.3-.25h0c-.15,0-.27.11-.3.25l-.44,2.97c-.26,1.75-1.26,3.3-2.75,4.25l-.39.25c-.09.06-.14.15-.14.25v.02c0,.1.05.2.14.25l.39.25Z" style="fill: #fff2a6;"/>
    <path d="m28.21,190.7c.87.56,1.45,1.46,1.6,2.48l.26,1.73c.01.09.09.15.17.15h0c.09,0,.16-.06.17-.15l.26-1.73c.15-1.02.74-1.92,1.6-2.48l.22-.14s.08-.09.08-.15h0c0-.07-.03-.13-.08-.16l-.22-.14c-.87-.56-1.45-1.46-1.6-2.48l-.26-1.73c-.01-.09-.09-.15-.17-.15h0c-.09,0-.16.06-.17.15l-.26,1.73c-.15,1.02-.74,1.92-1.6,2.48l-.22.14s-.08.09-.08.15h0c0,.07.03.13.08.16l.22.14Z" style="fill: #ff78b9;"/>
    <path d="m17.07,178.33c.62.4,1.04,1.04,1.14,1.77l.19,1.24c0,.06.06.11.12.11h0c.06,0,.11-.05.12-.11l.19-1.24c.11-.73.53-1.37,1.14-1.77l.16-.1s.06-.06.06-.1h0s-.02-.09-.06-.11l-.16-.1c-.62-.4-1.04-1.04-1.14-1.77l-.19-1.24c0-.06-.06-.11-.12-.11h0c-.06,0-.11.05-.12.11l-.19,1.24c-.11.73-.53,1.37-1.14,1.77l-.16.1s-.06.06-.06.1h0s.02.09.06.11l.16.1Z" style="fill: #66bcff;"/>
    <path d="m380.01,32.06c-1.48.96-2.48,2.51-2.75,4.25l-.44,2.97c-.02.15-.15.25-.3.25h0c-.15,0-.27-.11-.3-.25l-.44-2.97c-.26-1.75-1.26-3.3-2.75-4.25l-.39-.25c-.09-.06-.14-.15-.14-.25v-.02c0-.1.05-.2.14-.25l.39-.25c1.48-.96,2.48-2.51,2.75-4.25l.44-2.97c.02-.15.15-.25.3-.25h0c.15,0,.27.11.3.25l.44,2.97c.26,1.75,1.26,3.3,2.75,4.25l.39.25c.09.06.14.15.14.25v.02c0,.1-.05.2-.14.25l-.39.25Z" style="fill: #66bcff;"/>
    <path d="m386.01,38.97c-.87.56-1.45,1.46-1.6,2.48l-.26,1.73c-.01.09-.09.15-.17.15h0c-.09,0-.16-.06-.17-.15l-.26-1.73c-.15-1.02-.74-1.92-1.6-2.48l-.22-.14s-.08-.09-.08-.15h0c0-.07.03-.13.08-.16l.22-.14c.87-.56,1.45-1.46,1.6-2.48l.26-1.73c.01-.09.09-.15.17-.15h0c.09,0,.16.06.17.15l.26,1.73c.15,1.02.74,1.92,1.6,2.48l.22.14s.08.09.08.15h0c0,.07-.03.13-.08.16l-.22.14Z" style="fill: #29cc7a;"/>
    <path d="m396.97,27.5c.62.4,1.04,1.04,1.14,1.77l.19,1.24c0,.06.06.11.12.11h0c.06,0,.11-.05.12-.11l.19-1.24c.11-.73.53-1.37,1.14-1.77l.16-.1s.06-.06.06-.1h0s-.02-.09-.06-.11l-.16-.1c-.62-.4-1.04-1.04-1.14-1.77l-.19-1.24c0-.06-.06-.11-.12-.11h0c-.06,0-.11.05-.12.11l-.19,1.24c-.11.73-.53,1.37-1.14,1.77l-.16.1s-.06.06-.06.1h0s.02.09.06.11l.16.1Z" style="fill: #ffe75c;"/>
  </g>
</svg>